<svg xmlns="http://www.w3.org/2000/svg" width="39.525" height="39.55" viewBox="0 0 39.525 39.55">
  <g id="Icon_Cog" transform="translate(0)">
    <path id="Path_126" data-name="Path 126" d="M1011.244,453.327a6.594,6.594,0,1,1,6.594-6.594A6.594,6.594,0,0,1,1011.244,453.327Zm0-9.891a3.3,3.3,0,1,0,3.3,3.3A3.3,3.3,0,0,0,1011.244,443.437Z" transform="translate(-991.487 -426.965)" fill="#6b2219"/>
    <path id="Path_127" data-name="Path 127" d="M998.782,486.416a1.648,1.648,0,0,1-1.166-2.81l.1-.1a1.648,1.648,0,1,1,2.332,2.328l-.1.1A1.648,1.648,0,0,1,998.782,486.416Z" transform="translate(-987.07 -452.158)" fill="#6b2219"/>
    <path id="Path_128" data-name="Path 128" d="M992.611,447.72a4.945,4.945,0,0,1-4.945-4.945v-.148a1.648,1.648,0,1,1,3.3,0v.148a1.648,1.648,0,0,0,3.3,0v-.28a4.389,4.389,0,0,1,7.446-3.124l.116.115a1.648,1.648,0,0,0,1.166.482h0a1.65,1.65,0,0,0,1.166-2.815l-.1-.1a4.393,4.393,0,0,1,3.1-7.463h.157a1.648,1.648,0,0,0,0-3.3h-.28a4.36,4.36,0,0,1-4.006-2.646,1.781,1.781,0,0,1-.12-.433,4.344,4.344,0,0,1,1-4.5l.107-.111a1.649,1.649,0,0,0-1.162-2.819h0a1.648,1.648,0,0,0-1.166.482l-.1.1a4.389,4.389,0,0,1-7.459-3.1v-.157a1.648,1.648,0,1,0-3.3,0v.28a4.373,4.373,0,0,1-2.65,4.006,1.727,1.727,0,0,1-.433.12,4.356,4.356,0,0,1-4.5-1l-.111-.111a1.648,1.648,0,0,0-1.166-.482h0a1.649,1.649,0,0,0-1.158.474h0a1.649,1.649,0,0,0,0,2.328l.1.1a4.5,4.5,0,0,1-3.07,7.595h-.185a1.649,1.649,0,0,0-1.649,1.648,1.648,1.648,0,1,1-3.3,0,4.945,4.945,0,0,1,4.945-4.945h.119a1.047,1.047,0,0,0,.94-.7.922.922,0,0,1,.041-.095,1.067,1.067,0,0,0-.214-1.183l-.087-.082a4.945,4.945,0,0,1,0-6.981h0a4.917,4.917,0,0,1,3.495-1.446h0a4.907,4.907,0,0,1,3.495,1.446l.1.1a1.055,1.055,0,0,0,1.166.2,1.6,1.6,0,0,1,.33-.1,1.08,1.08,0,0,0,.47-.882v-.276a4.945,4.945,0,0,1,9.891,0v.148a1.092,1.092,0,0,0,1.846.766l.086-.087a4.917,4.917,0,0,1,3.495-1.446h0a4.945,4.945,0,0,1,3.5,8.44l-.1.1a1.059,1.059,0,0,0-.2,1.17,1.508,1.508,0,0,1,.1.326,1.063,1.063,0,0,0,.882.47h.276a4.945,4.945,0,1,1,0,9.891h-.148a1.092,1.092,0,0,0-.767,1.85l.087.082a4.945,4.945,0,0,1-3.5,8.448h0a4.907,4.907,0,0,1-3.494-1.447l-.107-.1a1.059,1.059,0,0,0-1.166-.2,1.076,1.076,0,0,0-.663.989v.272A4.945,4.945,0,0,1,992.611,447.72Z" transform="translate(-972.71 -408.17)" fill="#6b2219"/>
    <path id="Path_129" data-name="Path 129" d="M984.912,468.405a1.648,1.648,0,0,1-1.179-2.8,1.067,1.067,0,0,0,.214-1.183,1.08,1.08,0,0,0-.989-.668,1.648,1.648,0,0,1,0-3.3h0a4.393,4.393,0,0,1,3.12,7.451A1.65,1.65,0,0,1,984.912,468.405Z" transform="translate(-977.766 -438.911)" fill="#ffecdf"/>
    <path id="Path_130" data-name="Path 130" d="M988.427,480.938a4.908,4.908,0,0,1-3.495-1.447h0a4.945,4.945,0,0,1,0-6.981,1.649,1.649,0,0,1,2.333,2.332,1.648,1.648,0,0,0,0,2.328h0a1.647,1.647,0,0,0,1.158.474h0a1.648,1.648,0,0,0,1.166-.482,1.648,1.648,0,1,1,2.332,2.328,4.912,4.912,0,0,1-3.5,1.451Z" transform="translate(-979.048 -445.712)" fill="#ffb27c"/>
    <path id="Path_131" data-name="Path 131" d="M1003.864,487.231a1.649,1.649,0,0,1-1.649-1.607,1.063,1.063,0,0,0-.7-.981l-.1-.041a1.067,1.067,0,0,0-1.182.214,1.649,1.649,0,0,1-2.3-2.357,4.5,4.5,0,0,1,7.583,3.087,1.648,1.648,0,0,1-1.611,1.685Z" transform="translate(-987.26 -451.127)" fill="#ff7b00"/>
  </g>
</svg>
