<svg xmlns="http://www.w3.org/2000/svg" width="31.886" height="38.971" viewBox="0 0 31.886 38.971">
  <g id="Icon_Document" transform="translate(0)">
    <path id="Path_114" data-name="Path 114" d="M1011.221,451.111H989.964a5.314,5.314,0,0,1-5.314-5.314V417.454a5.314,5.314,0,0,1,5.314-5.314h14.171a1.771,1.771,0,0,1,1.253.518l10.629,10.629a1.771,1.771,0,0,1,.518,1.253V445.8a1.771,1.771,0,1,1-3.543,0V425.275l-9.588-9.592h-13.44a1.771,1.771,0,0,0-1.772,1.771V445.8a1.772,1.772,0,0,0,1.772,1.772h21.257a1.771,1.771,0,1,1,0,3.543Z" transform="translate(-984.65 -412.14)" fill="#006240"/>
    <path id="Path_115" data-name="Path 115" d="M1037.05,426.311h-10.629a1.771,1.771,0,0,1-1.771-1.771V413.911a1.771,1.771,0,1,1,3.543,0v8.857h8.857a1.771,1.771,0,1,1,0,3.543Z" transform="translate(-1006.936 -412.14)" fill="#006240"/>
    <path id="Path_116" data-name="Path 116" d="M1016.593,459.683h-14.171a1.771,1.771,0,1,1,0-3.543h14.171a1.771,1.771,0,1,1,0,3.543Z" transform="translate(-993.565 -436.654)" fill="#006240"/>
    <path id="Path_117" data-name="Path 117" d="M1016.593,475.683h-14.171a1.771,1.771,0,1,1,0-3.543h14.171a1.771,1.771,0,1,1,0,3.543Z" transform="translate(-993.565 -445.569)" fill="#006240"/>
    <path id="Path_118" data-name="Path 118" d="M1005.964,443.683h-3.543a1.771,1.771,0,1,1,0-3.543h3.543a1.771,1.771,0,0,1,0,3.543Z" transform="translate(-993.565 -427.74)" fill="#006240"/>
    <path id="Path_119" data-name="Path 119" d="M1050.421,481a1.771,1.771,0,0,1-1.771-1.771v-5.314a1.771,1.771,0,1,1,3.543,0v5.314A1.771,1.771,0,0,1,1050.421,481Z" transform="translate(-1020.307 -445.569)" fill="#cff4e4"/>
    <path id="Path_120" data-name="Path 120" d="M1050.421,469a1.771,1.771,0,0,1-1.771-1.771v-5.314a1.771,1.771,0,0,1,3.543,0v5.314A1.771,1.771,0,0,1,1050.421,469Z" transform="translate(-1020.307 -438.883)" fill="#5aeab7"/>
    <path id="Path_121" data-name="Path 121" d="M1050.421,452.78a1.771,1.771,0,0,1-1.771-1.771v-8.667a1.771,1.771,0,1,1,3.543,0v8.667A1.771,1.771,0,0,1,1050.421,452.78Z" transform="translate(-1020.307 -427.98)" fill="#00bc65"/>
  </g>
</svg>
