<svg xmlns="http://www.w3.org/2000/svg" width="20.867" height="20.865" viewBox="0 0 20.867 20.865">
  <g id="Icon_Platform" transform="translate(0.006 0.003)">
    <path id="Path_197" data-name="Path 197" d="M994.718,414.838a.948.948,0,0,1-.424-.1L984.81,410a.948.948,0,0,1,0-1.7l9.484-4.742a.948.948,0,0,1,.849,0l9.484,4.742a.948.948,0,0,1,0,1.7l-9.484,4.742A.96.96,0,0,1,994.718,414.838Zm-7.364-5.69,7.364,3.684,7.35-3.682-7.35-3.682Z" transform="translate(-984.29 -403.46)" fill="#002e9f"/>
    <path id="Path_198" data-name="Path 198" d="M1000.825,470.058a.947.947,0,0,1-.424-.1l-7.561-3.794a.948.948,0,1,1,.849-1.7l7.137,3.568,9.059-4.531a.949.949,0,1,1,.849,1.7l-9.484,4.742a.961.961,0,0,1-.424.111Z" transform="translate(-990.397 -449.196)" fill="#002e9f"/>
    <path id="Path_199" data-name="Path 199" d="M994.72,450.1a.949.949,0,0,1-.424-.1l-9.484-4.742a.949.949,0,0,1,.849-1.7l9.059,4.533,9.059-4.531a.949.949,0,1,1,.849,1.7L995.144,450A.96.96,0,0,1,994.72,450.1Z" transform="translate(-984.292 -433.976)" fill="#002e9f"/>
    <path id="Path_200" data-name="Path 200" d="M995.882,470.655a.948.948,0,0,1-.424-.1l-2.608-1.306a.948.948,0,1,1,.849-1.7l2.608,1.3a.948.948,0,0,1-.424,1.8Z" transform="translate(-990.405 -452.272)" fill="#d3efff"/>
    <path id="Path_201" data-name="Path 201" d="M1007.323,476.4a.976.976,0,0,1-.424-.1l-3.2-1.6a.948.948,0,1,1,.849-1.7l3.2,1.6a.948.948,0,0,1-.424,1.8Z" transform="translate(-998.682 -456.43)" fill="#a5dfff"/>
    <path id="Path_202" data-name="Path 202" d="M1018.736,482.1a.948.948,0,0,1-.424-.1l-2.02-1.01a.949.949,0,1,1,.849-1.7l1.6.8,1.423-.711a.948.948,0,1,1,.849,1.7l-1.838.92a.948.948,0,0,1-.434.1Z" transform="translate(-1008.308 -461.242)" fill="#00b1ff"/>
  </g>
</svg>
