<svg xmlns="http://www.w3.org/2000/svg" width="20" height="20.013" viewBox="0 0 20 20.013">
  <g id="Icon_Cog" transform="translate(-0.06 -0.03)">
    <path id="Path_126" data-name="Path 126" d="M1007.987,446.813a3.337,3.337,0,1,1,3.337-3.337A3.337,3.337,0,0,1,1007.987,446.813Zm0-5a1.668,1.668,0,1,0,1.668,1.668A1.668,1.668,0,0,0,1007.987,441.808Z" transform="translate(-997.929 -433.443)" fill="#6b2219"/>
    <path id="Path_127" data-name="Path 127" d="M997.969,484.725a.834.834,0,0,1-.59-1.422l.05-.05a.834.834,0,1,1,1.18,1.178l-.05.05A.834.834,0,0,1,997.969,484.725Z" transform="translate(-991.983 -467.359)" fill="#6b2219"/>
    <path id="Path_128" data-name="Path 128" d="M982.78,428.183a2.5,2.5,0,0,1-2.5-2.5v-.075a.834.834,0,1,1,1.668,0v.075a.834.834,0,0,0,1.668,0v-.142a2.221,2.221,0,0,1,3.768-1.581l.058.058a.834.834,0,0,0,.59.244h0a.835.835,0,0,0,.59-1.424l-.05-.05a2.223,2.223,0,0,1,1.57-3.777h.079a.834.834,0,0,0,0-1.668h-.142A2.206,2.206,0,0,1,988.052,416a.9.9,0,0,1-.06-.219,2.2,2.2,0,0,1,.507-2.277l.054-.056a.834.834,0,0,0-.588-1.426h0a.834.834,0,0,0-.59.244l-.052.05a2.221,2.221,0,0,1-3.775-1.57v-.079a.834.834,0,1,0-1.668,0v.142a2.213,2.213,0,0,1-1.341,2.027.875.875,0,0,1-.219.06,2.2,2.2,0,0,1-2.277-.507l-.056-.056a.834.834,0,0,0-.59-.244h0a.834.834,0,0,0-.586.24h0a.834.834,0,0,0,0,1.178l.05.05a2.277,2.277,0,0,1-1.554,3.843h-.094a.834.834,0,0,0-.834.834.834.834,0,0,1-1.668,0,2.5,2.5,0,0,1,2.5-2.5h.06a.53.53,0,0,0,.475-.354.456.456,0,0,1,.021-.048.54.54,0,0,0-.108-.6l-.044-.042a2.5,2.5,0,0,1,0-3.533h0a2.488,2.488,0,0,1,1.768-.732h0a2.483,2.483,0,0,1,1.768.732l.052.05a.534.534,0,0,0,.59.1.811.811,0,0,1,.167-.052.546.546,0,0,0,.238-.446v-.14a2.5,2.5,0,0,1,5,0v.075a.553.553,0,0,0,.934.388l.044-.044a2.488,2.488,0,0,1,1.768-.732h0a2.5,2.5,0,0,1,1.771,4.271l-.05.052a.536.536,0,0,0-.1.592.764.764,0,0,1,.052.165.538.538,0,0,0,.446.238h.14a2.5,2.5,0,1,1,0,5h-.075a.553.553,0,0,0-.388.936l.044.042a2.5,2.5,0,0,1-1.771,4.275h0a2.483,2.483,0,0,1-1.768-.732l-.054-.052a.536.536,0,0,0-.59-.1.544.544,0,0,0-.336.5v.138A2.5,2.5,0,0,1,982.78,428.183Z" transform="translate(-972.65 -408.14)" fill="#6b2219"/>
    <path id="Path_129" data-name="Path 129" d="M983.133,464.481a.834.834,0,0,1-.6-1.416.54.54,0,0,0,.109-.6.546.546,0,0,0-.5-.338.834.834,0,0,1,0-1.668h0a2.223,2.223,0,0,1,1.579,3.77A.835.835,0,0,1,983.133,464.481Z" transform="translate(-979.457 -449.526)" fill="#ffecdf"/>
    <path id="Path_130" data-name="Path 130" d="M985.989,476.537a2.483,2.483,0,0,1-1.768-.732h0a2.5,2.5,0,0,1,0-3.533.835.835,0,0,1,1.18,1.18.834.834,0,0,0,0,1.178h0a.834.834,0,0,0,.586.24h0a.834.834,0,0,0,.59-.244.834.834,0,1,1,1.18,1.178,2.485,2.485,0,0,1-1.77.734Z" transform="translate(-981.182 -458.681)" fill="#ffb27c"/>
    <path id="Path_131" data-name="Path 131" d="M1000.7,484.271a.834.834,0,0,1-.834-.813.538.538,0,0,0-.354-.5l-.05-.021a.54.54,0,0,0-.6.108.834.834,0,0,1-1.166-1.193,2.279,2.279,0,0,1,3.837,1.562.834.834,0,0,1-.815.853Z" transform="translate(-992.239 -465.971)" fill="#ff7b00"/>
  </g>
</svg>
