<?xml version="1.0" encoding="utf-8"?>
<!-- Generator: Adobe Illustrator 26.0.3, SVG Export Plug-In . SVG Version: 6.00 Build 0)  -->
<svg version="1.1" id="Layer_1" xmlns="http://www.w3.org/2000/svg" xmlns:xlink="http://www.w3.org/1999/xlink" x="0px" y="0px"
	 viewBox="0 0 398.5 124.1" style="enable-background:new 0 0 398.5 124.1;" xml:space="preserve">
<style type="text/css">
	.st0{fill:#FFFFFF;}
</style>
<g>
	<path class="st0" d="M306.5,124.1c-0.3-0.1-0.5-0.2-0.8-0.4c-1.2-0.6-1.9-1.5-1.9-2.9c0-0.2,0-0.3,0-0.5c0-17.5,0-34.9,0-52.4
		c0-0.3,0-0.7,0.1-1c0.3-1.5,1.5-2.5,3-2.6c1.5,0,3,0,4.5,0c2.1,0,4.2,0,6.3,0c1.6,0,2.8,1.1,3.1,2.5c0.1,0.4,0.1,0.8,0.1,1.3
		c0,13,0,26,0,38.9c0,4.3,0,8.7,0,13c0,1.9-0.6,3.2-2.4,3.8c-0.1,0-0.1,0.1-0.2,0.2H306.5z"/>
	<path class="st0" d="M3.6,124.1c-0.3-0.1-0.5-0.2-0.8-0.3c-1.6-0.7-2.6-1.8-2.8-3.6c0-0.3,0-0.6,0-1c0-16.7,0-33.4,0-50.1
		c0-0.6,0-1.2,0.2-1.7c0.5-1.8,2.1-3,3.9-3.1c0.3,0,0.6,0,0.9,0h52.4c0.3,0,0.6,0,0.9,0c1.4,0.1,2.4,1,2.4,2.4c0,2.5,0,4.9,0,7.4
		c0,1.4-1,2.4-2.4,2.5c-0.3,0-0.6,0-0.9,0c-12.3,0-24.6,0-36.9,0c-0.4,0-0.9,0-1.3,0.1c-1.2,0.3-2,1.3-2.1,2.5c0,0.2,0,0.5,0,0.7
		c0,9.2,0,18.3,0,27.5c0,0.4,0,0.9,0.1,1.3c0.3,1.2,1.4,2,2.6,2c0.3,0,0.6,0,0.9,0h43.6c0.3,0,0.5,0,0.8,0c1.8,0.1,3.1,1.4,3.2,3.1
		c0.1,2.3,0.1,4.7,0,7c0,1.4-0.8,2.3-2,2.9c-0.2,0.1-0.4,0.2-0.6,0.3H3.6z"/>
	<path class="st0" d="M218.2,124.1c-0.2-0.1-0.5-0.2-0.7-0.3c-1.7-0.6-2.8-2.2-2.8-4c0-0.7,0-1.5,0-2.2c0-16.2,0-32.4,0-48.6
		c0-0.6,0.1-1.2,0.2-1.7c0.5-1.7,2.1-2.8,3.8-2.9c0.3,0,0.6,0,1,0h52.4c0.2,0,0.4,0,0.6,0c1.6,0,2.6,1,2.6,2.6c0,0.9,0,1.9,0,2.8
		c0,1.3,0,2.7,0,4c0.1,1.7-1,3-2.9,3c-12.4,0-24.8,0-37.2,0c-0.3,0-0.6,0-1,0c-1.4,0.2-2.4,1.3-2.5,2.7c0,0.2,0,0.5,0,0.7
		c0,9.1,0,18.2,0,27.2c0,0.2,0,0.4,0,0.6c0.1,1.7,1.2,2.8,2.9,2.9c0.8,0,1.5,0,2.3,0c14.1,0,28.1,0,42.2,0c0.5,0,1,0,1.4,0.1
		c1.4,0.3,2.3,1.5,2.4,2.9c0,2.4,0,4.7,0,7.1c0,1.3-0.7,2.2-1.9,2.8c-0.2,0.1-0.5,0.2-0.7,0.4H218.2z"/>
	<path class="st0" d="M378.4,124.1c-0.2-0.1-0.5-0.2-0.7-0.3c-2.1-0.5-3.6-1.7-4.6-3.6c-2.1-3.9-4.3-7.9-6.4-11.8
		c-7.1-13.1-14.2-26.3-21.4-39.4c-0.2-0.3-0.3-0.6-0.5-0.9c-0.8-1.8,0.3-3.7,2.3-3.8c1.3,0,2.6,0,3.9,0c1.9,0,3.7,0,5.6,0
		c2.9,0,5,1.2,6.3,3.8c5,9.2,10,18.4,14.9,27.6c0.2,0.3,0.3,0.7,0.5,1c0.4,0.6,1.1,0.8,1.7,0.7c0.7-0.2,1.2-0.6,1.3-1.4
		c0-0.3,0-0.7,0-1c0-8.9,0-17.9,0-26.8c0-0.3,0-0.7,0-1c0.2-1.5,1.4-2.7,3-2.8c0.8,0,1.6,0,2.5,0c2.7,0,5.5,0,8.2,0
		c1.2,0,2.1,0.5,2.8,1.4c0.2,0.3,0.3,0.7,0.5,1v53.7c0,0-0.1,0.1-0.1,0.1c-0.4,1.7-1.5,2.7-3.1,3.3c-0.2,0.1-0.4,0.2-0.6,0.3H378.4z
		"/>
	<path class="st0" d="M134.5,124.1c-0.2-0.1-0.4-0.2-0.7-0.3c-2.3-0.6-3.9-2.1-4.7-4.4c-2.3-6.3-4.5-12.6-6.8-18.9
		C118.5,90,114.8,79.5,111,69c-0.2-0.5-0.4-1.1-0.4-1.6c-0.1-1.6,1.1-2.9,2.8-3c1.6,0,3.2,0,4.9,0c1.4,0,2.8,0,4.1,0
		c2.4-0.1,4.3,1.4,5.1,3.6c4.1,11.3,8.2,22.5,12.2,33.8c0.1,0.3,0.2,0.5,0.3,0.7c0.3,0.6,0.8,0.9,1.5,0.9c0.7,0,1.2-0.3,1.5-0.9
		c0.1-0.2,0.2-0.5,0.3-0.7c4.1-11.3,8.2-22.5,12.3-33.8c0.7-1.8,1.9-3,3.8-3.5c0.3-0.1,0.6-0.1,0.9-0.1c3.1,0,6.2,0,9.3,0
		c1.8,0,3.1,1.5,2.9,3.3c-0.1,0.4-0.2,0.8-0.3,1.1c-3.9,11-7.9,21.9-11.8,32.9c-2.1,5.9-4.3,11.8-6.4,17.7c-0.8,2.4-2.4,3.9-4.8,4.5
		c-0.2,0.1-0.4,0.2-0.7,0.2H134.5z"/>
	<path class="st0" d="M398.5,50.7c-0.1,0.3-0.3,0.6-0.4,0.8c-0.7,1-1.7,1.5-2.9,1.5c-3.4,0-6.9,0-10.3,0c-0.1,0-0.2,0-0.2,0
		c-0.3-0.1-0.6-0.1-0.9-0.2c-1.2-0.4-2-1.3-2.2-2.6c-0.1-0.4,0-0.7,0-1.1c0-15.1,0-30.1,0-45.2c0-0.4,0-0.8,0.1-1.2
		c0.2-1.5,1.5-2.6,3-2.7c0.7,0,1.3,0,2,0c2.7,0,5.4,0.1,8.1,0c1.8-0.1,3.1,0.6,3.8,2.3V50.7z"/>
	<path class="st0" d="M34.6,0c10,0,19.9,0,29.9,0c0.5,0,1,0,1.5,0.1c1.3,0.4,2.2,1.6,2.3,3c0,2.3,0.1,4.7,0,7c0,1.8-1.4,3.1-3.3,3.1
		c-0.3,0-0.5,0-0.8,0c-14.6,0-29.2,0-43.8,0c-0.5,0-1,0-1.4,0.2c-1.1,0.3-1.8,1.3-1.9,2.5c0,0.2,0,0.3,0,0.5c0,7.1,0,14.1,0,21.2
		c0,0.3,0,0.7,0.1,1c0.3,1.2,1.4,2,2.6,2.1c0.3,0,0.5,0,0.8,0c12.3,0,24.7,0,37,0c0.4,0,0.9,0,1.3,0.1c1.1,0.3,1.8,1.1,1.8,2.2
		c0,2.5,0,5.1,0,7.6c0,1.1-0.8,2-2,2.3c-0.3,0.1-0.6,0.1-0.9,0.1c-17.7,0-35.4,0-53.1,0c-2.3,0-3.9-1.1-4.4-3C0.1,49.6,0,49,0,48.5
		c0-14.7,0-29.4,0-44c0-1.8,0.7-3.2,2.3-4c0.5-0.2,1.1-0.3,1.6-0.4C4.3,0,4.7,0,5,0C14.9,0,24.8,0,34.6,0"/>
	<path class="st0" d="M249.3,0c10,0,19.9,0,29.9,0c0.5,0,0.9,0,1.3,0.1c1.3,0.3,2.4,1.5,2.4,2.8c0,2.5,0.1,4.9,0,7.4
		c0,1.6-1.4,2.8-3,2.9c-0.3,0-0.6,0-0.9,0c-14.6,0-29.2,0-43.8,0c-0.4,0-0.8,0-1.2,0.1c-1.2,0.3-2.1,1.3-2.2,2.6c0,0.2,0,0.3,0,0.5
		c0,7,0,14.1,0,21.1c0,0.4,0,0.7,0.1,1.1c0.3,1.2,1.4,2,2.6,2.1c0.2,0,0.5,0,0.7,0h36.9c0.2,0,0.5,0,0.7,0c1.4,0.1,2.5,1,2.5,2.5
		c0.1,2.5,0,4.9,0,7.4c0,1.4-1,2.3-2.3,2.5c-0.3,0-0.5,0-0.8,0c-17.6,0-35.1,0-52.7,0c-0.6,0-1.2,0-1.8-0.2c-1.8-0.5-3-2.1-3-3.9
		c0-0.1,0-0.2,0-0.3c0-14.7,0-29.4,0-44.1c0-1.3,0.4-2.5,1.4-3.3c0.7-0.7,1.6-1.1,2.6-1.1c0.3,0,0.7,0,1,0C229.5,0,239.4,0,249.3,0"
		/>
	<path class="st0" d="M303.8,27.1c0-7.5,0-14.9,0-22.4c0-2.2,1.4-4,3.5-4.6c0.4-0.1,0.8-0.1,1.3-0.1c5.3,0,10.5,0,15.8,0
		c2.9,0,4.9,1.4,6.2,3.8c6.1,11.4,12.2,22.8,18.3,34.2c1.9,3.6,3.8,7.2,5.7,10.7c0.2,0.4,0.4,0.8,0.5,1.3c0.2,1.3-0.7,2.5-1.9,2.8
		c-0.4,0.1-0.8,0.1-1.2,0.1c-3,0-6,0-8.9,0c-2.9,0-5-1.2-6.3-3.8c-4.1-7.6-8.3-15.1-12.4-22.7c-0.1-0.3-0.3-0.5-0.4-0.8
		c-0.4-0.6-1.1-0.9-1.8-0.6c-0.7,0.2-1.2,0.7-1.2,1.5c0,0.2,0,0.5,0,0.7c0,7.3,0,14.6,0,21.9c0,0.4,0,0.7-0.1,1.1
		c-0.2,1.3-1.3,2.3-2.6,2.6c-0.4,0.1-0.7,0.1-1.1,0.1c-3.2,0-6.4,0-9.6,0c-0.3,0-0.7,0-1-0.1c-1.6-0.3-2.7-1.5-2.7-3.2
		c0-1.3,0-2.5,0-3.8V27.1z"/>
	<path class="st0" d="M97,0c1.4,0,2.8,0,4.1,0c2.4-0.1,4.4,1.5,5.1,3.7c1.7,5.2,3.5,10.3,5.2,15.5c3.3,9.7,6.6,19.5,9.8,29.2
		c0.1,0.3,0.2,0.7,0.3,1c0.4,1.6-0.6,3.3-2.2,3.6c-0.3,0.1-0.7,0.1-1,0.1c-2.8,0-5.5,0-8.3,0c-2.7,0-4.4-1.3-5.3-3.8
		c-5.1-15-10.1-30-15.2-45.1c-0.2-0.7-0.4-1.3-0.2-2C89.8,0.8,91,0,92.2,0C93.8,0,95.4,0,97,0z"/>
	<path class="st0" d="M186,0c1.5,0,3,0.1,4.5,0c2.1-0.1,3.6,2,2.9,4.1c-1.6,4.5-3.1,9-4.6,13.6c-3.6,10.6-7.1,21.1-10.7,31.7
		c-0.8,2.5-2.6,3.7-5.2,3.8c-2.8,0-5.6,0-8.4,0c-0.8,0-1.6-0.2-2.3-0.8c-1-0.9-1.2-2-0.8-3.2c0.7-2.3,1.5-4.5,2.3-6.8
		c4.3-12.9,8.7-25.8,13-38.7c0.6-1.8,1.8-3,3.6-3.5c0.5-0.1,0.9-0.1,1.4-0.1C183.2,0,184.6,0,186,0"/>
</g>
</svg>
