<?xml version="1.0" encoding="UTF-8"?><svg id="a" xmlns="http://www.w3.org/2000/svg" width="43.36" height="38.04" viewBox="0 0 43.36 38.04"><defs><style>.b{fill:#00bc65;}.c{fill:#006240;}</style></defs><g><path class="c" d="M37.2,38.04H1.73c-.96,0-1.73-.77-1.73-1.73V1.73C0,.77,.77,0,1.73,0H41.63c.96,0,1.73,.77,1.73,1.73V31.88c0,.96-.77,1.73-1.73,1.73s-1.73-.77-1.73-1.73V3.46H3.46v31.13H37.2c.96,0,1.73,.77,1.73,1.73s-.77,1.73-1.73,1.73Z"/><path class="c" d="M41.63,12.24H2.62c-.96,0-1.73-.77-1.73-1.73s.77-1.73,1.73-1.73H41.63c.96,0,1.73,.77,1.73,1.73s-.77,1.73-1.73,1.73Z"/><path class="c" d="M9.19,7.85h-2.64c-.96,0-1.73-.77-1.73-1.73s.77-1.73,1.73-1.73h2.64c.96,0,1.73,.77,1.73,1.73s-.77,1.73-1.73,1.73Z"/><path class="c" d="M16.63,7.85h-2.64c-.96,0-1.73-.77-1.73-1.73s.77-1.73,1.73-1.73h2.64c.96,0,1.73,.77,1.73,1.73s-.77,1.73-1.73,1.73Z"/><g><path class="c" d="M32.73,30.02c-.96,0-1.73-.77-1.73-1.73v-3.55c0-.96,.77-1.73,1.73-1.73s1.73,.77,1.73,1.73v3.55c0,.96-.77,1.73-1.73,1.73Z"/><path class="c" d="M22.07,30.02c-.96,0-1.73-.77-1.73-1.73v-7.09c0-.96,.77-1.73,1.73-1.73s1.73,.77,1.73,1.73v7.09c0,.96-.77,1.73-1.73,1.73Z"/><path class="c" d="M16.79,30.02c-.96,0-1.73-.77-1.73-1.73v-4.44c0-.96,.77-1.73,1.73-1.73s1.73,.77,1.73,1.73v4.44c0,.96-.77,1.73-1.73,1.73Z"/><path class="c" d="M11.52,30.02c-.96,0-1.73-.77-1.73-1.73v-9.76c0-.96,.77-1.73,1.73-1.73s1.73,.77,1.73,1.73v9.76c0,.96-.77,1.73-1.73,1.73Z"/><path class="c" d="M27.45,30.02c-.96,0-1.73-.77-1.73-1.73v-9.76c0-.96,.77-1.73,1.73-1.73s1.73,.77,1.73,1.73v9.76c0,.96-.77,1.73-1.73,1.73Z"/></g></g><g><path class="b" d="M37.29,38.04h-5.19c-.96,0-1.73-.77-1.73-1.73s.77-1.73,1.73-1.73h5.19c.96,0,1.73,.77,1.73,1.73s-.77,1.73-1.73,1.73Z"/><path class="b" d="M32.97,38.04h-5.19c-.96,0-1.73-.77-1.73-1.73s.77-1.73,1.73-1.73h5.19c.96,0,1.73,.77,1.73,1.73s-.77,1.73-1.73,1.73Z"/><path class="b" d="M27.78,38.04h-6.73c-.96,0-1.73-.77-1.73-1.73s.77-1.73,1.73-1.73h6.73c.96,0,1.73,.77,1.73,1.73s-.77,1.73-1.73,1.73Z"/></g></svg>