<?xml version="1.0" encoding="UTF-8"?><svg id="a" xmlns="http://www.w3.org/2000/svg" width="42.46" height="41.39" viewBox="0 0 42.46 41.39"><defs><style>.b{fill:#002e9f;}.c{fill:#00b1ff;}</style></defs><path class="b" d="M21.66,41.39H1.88c-1.04,0-1.88-.84-1.88-1.88V1.88C0,.84,.84,0,1.88,0s1.88,.84,1.88,1.88V37.63H21.66c1.04,0,1.88,.84,1.88,1.88s-.85,1.88-1.88,1.88Z"/><g><path class="c" d="M40.58,41.39h-7.53c-1.04,0-1.88-.84-1.88-1.88s.84-1.88,1.88-1.88h7.53c1.04,0,1.88,.84,1.88,1.88s-.85,1.88-1.88,1.88Z"/><path class="c" d="M33.52,41.39h-11.76c-1.04,0-1.88-.84-1.88-1.88s.84-1.88,1.88-1.88h11.76c1.04,0,1.88,.84,1.88,1.88s-.85,1.88-1.88,1.88Z"/><path class="c" d="M22.75,41.39h-7.32c-1.04,0-1.88-.84-1.88-1.88s.84-1.88,1.88-1.88h7.32c1.04,0,1.88,.84,1.88,1.88s-.84,1.88-1.88,1.88Z"/></g><path class="b" d="M8.6,34.76c-.33,0-.67-.09-.98-.27-.89-.54-1.17-1.7-.63-2.59l6.81-11.18c.53-.86,1.64-1.16,2.52-.66l7.62,4.24,9.43-15.56-3.26,.49c-1.03,.16-1.98-.56-2.14-1.58s.55-1.98,1.58-2.14l7.23-1.09c.72-.11,1.44,.21,1.84,.82,.4,.61,.42,1.39,.04,2.02l-12.45,20.55c-.52,.87-1.64,1.16-2.53,.67l-7.62-4.25-5.87,9.63c-.36,.58-.97,.9-1.61,.9Z"/><path class="b" d="M39.32,14.84c-.79,0-1.52-.49-1.78-1.28l-2.25-6.68c-.33-.98,.2-2.05,1.18-2.38,.99-.33,2.05,.2,2.38,1.18l2.25,6.68c.33,.98-.2,2.05-1.18,2.38-.2,.07-.4,.1-.6,.1Z"/></svg>