<?xml version="1.0" encoding="UTF-8"?><svg id="a" xmlns="http://www.w3.org/2000/svg" width="43.83" height="43.77" viewBox="0 0 43.83 43.77"><defs><style>.b{fill:#002e9f;}.c{fill:#00b1ff;}</style></defs><g><path class="b" d="M30.17,26.19H14.52c-1.01,0-1.82-.82-1.82-1.82V15.45c0-1.01,.82-1.82,1.82-1.82h15.65c1.01,0,1.82,.82,1.82,1.82v8.91c0,1.01-.82,1.82-1.82,1.82Zm-13.83-3.65h12.01v-5.26h-12.01v5.26Z"/><path class="b" d="M26.8,32.14h-8.91c-1.01,0-1.82-.82-1.82-1.82s.82-1.82,1.82-1.82h8.91c1.01,0,1.82,.82,1.82,1.82s-.82,1.82-1.82,1.82Z"/><path class="b" d="M22.35,30.1c-1.01,0-1.82-.82-1.82-1.82v-2.9c0-1.01,.82-1.82,1.82-1.82s1.82,.82,1.82,1.82v2.9c0,1.01-.82,1.82-1.82,1.82Z"/></g><path class="b" d="M5.7,41.86c-1.01,0-1.82-.82-1.82-1.82v-5.73c0-1.01,.82-1.82,1.82-1.82h5.73c1.01,0,1.82,.82,1.82,1.82s-.82,1.82-1.82,1.82h-3.91v3.91c0,1.01-.82,1.82-1.82,1.82Z"/><path class="b" d="M21.67,43.77c-5.57,0-10.12-1.66-14.29-5.21-.68-.58-2.62-2.6-3-3-.7-.72-.67-1.88,.05-2.58,.72-.7,1.88-.67,2.58,.05,.83,.87,2.31,2.38,2.74,2.74,3.58,3.05,7.34,4.39,12.17,4.34,4.92-.05,9.48-1.93,12.85-5.3s5.41-8.09,5.4-12.94c0-1.98-.34-3.94-1-5.83-.33-.95,.17-1.99,1.12-2.33,.95-.33,1.99,.17,2.33,1.12,.8,2.28,1.2,4.64,1.21,7.03,0,5.83-2.29,11.34-6.47,15.53-4.05,4.05-9.52,6.31-15.4,6.37-.1,0-.2,0-.29,0Z"/><path class="b" d="M38.18,11.29c-.48,0-.96-.19-1.32-.56-.83-.87-2.31-2.38-2.74-2.74-3.58-3.05-7.33-4.4-12.17-4.34-4.92,.05-9.48,1.93-12.85,5.3-.71,.71-1.86,.71-2.58,0-.71-.71-.71-1.86,0-2.58C10.57,2.32,16.03,.06,21.92,0c5.7-.06,10.33,1.6,14.57,5.21,.68,.58,2.62,2.6,3,3,.7,.72,.67,1.88-.05,2.58-.35,.33-.8,.5-1.26,.5Z"/><path class="b" d="M38.18,11.29h-5.74c-1.01,0-1.82-.82-1.82-1.82s.82-1.82,1.82-1.82h3.91V3.73c0-1.01,.82-1.82,1.82-1.82s1.82,.82,1.82,1.82v5.73c0,1.01-.82,1.82-1.82,1.82Z"/><g><path class="c" d="M2.95,30.22c-.75,0-1.46-.47-1.72-1.22C.24,26.18-.15,23.23,.05,20.23c.07-1,.94-1.77,1.94-1.7,1,.07,1.76,.94,1.7,1.94-.17,2.5,.16,4.97,.98,7.31,.33,.95-.17,1.99-1.12,2.33-.2,.08-.4,.11-.6,.11Z"/><path class="c" d="M1.83,22.71s-.07,0-.1,0c-1.01-.06-1.77-.92-1.72-1.92C.41,13.66,4.25,7.17,10.28,3.41c.86-.53,1.98-.27,2.51,.58s.27,1.98-.58,2.51C7.18,9.64,3.98,15.05,3.65,20.99c-.05,.98-.86,1.72-1.82,1.72Z"/><path class="c" d="M5.31,12.45c-.36,0-.72-.1-1.03-.32-.83-.57-1.04-1.71-.47-2.54,2.02-2.95,4.76-5.38,7.93-7.05,.89-.47,1.99-.12,2.46,.77,.47,.89,.12,1.99-.77,2.46-2.64,1.39-4.93,3.42-6.62,5.88-.36,.52-.93,.79-1.5,.79Z"/></g></svg>