<?xml version="1.0" encoding="UTF-8"?><svg id="a" xmlns="http://www.w3.org/2000/svg" width="43.78" height="43.3" viewBox="0 0 43.78 43.3"><defs><style>.b{fill:#00bc65;}.c{fill:#006240;}</style></defs><path class="c" d="M26.15,18.65c-.48,0-.94-.19-1.29-.54-.42-.43-.6-1.04-.48-1.63L27.45,1.44c.09-.47,.37-.88,.77-1.15s.89-.36,1.36-.26c6.81,1.39,12.36,6.63,14.14,13.35,.13,.48,.05,1-.22,1.43-.27,.42-.7,.72-1.19,.81l-15.82,2.99c-.12,.02-.23,.03-.34,.03Zm4.45-14.6l-2.14,10.53,11.15-2.11c-1.64-3.95-4.96-7.05-9-8.42Z"/><path class="c" d="M24.92,42.01c-.7,0-1.38-.41-1.66-1.11-.38-.92,.05-1.98,.97-2.36,5.55-2.32,9.14-7.71,9.14-13.73,0-.37-.01-.74-.04-1.11l-14.48,2.88c-.59,.12-1.2-.07-1.62-.49s-.61-1.03-.5-1.62l2.83-14.49c-.36-.03-.71-.04-1.06-.04-8.2,0-14.88,6.68-14.88,14.88,0,1.25,.15,2.49,.46,3.68,.25,.97-.34,1.95-1.3,2.19-.97,.25-1.95-.34-2.19-1.3-.38-1.49-.57-3.03-.57-4.57C0,14.61,8.29,6.32,18.48,6.32c1.18,0,2.37,.12,3.55,.34,.47,.09,.88,.37,1.15,.76,.27,.4,.37,.88,.28,1.35l-2.68,13.73,13.72-2.72c.47-.09,.96,0,1.35,.27,.4,.27,.67,.68,.77,1.15,.23,1.19,.36,2.4,.36,3.6,0,7.47-4.46,14.17-11.35,17.06-.23,.09-.47,.14-.7,.14Z"/><g><path class="b" d="M18.37,43.3c-2.15,0-4.27-.37-6.31-1.11-.94-.34-1.42-1.37-1.08-2.31s1.37-1.42,2.31-1.08c1.93,.69,3.94,.99,5.97,.87,1-.06,1.85,.7,1.91,1.7s-.7,1.85-1.7,1.91c-.37,.02-.73,.03-1.09,.03Z"/><path class="b" d="M13.08,42.45c-.2,0-.4-.03-.6-.1-5.69-1.98-10.07-6.61-11.73-12.38-.28-.96,.28-1.96,1.24-2.23s1.96,.28,2.23,1.24c1.33,4.65,4.86,8.37,9.44,9.97,.94,.33,1.44,1.36,1.11,2.3-.26,.74-.96,1.21-1.7,1.21Z"/><path class="b" d="M5.66,37.32c-.52,0-1.03-.22-1.39-.65-1.93-2.33-3.27-5.12-3.88-8.08-.2-.97,.42-1.93,1.4-2.13,.97-.2,1.93,.42,2.13,1.4,.5,2.38,1.58,4.64,3.13,6.51,.64,.77,.53,1.9-.24,2.54-.34,.28-.75,.42-1.15,.42Z"/></g></svg>