<?xml version="1.0" encoding="UTF-8"?><svg id="a" xmlns="http://www.w3.org/2000/svg" width="43.12" height="42.48" viewBox="0 0 43.12 42.48"><defs><style>.b{fill:#6b2219;}.c{fill:#ff7b00;}</style></defs><path class="b" d="M40.88,16.11H2.24c-1.24,0-2.24-1-2.24-2.24v-4.73c0-.98,.79-1.77,1.77-1.77s1.77,.79,1.77,1.77v3.43H39.58V3.54H20.31c-.98,0-1.77-.79-1.77-1.77s.79-1.77,1.77-1.77h20.57c1.23,0,2.24,1,2.24,2.24V13.87c0,1.24-1.01,2.24-2.24,2.24Zm0-12.57h0Z"/><g><path class="b" d="M40.55,42.48h-15.44c-1.24,0-2.25-1.01-2.25-2.25v-11.61c0-1.24,1.01-2.25,2.25-2.25h15.44c1.24,0,2.25,1.01,2.25,2.25v11.61c0,1.24-1.01,2.25-2.25,2.25Zm-14.16-3.54h12.87v-9.03h-12.87v9.03Z"/><path class="b" d="M18.02,42.48H2.57c-1.24,0-2.25-1.01-2.25-2.25v-11.61c0-1.24,1.01-2.25,2.25-2.25h15.44c1.24,0,2.25,1.01,2.25,2.25v11.61c0,1.24-1.01,2.25-2.25,2.25Zm-14.16-3.54h12.87v-9.03H3.86v9.03Z"/></g><path class="b" d="M11.95,29.34c-.98,0-1.77-.79-1.77-1.77v-5.88c0-.98,.79-1.77,1.77-1.77H31.17c.98,0,1.77,.79,1.77,1.77v5.45c0,.98-.79,1.77-1.77,1.77s-1.77-.79-1.77-1.77v-3.68H13.72v4.11c0,.98-.79,1.77-1.77,1.77Z"/><path class="b" d="M21.56,22.86c-.98,0-1.77-.79-1.77-1.77v-6.14c0-.98,.79-1.77,1.77-1.77s1.77,.79,1.77,1.77v6.14c0,.98-.79,1.77-1.77,1.77Z"/><g><path class="c" d="M12.78,3.54H6.51c-.98,0-1.77-.79-1.77-1.77s.79-1.77,1.77-1.77h6.27c.98,0,1.77,.79,1.77,1.77s-.79,1.77-1.77,1.77Z"/><path class="c" d="M7.39,3.54H1.77C.8,3.54,0,2.75,0,1.77S.8,0,1.77,0H7.39c.98,0,1.77,.79,1.77,1.77s-.79,1.77-1.77,1.77Z"/><path class="c" d="M1.77,10.84c-.98,0-1.77-.79-1.77-1.77V1.77C0,.79,.79,0,1.77,0s1.77,.79,1.77,1.77v7.3c0,.98-.79,1.77-1.77,1.77Z"/></g></svg>