<?xml version="1.0" encoding="UTF-8"?><svg id="a" xmlns="http://www.w3.org/2000/svg" width="47.86" height="41.99" viewBox="0 0 47.86 41.99"><defs><style>.b{fill:#00bc65;}.c{fill:#006240;}</style></defs><path class="c" d="M30.51,9.94c-.45,0-.9-.17-1.24-.51l-5.21-5.21-5.21,5.21c-.68,.68-1.79,.68-2.48,0-.68-.68-.68-1.79,0-2.48L22.81,.51c.68-.68,1.79-.68,2.48,0l6.44,6.44c.68,.68,.68,1.79,0,2.48-.32,.34-.77,.51-1.22,.51Z"/><g><g><path class="c" d="M23.78,41.99c-.81,0-1.54-.57-1.71-1.4-2.18-10.66-9.23-19.19-18.41-22.27-.91-.31-1.41-1.3-1.1-2.21,.31-.92,1.3-1.41,2.21-1.1,10.36,3.47,18.3,13.01,20.73,24.89,.19,.94-.42,1.87-1.36,2.06-.13,.02-.25,.03-.36,.03Z"/><path class="c" d="M1.75,25.81c-.97,0-1.75-.78-1.75-1.75V13.38c0-.97,.78-1.75,1.75-1.75H11.68c.97,0,1.75,.78,1.75,1.75s-.78,1.75-1.75,1.75H3.5v8.93c0,.96-.78,1.75-1.75,1.75Z"/></g><g><path class="c" d="M23.78,41.99c-.12,0-.23-.01-.35-.03-.94-.19-1.56-1.12-1.36-2.06,2.43-11.88,10.37-21.41,20.73-24.89,.92-.31,1.91,.19,2.21,1.1,.31,.91-.19,1.91-1.1,2.21-9.18,3.07-16.23,11.61-18.41,22.27-.17,.83-.91,1.4-1.72,1.4Z"/><path class="c" d="M46.11,25.06c-.97,0-1.75-.78-1.75-1.75V15.13h-8.93c-.97,0-1.75-.78-1.75-1.75s.78-1.75,1.75-1.75h10.68c.97,0,1.75,.78,1.75,1.75v9.93c0,.97-.78,1.75-1.75,1.75Z"/></g></g><g><path class="b" d="M24.07,27.44c-.97,0-1.75-.78-1.75-1.75v-5.7c0-.97,.78-1.75,1.75-1.75s1.75,.78,1.75,1.75v5.7c0,.96-.78,1.75-1.75,1.75Z"/><path class="b" d="M24.07,21.26c-.97,0-1.75-.78-1.75-1.75v-5.7c0-.97,.78-1.75,1.75-1.75s1.75,.78,1.75,1.75v5.7c0,.96-.78,1.75-1.75,1.75Z"/><path class="b" d="M24.07,15.08c-.97,0-1.75-.78-1.75-1.75V5.93c0-.97,.78-1.75,1.75-1.75s1.75,.78,1.75,1.75v7.4c0,.97-.78,1.75-1.75,1.75Z"/></g></svg>