<?xml version="1.0" encoding="UTF-8"?><svg id="a" xmlns="http://www.w3.org/2000/svg" width="33.2" height="44.98" viewBox="0 0 33.2 44.98"><defs><style>.b{fill:#6b2219;}.c{fill:#ff7b00;}</style></defs><g><path class="b" d="M30.39,44.98H2.81c-1.55,0-2.81-1.26-2.81-2.81V21.46c0-1.55,1.26-2.81,2.81-2.81H30.39c1.55,0,2.81,1.26,2.81,2.81v20.7c0,1.55-1.26,2.81-2.81,2.81Zm-26.64-3.75H29.45V22.4H3.75v18.83Z"/><path class="b" d="M6.78,22.4c-1.04,0-1.87-.84-1.87-1.87V11.69C4.91,5.24,10.15,0,16.6,0s11.69,5.24,11.69,11.69c0,1.04-.84,1.87-1.87,1.87s-1.87-.84-1.87-1.87c0-4.38-3.56-7.94-7.94-7.94s-7.94,3.56-7.94,7.94v8.84c0,1.04-.84,1.87-1.87,1.87Z"/></g><path class="c" d="M26.42,13.56c-1.04,0-1.87-.84-1.87-1.87,0-2.12-.82-4.12-2.32-5.62-.73-.73-.73-1.92,0-2.65,.73-.73,1.92-.73,2.65,0,2.21,2.21,3.42,5.14,3.42,8.26,0,1.04-.84,1.88-1.88,1.88Z"/><path class="c" d="M23.54,6.63c-.48,0-.96-.18-1.33-.55-1.5-1.5-3.5-2.32-5.62-2.32-1.04,0-1.87-.84-1.87-1.87S15.56,0,16.6,0C19.73,0,22.66,1.22,24.86,3.43c.73,.73,.73,1.92,0,2.65-.37,.36-.84,.54-1.32,.54Z"/><path class="c" d="M10.22,6.1c-.53,0-1.05-.22-1.42-.66-.67-.79-.58-1.97,.21-2.64C11.11,1,13.81,0,16.6,0c1.04,0,1.87,.84,1.87,1.87s-.84,1.87-1.87,1.87c-1.89,0-3.72,.67-5.16,1.91-.35,.3-.79,.45-1.22,.45Z"/></svg>