<?xml version="1.0" encoding="UTF-8"?><svg id="a" xmlns="http://www.w3.org/2000/svg" width="44.85" height="44.84" viewBox="0 0 44.85 44.84"><defs><style>.b{fill:#6b2219;}.c{fill:#ff7b00;}</style></defs><path class="b" d="M22.43,29.89c-4.12,0-7.47-3.35-7.47-7.47s3.35-7.47,7.47-7.47,7.47,3.35,7.47,7.47-3.35,7.47-7.47,7.47Zm0-11.21c-2.06,0-3.74,1.68-3.74,3.74s1.68,3.74,3.74,3.74,3.74-1.68,3.74-3.74-1.68-3.74-3.74-3.74Z"/><path class="b" d="M13.31,38.84c-.48,0-.96-.18-1.32-.55-.73-.73-.73-1.91,0-2.64l.11-.11c.73-.73,1.91-.73,2.64,0,.73,.73,.73,1.91,0,2.64l-.11,.11c-.36,.36-.85,.55-1.32,.55Z"/><path class="b" d="M22.58,44.84c-3.09,0-5.61-2.51-5.61-5.61v-.17c0-1.03,.84-1.87,1.87-1.87s1.87,.84,1.87,1.87v.17c0,1.03,.84,1.87,1.87,1.87s1.87-.84,1.87-1.87v-.32c0-1.98,1.19-3.76,3-4.54,1.85-.81,3.99-.43,5.44,1l.13,.13c.35,.35,.82,.55,1.32,.55h0c.5,0,.97-.2,1.32-.55,.35-.35,.55-.83,.55-1.33s-.2-.97-.55-1.32l-.11-.11c-1.44-1.47-1.83-3.62-1.01-5.48,.77-1.8,2.55-2.98,4.52-2.98h.18c1.03,0,1.87-.84,1.87-1.87s-.84-1.87-1.87-1.87h-.32c-1.98,0-3.76-1.19-4.54-3-.07-.16-.11-.32-.14-.49-.63-1.77-.2-3.74,1.14-5.1l.11-.11s0,0,.01-.02c.35-.35,.55-.82,.55-1.32s-.2-.97-.55-1.32c-.35-.35-.83-.55-1.32-.55h0c-.5,0-.97,.2-1.32,.55l-.11,.11c-1.47,1.44-3.62,1.83-5.48,1.01-1.8-.77-2.98-2.55-2.98-4.53v-.16c0-1.03-.84-1.87-1.87-1.87s-1.87,.84-1.87,1.87v.32c0,1.98-1.19,3.76-3,4.54-.16,.07-.32,.11-.49,.14-1.77,.63-3.74,.2-5.1-1.14l-.12-.12h-.01c-.35-.36-.82-.56-1.32-.56h0c-.5,0-.97,.2-1.32,.55-.35,.35-.55,.83-.55,1.33s.2,.97,.55,1.32l.11,.11c1.42,1.46,1.82,3.57,1.03,5.42-.72,1.89-2.48,3.14-4.51,3.19h-.21c-1.03,0-1.87,.84-1.87,1.87s-.84,1.87-1.87,1.87-1.87-.84-1.87-1.87c0-3.09,2.51-5.61,5.61-5.61h.17c.46,0,.9-.32,1.07-.79,.01-.04,.03-.07,.04-.11,.2-.46,.11-.98-.24-1.34l-.1-.1c-1.06-1.06-1.64-2.47-1.64-3.96s.58-2.91,1.64-3.97c1.06-1.06,2.47-1.64,3.97-1.65h0c1.49,0,2.9,.58,3.96,1.64h0l.11,.12c.34,.34,.87,.43,1.33,.23,.12-.05,.24-.09,.37-.12,.33-.22,.53-.59,.53-1v-.31c0-3.09,2.51-5.61,5.61-5.61s5.61,2.51,5.61,5.61v.17c0,.48,.29,.92,.74,1.1,.48,.21,1,.11,1.36-.23l.09-.09c1.06-1.06,2.47-1.64,3.97-1.64h0c1.49,0,2.9,.58,3.96,1.64,1.06,1.06,1.64,2.47,1.65,3.97,0,1.49-.57,2.89-1.63,3.95l-.02,.02-.11,.11c-.33,.34-.43,.87-.22,1.32,.05,.12,.09,.24,.12,.37,.22,.33,.59,.53,1,.53h.31c3.09,0,5.61,2.51,5.61,5.61s-2.51,5.61-5.61,5.61h-.17c-.48,0-.92,.29-1.1,.74-.21,.48-.11,1,.23,1.36l.09,.09c1.06,1.06,1.64,2.47,1.64,3.97s-.58,2.91-1.64,3.97c-1.06,1.06-2.47,1.64-3.97,1.65h0c-1.49,0-2.9-.58-3.96-1.64l-.12-.12c-.34-.33-.86-.43-1.33-.23-.46,.2-.75,.64-.75,1.12v.31c0,3.09-2.51,5.61-5.6,5.61Z"/><path class="c" d="M8.14,33.44c-.47,0-.94-.18-1.31-.53-.74-.72-.75-1.91-.03-2.64,.35-.35,.44-.88,.24-1.34-.2-.46-.64-.75-1.12-.75-1.03,0-1.86-.85-1.86-1.87,0-1.03,.84-1.86,1.87-1.86h0c1.98,0,3.76,1.19,4.53,3,.81,1.85,.43,3.99-1,5.44-.36,.38-.85,.57-1.33,.57Z"/><path class="c" d="M10.67,39.94c-1.49,0-2.9-.58-3.96-1.64-1.06-1.06-1.64-2.47-1.65-3.97,0-1.5,.58-2.91,1.64-3.97,.73-.73,1.91-.73,2.64,0,.73,.73,.73,1.91,0,2.64-.35,.35-.55,.82-.55,1.32s.2,.97,.55,1.32c.35,.35,.83,.55,1.32,.55h0c.5,0,.97-.2,1.32-.55,.73-.73,1.91-.73,2.64,0,.73,.73,.73,1.91,0,2.64-1.06,1.05-2.46,1.63-3.96,1.63h0Z"/><path class="c" d="M18.84,40.94c-1.01,0-1.85-.81-1.87-1.83,0-.5-.32-.94-.79-1.11-.04-.01-.07-.03-.11-.04-.46-.2-.99-.11-1.34,.24-.74,.72-1.92,.71-2.64-.03-.72-.74-.71-1.92,.03-2.64,1.44-1.41,3.56-1.8,5.41-1.01,1.89,.72,3.14,2.48,3.19,4.51,.02,1.03-.79,1.89-1.83,1.91h-.04Z"/></svg>