<?xml version="1.0" encoding="UTF-8"?><svg id="a" xmlns="http://www.w3.org/2000/svg" width="41.15" height="35.55" viewBox="0 0 41.15 35.55"><defs><style>.b{fill:#fff;}.c{fill:#c8acff;}.d{fill:#210c46;}.e{fill:#7633ff;}</style></defs><g><path class="e" d="M21.69,11.66V6.7c-.81-.39-1.67-.71-2.55-.95-1.32-.36-2.71-.55-4.15-.53,0,0,0,.01,0,.02-.12,0-.23,.01-.35,.02-2,.15-4.38,.7-6.06,1.55h0C3.51,9.39,0,14.77,0,20.69v12.84c0,1.11,.9,2.01,2.01,2.01H14.86c7.53,0,14.18-5.68,15.3-12.97,.01-.08,.02-.15,.03-.23,.08-.53,.12-1.06,.13-1.61,.05-2.06-.32-4.03-1.02-5.83h-4.37c-1.79,0-3.25-1.45-3.25-3.25Zm-6.71-6.29s-.02-.01-.04-.01c.01,0,.02,0,.04,.01h0Z"/><path class="c" d="M37.9,0h-12.95c-1.79,0-3.25,1.46-3.25,3.25v3.44c.18,.08,.35,.16,.52,.25,.06,.03,.12,.06,.18,.09,2.14,1.16,3.96,2.82,5.32,4.83,.64,.94,1.18,1.96,1.6,3.04h8.58c1.8,0,3.25-1.46,3.25-3.25v-3.28h0V3.25c0-1.8-1.46-3.25-3.25-3.25Z"/><path class="d" d="M22.39,7.05c-.06-.03-.12-.06-.18-.09-.17-.09-.34-.17-.52-.25v4.96c0,1.79,1.46,3.25,3.25,3.25h4.37c-.42-1.08-.96-2.1-1.6-3.04-1.36-2.01-3.19-3.67-5.32-4.83Z"/></g><g><g><circle class="b" cx="8.92" cy="21.43" r="2.21"/><path class="b" d="M6.74,20.91c.29-1.2,1.5-1.94,2.7-1.66s1.94,1.5,1.66,2.7-1.5,1.94-2.7,1.66c-1.2-.29-1.94-1.5-1.66-2.7Zm4.31,1.03c.28-1.18-.45-2.36-1.62-2.64s-2.36,.45-2.64,1.62,.45,2.36,1.62,2.64,2.36-.45,2.64-1.62Z"/></g><g><circle class="b" cx="15.16" cy="21.43" r="2.21"/><path class="b" d="M12.99,20.91c.29-1.2,1.5-1.94,2.7-1.66s1.94,1.5,1.66,2.7-1.5,1.94-2.7,1.66c-1.2-.29-1.94-1.5-1.66-2.7Zm4.31,1.03c.28-1.18-.45-2.36-1.62-2.64-1.18-.28-2.36,.45-2.64,1.62s.45,2.36,1.62,2.64,2.36-.45,2.64-1.62Z"/></g><g><circle class="b" cx="21.4" cy="21.43" r="2.21"/><path class="b" d="M19.23,20.91c.29-1.2,1.5-1.94,2.7-1.66s1.94,1.5,1.66,2.7-1.5,1.94-2.7,1.66c-1.2-.29-1.94-1.5-1.66-2.7Zm4.31,1.03c.28-1.18-.45-2.36-1.62-2.64-1.18-.28-2.36,.45-2.64,1.62s.45,2.36,1.62,2.64,2.36-.45,2.64-1.62Z"/></g></g><path class="c" d="M39.79,17.28h-5.4c-.75,0-1.36,.61-1.36,1.36v3.51c0,.75,.61,1.36,1.36,1.36h5.4c.75,0,1.36-.61,1.36-1.36v-1.37h0v-2.14c0-.75-.6-1.36-1.36-1.36Z"/></svg>