<?xml version="1.0" encoding="UTF-8"?><svg id="a" xmlns="http://www.w3.org/2000/svg" width="83" height="83" viewBox="0 0 83 83"><defs><style>.b{fill:none;}.c{fill:#002e9f;}.d{fill:#00b1ff;}.e{fill:#b1ddfc;}.f{fill:#d8eeff;}</style></defs><path class="c" d="M66.4,83H16.6c-9.13,0-16.6-7.47-16.6-16.6V16.6C0,7.47,7.47,0,16.6,0h49.8c9.13,0,16.6,7.47,16.6,16.6v49.8c0,9.13-7.47,16.6-16.6,16.6Z"/><g><g><path class="b" d="M41.39,36.8c.72,0,1.27,.55,1.27,1.27v2.16c0,.72-.55,1.27-1.27,1.27h-6.7c-.5,1.38-.77,2.82-.77,4.37h0c0,7.25,5.87,13.17,13.17,13.17s13.17-5.87,13.17-13.17-5.87-13.17-13.17-13.17c-1.16,0-2.27,.17-3.32,.44-2.38,.61-4.54,1.88-6.14,3.65h3.76Z"/><path class="d" d="M69.39,31.65l.72-.72c.94-.94,.94-2.49,0-3.38l-2.77-2.77c-.94-.94-2.49-.94-3.38,0l-.72,.72c-.83,.83-.94,2.21-.22,3.15l-.72,.72c-3.32-3.04-7.64-5.15-12.34-5.7v-1.72h1.05c1.55,0,2.82-1.27,2.82-2.82v-1.66c0-1.55-1.27-2.82-2.82-2.82h-7.75c-1.55,0-2.82,1.27-2.82,2.82v1.66c0,1.55,1.27,2.82,2.82,2.82h.94v1.72c-1.49,.22-2.93,.55-4.37,1-5.92,2.05-10.73,6.47-13.22,12.12h11.01c1.66-1.72,3.76-2.99,6.14-3.65,1.05-.28,2.16-.44,3.32-.44,7.25,0,13.17,5.87,13.17,13.17s-5.87,13.17-13.17,13.17-13.17-5.87-13.17-13.17h0c0-1.55,.28-2.99,.77-4.37h-9.63c-.17,.94-.33,1.94-.39,2.93h3.71c.61,0,1.16,.5,1.27,1.11v2.32c0,.72-.55,1.27-1.27,1.27h-3.49c1.55,10.85,10.9,19.2,22.19,19.2,12.39,0,22.41-10.07,22.41-22.41,0-4.87-1.55-9.41-4.21-13.11l.94-.94c.94,.72,2.32,.66,3.15-.22Z"/><path class="e" d="M19.59,36.8c-.72,0-1.27,.55-1.27,1.27v2.16c0,.72,.55,1.27,1.27,1.27h5.53c.33-1.66,.83-3.21,1.49-4.7h-7.03Z"/><path class="e" d="M42.66,40.28v-2.16c0-.72-.55-1.27-1.27-1.27h-3.76c-1.27,1.33-2.27,2.93-2.93,4.7h6.7c.72-.06,1.27-.61,1.27-1.27Z"/><path class="f" d="M37.63,36.8h-11.01c-.66,1.49-1.16,3.04-1.49,4.7h9.63c.61-1.77,1.6-3.38,2.88-4.7Z"/><path class="e" d="M24.73,45.1c0-.22,0-.44,.06-.66H13.5c-.72,0-1.27,.55-1.27,1.27v2.16c0,.72,.55,1.27,1.27,1.27h11.45c-.17-1.05-.22-2.16-.22-3.26-.06-.22,0-.5,0-.77Z"/><path class="f" d="M29.71,47.86v-2.32l-.77-.06-4.21-.39v.83c0,1.11,.11,2.16,.22,3.26h3.49c.72-.06,1.27-.61,1.27-1.33Z"/><path class="f" d="M28.88,45.48l.77,.06c-.11-.61-.61-1.11-1.27-1.11h-3.71c0,.22-.06,.44-.06,.66l4.26,.39Z"/></g><path class="e" d="M22.8,57.21h-7.03c-.72,0-1.27-.55-1.27-1.27v-2.16c0-.72,.55-1.27,1.27-1.27h7.03c.72,0,1.27,.55,1.27,1.27v2.16c0,.72-.55,1.27-1.27,1.27Z"/></g></svg>