<?xml version="1.0" encoding="UTF-8"?><svg id="a" xmlns="http://www.w3.org/2000/svg" width="28.88" height="42.45" viewBox="0 0 28.88 42.45"><defs><style>.b{fill:#00bc65;}.c{fill:#006240;}.d{fill:#a1ecc8;}</style></defs><path class="b" d="M13.01,28.95c-4.15,0-7.86,1.87-10.34,4.82-1.12,1.33-1.98,2.87-2.52,4.56-.6,1.88,.64,3.81,2.52,4.08,.15,.02,.3,.03,.46,.03H22.89c2.14,0,3.63-2.08,2.98-4.12-1.74-5.44-6.84-9.38-12.86-9.38Z"/><g><path class="b" d="M13.01,14.08V5.8C7.45,5.8,2.94,10.3,2.94,15.87s4.51,10.07,10.07,10.07,10.07-4.51,10.07-10.07H14.8c-.99,0-1.79-.8-1.79-1.79Z"/><path class="d" d="M28.87,13.87C27.97,6.64,22.24,.91,15.01,.01c-1.06-.13-2,.71-2,1.78V3.89h0v1.91c5.56,0,10.07,4.51,10.07,10.07h4.01c1.07,0,1.91-.93,1.78-1.99Z"/><path class="c" d="M13.01,5.8V14.08c0,.99,.8,1.79,1.79,1.79h8.28c0-5.56-4.51-10.07-10.07-10.07Z"/></g></svg>