<?xml version="1.0" encoding="UTF-8"?><svg id="a" xmlns="http://www.w3.org/2000/svg" width="45" height="39.63" viewBox="0 0 45 39.63"><defs><style>.b{fill:#6b2219;}.c{fill:#ffc299;}.d{fill:#ff7b00;}</style></defs><path class="c" d="M14.07,5.99c1.63-1.42,3.7-2.2,5.88-2.2,.4,0,.8,.03,1.19,.08,.03,0,.05,0,.08,0,.16,0,.32-.07,.44-.18l1.12-1.12c.13-.13,.2-.32,.18-.51s-.13-.36-.28-.46c-1.64-1.05-3.54-1.6-5.5-1.6-2.63,0-5.11,.99-7.02,2.79-.03,.02-.06,.05-.09,.07l-3.55,3.55c-.17,.17-.23,.42-.14,.65,.25,.71,.07,1.51-.46,2.04-.37,.37-.86,.57-1.38,.57-.23,0-.45-.04-.66-.11-.07-.02-.14-.04-.21-.04-.16,0-.32,.06-.44,.18L.18,12.76c-.24,.24-.24,.64,0,.88l5.33,5.33c.12,.12,.27,.18,.44,.18s.32-.07,.44-.18l3.05-3.05c.17-.17,.23-.42,.14-.65-.25-.71-.08-1.51,.46-2.04,.37-.37,.86-.57,1.38-.57,.23,0,.45,.04,.66,.11,.28,.1,.52,.25,.72,.45l6.38,6.38,4.26-4.26L14.07,5.99Z"/><path class="c" d="M30.62,20.59l-6.21,6.21,11.55,11.55c.83,.83,1.93,1.28,3.1,1.28s2.27-.46,3.1-1.28c1.71-1.71,1.71-4.49,0-6.2l-11.55-11.55Z"/><path class="d" d="M25.52,17.31c1.17,0,2.27,.46,3.1,1.28l2,2,4.88-4.88c.52,.1,1.05,.16,1.58,.16,2.12,0,4.11-.82,5.61-2.32,1.99-1.99,2.78-4.93,2.05-7.67-.06-.21-.22-.38-.44-.44-.05-.01-.11-.02-.16-.02-.16,0-.32,.06-.44,.18l-2.94,2.94c-.57,.57-1.34,.89-2.15,.89s-1.57-.32-2.15-.89c-1.19-1.19-1.19-3.11,0-4.3l2.94-2.94c.16-.16,.22-.39,.16-.6-.06-.21-.22-.38-.44-.44C38.44,.1,37.75,0,37.05,0c-2.12,0-4.11,.83-5.61,2.32-1.9,1.9-2.69,4.56-2.16,7.19l-5.85,5.85,1.96,1.96s.08,0,.12,0Z"/><path class="d" d="M22.42,24.81c-.86-.86-1.31-2.03-1.28-3.24l-1.95-1.95-12.53,12.53c-1.71,1.71-1.71,4.5,0,6.21,.83,.83,1.93,1.28,3.1,1.28s2.27-.46,3.1-1.28l11.55-11.55-2-2Zm-11.36,11.72c-.34,.34-.8,.53-1.28,.53s-.94-.19-1.28-.53-.53-.8-.53-1.28,.19-.94,.53-1.28c.34-.34,.8-.53,1.29-.53s.94,.19,1.28,.53c.34,.34,.53,.8,.53,1.29,0,.48-.19,.94-.54,1.28Z"/><path class="b" d="M28.63,18.6c-.83-.83-1.93-1.28-3.1-1.28-.04,0-.08,0-.12,0l-1.96-1.96-4.26,4.26,1.95,1.95c-.04,1.21,.42,2.38,1.28,3.24l2,2,6.21-6.21-1.99-2Z"/></svg>