<?xml version="1.0" encoding="UTF-8"?><svg id="a" xmlns="http://www.w3.org/2000/svg" width="42.5" height="36" viewBox="0 0 42.5 36"><defs><style>.b{fill:#6b2219;}.c{fill:#fff;}.d{fill:#ffc299;}.e{fill:#ff7b00;}</style></defs><g><path class="d" d="M9.52,16.3h-1.89c-.9,0-1.64-.66-1.64-1.46v-1.69c0-.8,.73-1.46,1.64-1.46h1.89c.9,0,1.64,.66,1.64,1.46v1.69c0,.81-.74,1.46-1.64,1.46Zm-1.89-3.5c-.22,0-.4,.16-.4,.36v1.69c0,.19,.18,.36,.4,.36h1.89c.22,0,.4-.16,.4-.36v-1.69c0-.19-.18-.36-.4-.36h-1.89Z"/><path class="d" d="M7.49,17.88h2.16c.83,0,1.5,.67,1.5,1.5v1.61c0,.83-.67,1.5-1.5,1.5h-2.16c-.83,0-1.5-.67-1.5-1.5v-1.61c0-.83,.68-1.5,1.5-1.5Z"/><path class="d" d="M7.49,24.08h2.16c.83,0,1.5,.67,1.5,1.5v1.61c0,.83-.67,1.5-1.5,1.5h-2.16c-.83,0-1.5-.67-1.5-1.5v-1.61c0-.83,.68-1.5,1.5-1.5Z"/></g><g><path class="d" d="M17.62,22.4v5.92c0,.85-.77,1.54-1.72,1.54H5.78c-.95,0-1.72-.69-1.72-1.54V12.05c0-.85,.77-1.54,1.72-1.54H15.12c.58-2.32,1.74-4.41,3.33-6.1-.18-.03-.37-.04-.56-.04H3.79c-2.09,0-3.79,1.51-3.79,3.38v24.87c0,1.87,1.69,3.38,3.79,3.38h14.11c2.09,0,3.79-1.51,3.79-3.38v-6.68c-1.58-.91-2.96-2.11-4.06-3.54Z"/><path class="e" d="M28.6,0c-4.01,0-7.62,1.7-10.15,4.41,1.83,.24,3.23,1.64,3.23,3.34V25.95c2.04,1.17,4.4,1.85,6.92,1.85,7.68,0,13.9-6.22,13.9-13.9,0-7.68-6.22-13.9-13.9-13.9Z"/><path class="e" d="M17.62,22.4V12.05c0-.85-.77-1.53-1.72-1.53h-.78c-.27,1.08-.42,2.22-.42,3.38,0,3.2,1.09,6.15,2.91,8.51Z"/><path class="b" d="M18.45,4.41c-1.58,1.69-2.75,3.78-3.33,6.1h.78c.95,0,1.72,.69,1.72,1.53v10.35c1.11,1.43,2.49,2.64,4.06,3.54V7.75c0-1.7-1.4-3.1-3.23-3.34Z"/></g><path class="c" d="M29.45,19.64v1.91h-1.84v-1.78c-1.26-.06-2.48-.39-3.19-.81l.56-2.2c.79,.43,1.9,.83,3.11,.83,1.07,0,1.8-.41,1.8-1.16s-.6-1.16-1.99-1.63c-2.01-.67-3.38-1.61-3.38-3.44,0-1.65,1.16-2.95,3.17-3.34v-1.78h1.84v1.65c1.26,.05,2.1,.32,2.72,.62l-.54,2.12c-.49-.21-1.35-.64-2.7-.64-1.22,0-1.61,.52-1.61,1.05,0,.62,.66,1.01,2.25,1.61,2.23,.79,3.14,1.82,3.14,3.51,0,1.68-1.18,3.1-3.34,3.48Z"/></svg>