<?xml version="1.0" encoding="UTF-8"?><svg id="a" xmlns="http://www.w3.org/2000/svg" width="190" height="106.49" viewBox="0 0 190 106.49"><defs><style>.b{fill:none;}.c{fill:#fff;}.d{fill:#c8acff;}.e{fill:#210c46;}.f{fill:#7633ff;}</style></defs><rect class="b" x="129.33" y="81.8" width="20.86" height="7.49"/><rect class="b" x="98.98" y="81.8" width="20.86" height="7.49"/><rect class="b" x="67.52" y="81.8" width="20.86" height="7.49"/><path class="b" d="M146.97,69.61h20.62c2.17,0,3.93-1.76,3.93-3.93v-9.22c0-2.17-1.76-3.93-3.93-3.93h-20.62c-2.17,0-3.93,1.76-3.93,3.93v9.22c0,2.17,1.76,3.93,3.93,3.93Z"/><rect class="b" x="159.76" y="81.8" width="20.86" height="7.49"/><path class="d" d="M177.7,21.41H77.63c3.27,5.93,5.13,12.73,5.13,19.97,0,16.75-9.96,31.17-24.27,37.68v15.13c0,6.78,5.51,12.3,12.3,12.3h106.91c6.78,0,12.3-5.51,12.3-12.3V33.7c0-6.77-5.52-12.29-12.3-12.29Zm-34.67,35.05c0-2.17,1.76-3.93,3.93-3.93h20.62c2.17,0,3.93,1.76,3.93,3.93v9.22c0,2.17-1.76,3.93-3.93,3.93h-20.62c-2.17,0-3.93-1.76-3.93-3.93v-9.22Zm-54.66,32.83h-20.86v-7.49h20.86v7.49Zm31.46,0h-20.86v-7.49h20.86v7.49Zm30.36,0h-20.86v-7.49h20.86v7.49h0Zm30.43,0h-20.86v-7.49h20.86v7.49Z"/><path class="f" d="M70.79,21.41h6.84C70.58,8.64,57,0,41.38,0,18.52,0,0,18.53,0,41.38s18.53,41.38,41.38,41.38c6.1,0,11.89-1.33,17.11-3.7V33.7c0-6.77,5.52-12.29,12.3-12.29Zm-26.71,38.26v6.09h-5.86v-5.67c-4.01-.18-7.89-1.25-10.16-2.57l1.79-6.99c2.51,1.37,6.03,2.63,9.91,2.63,3.41,0,5.73-1.31,5.73-3.7s-1.91-3.7-6.33-5.19c-6.39-2.15-10.76-5.13-10.76-10.93,0-5.25,3.7-9.38,10.1-10.63v-5.67h5.86v5.26c4,.18,6.69,1.02,8.66,1.97l-1.73,6.75c-1.56-.66-4.3-2.03-8.6-2.03-3.88,0-5.13,1.67-5.13,3.34,0,1.97,2.1,3.22,7.17,5.13,7.11,2.51,9.97,5.8,9.97,11.17s-3.76,9.86-10.63,11.05Z"/><path class="e" d="M82.78,41.39c0-7.25-1.87-14.06-5.13-19.97h-6.84c-6.78,0-12.3,5.51-12.3,12.3v45.36c14.31-6.52,24.27-20.94,24.27-37.69Z"/><path class="c" d="M44.73,37.44c-5.08-1.91-7.17-3.16-7.17-5.13,0-1.67,1.25-3.34,5.13-3.34,4.3,0,7.05,1.37,8.6,2.03l1.73-6.75c-1.97-.95-4.66-1.79-8.66-1.97v-5.26h-5.86v5.67c-6.39,1.25-10.1,5.38-10.1,10.63,0,5.8,4.36,8.78,10.76,10.93,4.42,1.49,6.33,2.93,6.33,5.19,0,2.39-2.32,3.7-5.73,3.7-3.88,0-7.41-1.25-9.91-2.63l-1.79,6.99c2.27,1.31,6.15,2.39,10.16,2.57v5.67h5.86v-6.09c6.87-1.2,10.63-5.73,10.63-11.05s-2.86-8.66-9.97-11.17Z"/></svg>