<?xml version="1.0" encoding="UTF-8"?><svg id="a" xmlns="http://www.w3.org/2000/svg" width="42.56" height="40.89" viewBox="0 0 42.56 40.89"><defs><style>.b{fill:#fff;}.c{fill:#c8acff;}.d{fill:#210c46;}.e{fill:#7633ff;}</style></defs><g><path class="c" d="M22.49,12.89c-.23-.85-.35-1.75-.35-2.68,0-.53,.04-1.04,.12-1.55-.43-.15-.85-.29-1.29-.41-1.45-.4-2.97-.6-4.55-.58,0,0,0,.01,0,.02-.13,0-.25,.01-.39,.03-2.19,.17-4.8,.76-6.63,1.7h0C3.85,12.23,0,18.13,0,24.62v14.07c0,1.22,.99,2.21,2.21,2.21h3.47s.03,0,.05,0h10.55c8.25,0,15.53-6.22,16.76-14.21,.01-.08,.03-.17,.03-.25,.08-.58,.13-1.16,.15-1.76,.03-1.46-.13-2.89-.45-4.24h-.42c-4.72,0-8.68-3.19-9.86-7.54Zm-6.08-5.06s-.03-.01-.04-.01c.01,0,.02,0,.04,.01h0Z"/><path class="e" d="M32.34,0c-1.85,0-3.58,.49-5.08,1.35-2.2,1.26-3.89,3.33-4.66,5.79h0v.11s-.02-.01-.03-.01c-.14,.46-.25,.93-.32,1.42,.71,.26,1.41,.56,2.07,.91,.06,.03,.13,.07,.2,.1,2.34,1.27,4.34,3.09,5.83,5.29,1.11,1.64,1.94,3.48,2.41,5.47h8.37c.79,0,1.42-.64,1.42-1.42V10.21c0-5.64-4.57-10.21-10.22-10.21Z"/><path class="d" d="M24.52,9.67c-.06-.03-.13-.07-.2-.1-.67-.35-1.36-.65-2.07-.91-.08,.5-.12,1.02-.12,1.55,0,.92,.12,1.83,.35,2.68,1.18,4.34,5.14,7.54,9.86,7.54h.42c-.47-1.99-1.3-3.83-2.41-5.47-1.49-2.2-3.49-4.01-5.83-5.29Z"/></g><path class="b" d="M33.23,12.83v1.3h-1.25v-1.21c-.86-.04-1.69-.27-2.17-.55l.38-1.49c.54,.29,1.29,.56,2.12,.56,.73,0,1.23-.28,1.23-.79s-.41-.79-1.35-1.11c-1.36-.46-2.3-1.1-2.3-2.34,0-1.12,.79-2,2.16-2.27v-1.21h1.25v1.12c.85,.04,1.43,.22,1.85,.42l-.37,1.44c-.33-.14-.92-.43-1.84-.43-.83,0-1.1,.36-1.1,.72,0,.42,.45,.69,1.53,1.1,1.52,.54,2.13,1.24,2.13,2.39,0,1.14-.81,2.11-2.28,2.37Z"/><path class="b" d="M16.92,32.12v2.44h-2.35v-2.28c-1.6-.07-3.16-.5-4.07-1.03l.72-2.8c1.01,.55,2.42,1.05,3.98,1.05,1.36,0,2.3-.53,2.3-1.49s-.76-1.49-2.54-2.08c-2.56-.86-4.31-2.06-4.31-4.38,0-2.11,1.49-3.76,4.05-4.26v-2.28h2.35v2.11c1.6,.07,2.68,.41,3.47,.79l-.69,2.71c-.62-.26-1.73-.81-3.45-.81-1.56,0-2.06,.67-2.06,1.34,0,.79,.84,1.29,2.87,2.06,2.85,1.01,4,2.32,4,4.48,0,2.13-1.51,3.96-4.26,4.43Z"/></svg>