<?xml version="1.0" encoding="UTF-8"?><svg id="a" xmlns="http://www.w3.org/2000/svg" width="41.72" height="28.03" viewBox="0 0 41.72 28.03"><defs><style>.b{fill:#c8acff;}.c{fill:#210c46;}.d{fill:#7633ff;}</style></defs><circle class="d" cx="20.86" cy="20.91" r="7.12"/><g><path class="b" d="M41.72,19.42C40.95,8.59,31.89,0,20.86,0S.77,8.59,0,19.42c-.06,.8,.59,1.48,1.39,1.48H7.03c.73,0,1.32-.56,1.39-1.28,.64-6.3,5.98-11.23,12.44-11.23,.59,0,1.17,.04,1.74,.12l3.5-5.87c.17-.43,.82-.23,.72,.22l-.28,6.89c3.69,1.89,6.34,5.56,6.77,9.87,.07,.72,.66,1.28,1.39,1.28h5.63c.8,0,1.45-.68,1.39-1.48Z"/><path class="d" d="M15.11,21.09c-.08,.21,.04,.45,.26,.5l10.15,2.26c.2,.05,.41-.08,.45-.28l.56-13.82c-1.21-.62-2.54-1.05-3.93-1.24l-7.49,12.57Z"/><path class="c" d="M26.09,2.65l-3.5,5.87c1.4,.2,2.72,.62,3.93,1.24l.28-6.89c.11-.45-.55-.66-.72-.22Z"/></g></svg>