<?xml version="1.0" encoding="UTF-8"?><svg id="a" xmlns="http://www.w3.org/2000/svg" width="83" height="83" viewBox="0 0 83 83"><defs><style>.b{fill:#6b2219;}.c{fill:#ffecdf;}.d{fill:#ffc299;}.e,.f{fill:#ff7b00;}.f{fill-rule:evenodd;}</style></defs><path class="b" d="M66.4,83H16.6c-9.13,0-16.6-7.47-16.6-16.6V16.6C0,7.47,7.47,0,16.6,0h49.8c9.13,0,16.6,7.47,16.6,16.6v49.8c0,9.13-7.47,16.6-16.6,16.6Z"/><g><path class="f" d="M19.53,69.5c5.81-2.43,15.88-6.14,14.61-11.84-.44-2.05-2.1-3.71-4.15-4.15-5.75-1.27-9.3,8.58-11.84,14.72-.72,1.77-.5,2.1,1.38,1.27Z"/><g><path class="d" d="M57.33,23.02c.06,.44,.11,.89,.11,1.33,0,6.25-5.04,11.29-11.29,11.29-2.1,0-4.09-.61-5.81-1.6-1.16,1.22-2.05,2.27-2.71,3.04-.28,.33-.61,.72-.94,1.11-4.26-1.99-7.97-1.6-10.79,1.55-1.27,1.44-3.65,4.04-5.04,5.59-.39,.39-.61,.83-.89,1.16-1.27,1.66,.44,3.93,2.71,2.99,3.82-1.6,4.43-3.43,7.58-1.88-.22,.39-.39,.83-.55,1.22-.33,.72-.28,1.55,.17,1.99l1.6,1.6,3.6,3.6,1.72,1.72c.44,.44,1.33,.55,1.99,.17,.44-.22,.89-.5,1.33-.72,2.16,3.76,.22,4.26-1.55,8.3-1,2.27,1.27,3.98,2.99,2.71,.33-.28,.72-.5,1.16-.89,1.55-1.44,4.15-3.76,5.59-5.04,3.32-2.99,3.54-6.92,1.16-11.45,.28-.28,.61-.5,.89-.77,2.21-1.94,6.92-5.87,10.18-11.23,.83-1.44,1.6-2.88,2.32-4.37,4.54-10.29,2.66-14.05-5.53-11.4Z"/><path class="e" d="M48.8,26.95c1.44-.83,2.88-1.6,4.37-2.32,1.55-.66,2.88-1.22,4.15-1.6-.66-5.59-5.42-9.96-11.23-9.96-6.25,0-11.29,5.04-11.29,11.29,0,4.09,2.21,7.69,5.48,9.68,2.1-2.27,5.04-4.98,8.52-7.08Z"/><path class="c" d="M57.38,24.35c0-.44-.06-.89-.11-1.33-1.22,.39-2.6,.94-4.15,1.6-1.49,.66-2.93,1.44-4.37,2.32-3.49,2.1-6.42,4.81-8.52,7.08,1.72,1.05,3.71,1.6,5.81,1.6,6.31,.06,11.34-5.04,11.34-11.29Z"/></g></g></svg>