<?xml version="1.0" encoding="UTF-8"?><svg id="a" xmlns="http://www.w3.org/2000/svg" width="43.47" height="32.26" viewBox="0 0 43.47 32.26"><defs><style>.b{fill:#c8acff;}.c{fill:#210c46;}.d{fill:#7633ff;}</style></defs><path class="d" d="M38.86,10.98h-11.27v.94h0v4.65c0,2.55-2.06,4.61-4.61,4.61h-7.08v6.33c0,2.55,2.06,4.61,4.61,4.61h18.36c2.55,0,4.61-2.06,4.61-4.61v-4.65h0v-7.27c0-2.55-2.06-4.61-4.61-4.61Z"/><path class="b" d="M20.5,10.98h7.09V4.65C27.58,2.1,25.52,.03,22.97,.03H4.61C2.06,.03,0,2.1,0,4.65v11.91c0,2.55,2.06,4.61,4.61,4.61H15.89v-5.58c0-2.55,2.07-4.61,4.61-4.61Z"/><path class="c" d="M21.56,21.17h1.42c2.55,0,4.61-2.06,4.61-4.61v-4.65h0v-.94h-7.09c-2.55,0-4.61,2.06-4.61,4.61v5.58h5.67Z"/><g><path class="b" d="M10.68,29.87l-5.44-5.44c-.26-.26-.68-.26-.95,0l-1.24,1.24c-.26,.26-.26,.68,0,.95l5.44,5.44c.26,.26,.69,.26,.95,0l1.24-1.24c.26-.26,.26-.69,0-.95Z"/><path class="b" d="M5.24,32.07l5.44-5.44c.26-.26,.26-.68,0-.95l-1.24-1.24c-.26-.26-.68-.26-.95,0l-5.44,5.44c-.26,.26-.26,.69,0,.95l1.24,1.24c.26,.26,.68,.26,.95,0Z"/></g><g><path class="d" d="M37.21,5.57l-3.39-3.39c-.26-.26-.68-.26-.94,0l-1.23,1.23c-.26,.26-.26,.68,0,.93l3.39,3.39c.26,.26,.68,.26,.94,0l1.23-1.23c.26-.26,.26-.68,0-.94Z"/><path class="d" d="M36,7.74l5.38-5.38c.26-.26,.26-.68,0-.94l-1.23-1.23c-.26-.26-.68-.26-.93,0l-5.38,5.38c-.26,.26-.26,.68,0,.94l1.23,1.23c.26,.26,.68,.26,.94,0Z"/></g></svg>