<?xml version="1.0" encoding="UTF-8"?><svg id="a" xmlns="http://www.w3.org/2000/svg" width="48.13" height="35.79" viewBox="0 0 48.13 35.79"><defs><style>.b{fill:#00bc65;}.c{fill:#006240;}.d{fill:#a1ecc8;fill-rule:evenodd;}</style></defs><g><path class="d" d="M33.68,0h-1.98c-1.23,0-2.23,1-2.23,2.23v.82c-1.16,.3-2.26,.76-3.27,1.36l-.58-.58c-.87-.87-2.28-.87-3.15,0l-1.4,1.4c-.87,.87-.87,2.28,0,3.15l.58,.58c-.59,1.01-1.06,2.11-1.36,3.27h-.82c-1.23,0-2.23,1-2.23,2.23v1.98c0,1.23,1,2.23,2.23,2.23h.82c.3,1.16,.76,2.26,1.36,3.27l-.58,.58c-.87,.87-.87,2.28,0,3.15l1.4,1.4c.87,.87,2.28,.87,3.15,0l.58-.58c1.01,.59,2.11,1.06,3.27,1.36v.82c0,1.23,1,2.23,2.23,2.23h1.98c1.23,0,2.23-1,2.23-2.23v-.82c1.16-.3,2.26-.76,3.27-1.36l.58,.58c.87,.87,2.28,.87,3.15,0l1.4-1.4c.87-.87,.87-2.28,0-3.15l-.58-.58c.59-1.01,1.06-2.11,1.36-3.27h.82c1.23,0,2.23-1,2.23-2.23v-1.98c0-1.23-1-2.23-2.23-2.23h-.82c-.3-1.16-.76-2.26-1.36-3.27l.58-.58c.87-.87,.87-2.28,0-3.15l-1.4-1.4c-.87-.87-2.28-.87-3.15,0l-.58,.58c-1.01-.6-2.11-1.06-3.27-1.36v-.82c0-1.22-1-2.22-2.23-2.22h0Z"/><path class="d" d="M16.43,0h-1.98c-1.23,0-2.23,1-2.23,2.23v.82c-1.16,.3-2.26,.76-3.27,1.36l-.58-.58c-.87-.87-2.28-.87-3.15,0l-1.4,1.4c-.87,.87-.87,2.28,0,3.15l.58,.58c-.59,1.01-1.06,2.11-1.36,3.27h-.82c-1.23,0-2.23,1-2.23,2.23v1.98c0,1.23,1,2.23,2.23,2.23h.82c.3,1.16,.76,2.26,1.36,3.27l-.58,.58c-.87,.87-.87,2.28,0,3.15l1.4,1.4c.87,.87,2.28,.87,3.15,0l.58-.58c1.01,.59,2.11,1.06,3.27,1.36v.82c0,1.23,1,2.23,2.23,2.23h1.98c1.23,0,2.23-1,2.23-2.23v-.82c1.16-.3,2.26-.76,3.27-1.36l.58,.58c.87,.87,2.28,.87,3.15,0l1.4-1.4c.87-.87,.87-2.28,0-3.15l-.58-.58c.59-1.01,1.06-2.11,1.36-3.27h.82c1.23,0,2.23-1,2.23-2.23v-1.98c0-1.23-1-2.23-2.23-2.23h-.82c-.3-1.16-.76-2.26-1.36-3.27l.58-.58c.87-.87,.87-2.28,0-3.15l-1.4-1.4c-.87-.87-2.28-.87-3.15,0l-.58,.58c-1.01-.6-2.11-1.06-3.27-1.36v-.82c0-1.22-1-2.22-2.23-2.22h0Z"/></g><g><path class="b" d="M24.26,16.15c0,4.11-3.33,7.44-7.44,7.44s-7.44-3.33-7.44-7.44,3.33-7.44,7.44-7.44c4.11,0,7.44,3.33,7.44,7.44"/><path class="b" d="M39.14,16.15c0,4.11-3.33,7.44-7.44,7.44s-7.44-3.33-7.44-7.44,3.33-7.44,7.44-7.44c4.11,0,7.44,3.33,7.44,7.44"/><path class="b" d="M24.06,35.77c-.11,.02-.22,.02-.34,.02H9.13c-1.58,0-2.68-1.54-2.2-3.04,1.29-4.02,5.05-6.93,9.5-6.93,3.07,0,5.81,1.38,7.64,3.56-.82,.98-1.46,2.12-1.86,3.37-.44,1.39,.47,2.82,1.87,3.02"/><path class="c" d="M24.06,35.77c-1.39-.2-2.31-1.62-1.86-3.02,.4-1.25,1.04-2.39,1.86-3.37,.82,.98,1.46,2.12,1.86,3.37,.45,1.39-.47,2.82-1.86,3.02"/><path class="b" d="M39,35.79h-14.6c-.12,0-.23,0-.34-.02,1.39-.2,2.31-1.62,1.86-3.02-.4-1.25-1.04-2.39-1.86-3.37,1.83-2.18,4.57-3.56,7.64-3.56,4.45,0,8.22,2.91,9.5,6.93,.48,1.5-.62,3.04-2.2,3.04"/></g></svg>