<?xml version="1.0" encoding="UTF-8"?><svg id="a" xmlns="http://www.w3.org/2000/svg" width="44.42" height="39.02" viewBox="0 0 44.42 39.02"><defs><style>.b{fill:#00bc65;}.c{fill:#006240;}.d{fill:#fff;}.e{fill:#a1ecc8;}</style></defs><path class="e" d="M24.6,12.16c-.11,0-.22,0-.32,0-1.38,.06-2.67,.5-3.75,1.22-1.99,1.32-3.3,3.58-3.3,6.15s1.31,4.83,3.3,6.15c1.09,.72,2.37,1.16,3.75,1.22,.11,0,.22,0,.32,0,4.08,0,7.38-3.3,7.38-7.38,0-4.08-3.3-7.38-7.38-7.38Z"/><path class="b" d="M9.54,12.16c-.11,0-.22,0-.32,0-1.38,.06-2.67,.5-3.75,1.22-1.99,1.32-3.3,3.58-3.3,6.15s1.31,4.83,3.3,6.15c1.09,.72,2.37,1.16,3.75,1.22,.11,0,.22,0,.32,0,4.08,0,7.38-3.3,7.38-7.38s-3.3-7.38-7.38-7.38Z"/><g><path class="e" d="M34.02,36c-1.28-3.99-5.01-6.88-9.43-6.88-.11,0-.22,0-.32,.01-2.89,.09-5.46,1.42-7.21,3.47,.84,.98,1.49,2.13,1.89,3.39,.44,1.39-.48,2.82-1.88,3,.09,.01,.19,.02,.28,.02h14.48c1.57,0,2.66-1.53,2.19-3.02Z"/><path class="b" d="M15.18,36c.13-.41,.29-.8,.47-1.18,.37-.78,.83-1.51,1.38-2.17,.02-.02,.03-.03,.04-.05-1.81-2.13-4.52-3.48-7.53-3.48-.11,0-.22,0-.32,.01-2.91,.09-5.51,1.44-7.25,3.52-.55,.66-1.01,1.38-1.38,2.17-.18,.38-.34,.77-.47,1.18-.44,1.38,.47,2.79,1.85,3,.11,.02,.22,.02,.34,.02h14.48c.1,0,.21,0,.3-.02-.02,0-.04,0-.05,0-1.38-.2-2.29-1.62-1.85-3Z"/><path class="c" d="M18.96,36c-.4-1.26-1.05-2.41-1.89-3.39-.02,.02-.03,.03-.04,.05-.55,.66-1.01,1.38-1.38,2.17-.18,.38-.34,.77-.47,1.18-.44,1.38,.47,2.79,1.85,3,.02,0,.04,0,.05,0,1.4-.18,2.33-1.6,1.88-3Z"/></g><path class="b" d="M42.83,4.04c-.82-1.22-1.94-2.22-3.23-2.93-.04-.02-.07-.04-.11-.06-.59-.31-1.21-.56-1.87-.73C36.82,.1,35.97,0,35.1,0h0c-.07,.02-.14,.02-.21,.02-1.21,.09-2.66,.42-3.68,.94h0c-3.07,1.56-5.2,4.83-5.2,8.43v7.8c0,.68,.55,1.22,1.22,1.22h7.8c4.57,0,8.61-3.45,9.29-7.87,0-.05,.01-.09,.02-.14,.05-.32,.07-.65,.08-.98,.04-2-.55-3.86-1.59-5.38ZM35.09,.09h0s-.01,0-.02,0h0s.02,0,.02,0Z"/><path class="d" d="M39.79,7.98c-.05-.62-.29-1.2-.68-1.65-.47-.53-1.11-.82-1.82-.82-1,0-1.63,.6-1.98,1.1-.09,.13-.17,.26-.23,.38-.07-.12-.14-.25-.23-.38-.35-.5-.98-1.1-1.98-1.1-.33,0-.64,.06-.93,.18-.34,.14-.65,.35-.9,.64-.44,.5-.69,1.18-.69,1.9,0,.54,.15,1.06,.46,1.58,.14,.24,.3,.48,.51,.72,.18,.22,.39,.44,.62,.66,.51,.5,1.12,1.02,1.8,1.6,.37,.31,.74,.63,1.15,.99h.01c.05,.06,.12,.08,.18,.08s.13-.02,.18-.07h.01c.4-.36,.78-.68,1.15-1,.98-.84,1.83-1.56,2.42-2.26,.66-.78,.97-1.52,.97-2.3l-.02-.26Z"/></svg>