<?xml version="1.0" encoding="UTF-8"?><svg id="a" xmlns="http://www.w3.org/2000/svg" width="45" height="35.32" viewBox="0 0 45 35.32"><defs><style>.b{fill:#6b2219;}.c{fill:#ffc299;}.d{fill:#ff7b00;}</style></defs><path class="c" d="M22.76,9.7c0,5.36-4.34,9.7-9.7,9.7S3.35,15.06,3.35,9.7,7.7,0,13.06,0s9.7,4.34,9.7,9.7"/><path class="d" d="M42.16,9.7c0,5.36-4.34,9.7-9.7,9.7s-9.7-4.34-9.7-9.7S27.1,0,32.46,0s9.7,4.34,9.7,9.7"/><path class="c" d="M22.5,35.28c-.14,.02-.29,.03-.44,.03H3.02c-2.06,0-3.5-2.01-2.87-3.97,1.68-5.24,6.59-9.04,12.39-9.04,4,0,7.58,1.8,9.96,4.64-1.08,1.28-1.91,2.77-2.43,4.39-.58,1.82,.61,3.67,2.43,3.94"/><path class="b" d="M22.5,35.28c-1.82-.26-3.01-2.12-2.43-3.94,.52-1.63,1.35-3.11,2.43-4.39,1.08,1.28,1.91,2.77,2.43,4.39,.58,1.82-.61,3.67-2.43,3.94"/><path class="d" d="M41.98,35.32H22.94c-.15,0-.3,0-.44-.03,1.82-.26,3.01-2.12,2.43-3.94-.52-1.63-1.35-3.11-2.43-4.39,2.38-2.84,5.96-4.64,9.96-4.64,5.8,0,10.71,3.8,12.39,9.04,.63,1.96-.81,3.97-2.87,3.97"/></svg>