<?xml version="1.0" encoding="UTF-8"?><svg id="a" xmlns="http://www.w3.org/2000/svg" width="41.09" height="39.5" viewBox="0 0 41.09 39.5"><defs><style>.b{fill:#00bc65;}.c{fill:#006240;}.d{fill:#a1ecc8;}</style></defs><path class="d" d="M41.09,16.83C41.09,7.53,33.56,0,24.26,0c-6.59,0-12.3,3.79-15.06,9.31h14.45c3.64,0,6.59,2.95,6.59,6.59v10.38h0v6.28c6.34-2.41,10.85-8.54,10.85-15.73Z"/><path class="b" d="M7.43,16.83c0-2.7,.64-5.25,1.77-7.52h-2.62c-3.63,0-6.58,2.95-6.58,6.59v17.01c0,3.63,2.95,6.58,6.58,6.58H23.65c3.64,0,6.59-2.95,6.59-6.58v-.35c-1.86,.71-3.87,1.1-5.98,1.1-9.3,0-16.83-7.53-16.83-16.83Z"/><path class="c" d="M30.24,26.28h0V15.9c0-3.64-2.95-6.59-6.59-6.59H9.2c-1.13,2.26-1.77,4.81-1.77,7.52,0,9.29,7.53,16.83,16.83,16.83,2.11,0,4.12-.39,5.98-1.1v-6.28h0Z"/></svg>