<?xml version="1.0" encoding="UTF-8"?><svg id="a" xmlns="http://www.w3.org/2000/svg" width="83" height="83" viewBox="0 0 83 83"><defs><style>.b{fill:none;}.c{fill:#00bc65;}.d{fill:#006240;}.e{fill:#d6f3e5;}.f{fill:#a1ecc8;}</style></defs><path class="d" d="M66.4,83H16.6c-9.13,0-16.6-7.47-16.6-16.6V16.6C0,7.47,7.47,0,16.6,0h49.8c9.13,0,16.6,7.47,16.6,16.6v49.8c0,9.13-7.47,16.6-16.6,16.6Z"/><g><path class="b" d="M31.37,21.69c-7.03,0-12.73,5.7-12.73,12.67s5.31,12.34,12.01,12.67v-14.33c0-3.32,2.71-6.03,6.03-6.03h4.76c-2.27-3.04-5.98-4.98-10.07-4.98Z"/><path class="f" d="M38.62,26.67h-1.88c-3.32,0-6.03,2.71-6.03,6.03v14.33h.66c1.88,0,3.71-.39,5.31-1.16,4.37-1.99,7.41-6.42,7.41-11.56,0-2.16-.55-4.21-1.49-5.98-.33-.61-.72-1.16-1.11-1.72l-2.88,.06h0Z"/><path class="c" d="M63.69,26.67h-15.77c.28,.55,.5,1.16,.72,1.72,.66,1.88,1,3.87,1,5.98,0,3.54-1,6.86-2.77,9.63l13.39,13.39c.55,.55,.55,1.49,0,2.1l-.89,.89-2.16,2.16c-.55,.55-1.49,.55-2.1,0l-2.16-2.16-11.07-11.07c-1.55,1.11-3.26,1.94-5.15,2.49-1.66,.5-3.43,.77-5.31,.77h-.66v7.08c0,3.32,2.71,6.03,6.03,6.03h26.95c3.32,0,6.03-2.71,6.03-6.03v-26.95c-.06-3.32-2.77-6.03-6.09-6.03Z"/><path class="e" d="M30.71,50.13v-3.04c-6.7-.33-12.01-5.92-12.01-12.67s5.7-12.67,12.73-12.67c4.09,0,7.8,1.99,10.07,4.98h6.42c-2.88-6.2-9.19-10.51-16.49-10.51-10.07,0-18.2,8.13-18.2,18.2s7.8,17.82,17.54,18.2l-.06-2.49h0Z"/><path class="e" d="M36.69,51.79c1.88-.55,3.6-1.44,5.15-2.49l11.07,11.07,2.16,2.16c.55,.55,1.49,.55,2.1,0l2.16-2.16,.89-.89c.55-.55,.55-1.49,0-2.1l-13.39-13.39c1.72-2.77,2.77-6.09,2.77-9.63,0-2.1-.33-4.09-1-5.98-.22-.61-.44-1.16-.72-1.72h-6.42c.44,.55,.77,1.11,1.11,1.72,.94,1.77,1.49,3.82,1.49,5.98,0,5.15-3.04,9.52-7.41,11.56-1.6,.72-3.43,1.16-5.31,1.16h-.66v3.04h0v2.43h.66c1.88,.06,3.71-.22,5.37-.77Z"/></g></svg>