<?xml version="1.0" encoding="UTF-8"?><svg id="a" xmlns="http://www.w3.org/2000/svg" width="83" height="83" viewBox="0 0 83 83"><defs><style>.b{fill:#e5d4ff;}.c{fill:#c8acff;}.d{fill:#210c46;}.e{fill:#7633ff;}</style></defs><path class="d" d="M66.4,83H16.6c-9.13,0-16.6-7.47-16.6-16.6V16.6C0,7.47,7.47,0,16.6,0h49.79c9.13,0,16.6,7.47,16.6,16.6v49.79c0,9.13-7.47,16.6-16.6,16.6Z"/><g><path class="e" d="M72.88,34.67c-.2-2.5-1.15-4.8-2.71-6.58-1.86-2.11-4.44-3.28-7.27-3.28-3.98,0-6.5,2.37-7.91,4.37-.37,.51-.68,1.04-.94,1.52-.26-.49-.58-1.01-.94-1.52-1.41-1.99-3.93-4.37-7.91-4.37-1.3,0-2.55,.25-3.7,.72,1.35,.55,2.57,1.42,3.58,2.56,1.57,1.78,2.51,4.08,2.71,6.58,.03,.34,.04,.68,.04,1.03,0,3.14-1.23,6.07-3.86,9.19-.73,.87-1.56,1.74-2.47,2.64,2.03,1.99,4.48,4.08,7.18,6.39,1.46,1.25,2.97,2.53,4.58,3.94l.05,.04c.21,.18,.47,.27,.73,.27s.52-.09,.73-.27l.05-.04c1.61-1.41,3.12-2.7,4.58-3.94,3.92-3.34,7.31-6.23,9.66-9.03,2.63-3.13,3.86-6.06,3.86-9.19,0-.34-.02-.69-.05-1.03Z"/><path class="c" d="M39.03,44.89c-.82-.97-1.49-1.93-2.04-2.88-1.22-2.1-1.82-4.16-1.82-6.32,0-2.88,.98-5.58,2.76-7.6,1.01-1.14,2.23-2,3.58-2.56-1.15-.47-2.4-.72-3.7-.72-3.98,0-6.5,2.37-7.91,4.37-.37,.51-.68,1.04-.94,1.52-.26-.49-.58-1.01-.94-1.52-1.41-1.99-3.93-4.37-7.91-4.37-2.83,0-5.41,1.16-7.27,3.28-1.78,2.01-2.76,4.72-2.76,7.6,0,2.16,.6,4.22,1.82,6.32,.55,.95,1.22,1.9,2.04,2.88,2.35,2.8,5.74,5.68,9.66,9.03,1.46,1.25,2.97,2.53,4.58,3.94l.05,.04c.21,.18,.47,.27,.73,.27s.52-.09,.73-.27l.05-.04c1.61-1.41,3.12-2.7,4.58-3.94,2.71-2.3,5.15-4.39,7.18-6.38-.92-.9-1.75-1.78-2.48-2.65Z"/><path class="b" d="M43.97,44.89c2.63-3.13,3.86-6.06,3.86-9.19,0-.34-.02-.69-.04-1.03-.2-2.5-1.15-4.8-2.71-6.58-1.01-1.14-2.23-2-3.58-2.56-1.35,.55-2.57,1.42-3.58,2.56-1.78,2.01-2.76,4.72-2.76,7.6,0,2.16,.6,4.22,1.82,6.32,.55,.95,1.22,1.9,2.04,2.88,.73,.87,1.56,1.74,2.47,2.64,.92-.89,1.75-1.77,2.48-2.64Z"/></g></svg>