<?xml version="1.0" encoding="UTF-8"?><svg id="a" xmlns="http://www.w3.org/2000/svg" width="49.63" height="26.35" viewBox="0 0 49.63 26.35"><defs><style>.b{fill:#6b2219;}.c{fill:#ffc299;}.d{fill:#ff7b00;}</style></defs><path class="d" d="M49.6,7.78c-.16-1.97-.91-3.79-2.14-5.19C45.99,.92,43.94,0,41.71,0c-3.14,0-5.13,1.88-6.25,3.45-.29,.41-.54,.82-.74,1.2-.21-.38-.45-.79-.74-1.2C32.86,1.88,30.87,0,27.73,0c-1.03,0-2.01,.2-2.92,.57,1.07,.44,2.03,1.12,2.83,2.02,1.23,1.4,1.98,3.22,2.14,5.19,.02,.27,.03,.54,.03,.81,0,2.48-.97,4.79-3.05,7.26-.58,.69-1.23,1.38-1.95,2.08,1.61,1.57,3.54,3.22,5.68,5.04,1.15,.98,2.35,2,3.62,3.11l.04,.03c.16,.14,.37,.22,.58,.22s.41-.07,.58-.22l.04-.03c1.27-1.11,2.46-2.13,3.62-3.11,3.1-2.64,5.77-4.92,7.63-7.13,2.08-2.47,3.05-4.78,3.05-7.26,0-.28-.01-.55-.03-.81Z"/><path class="c" d="M22.86,15.85c-.65-.77-1.18-1.52-1.61-2.27-.97-1.65-1.44-3.28-1.44-4.99,0-2.28,.77-4.41,2.17-6,.79-.9,1.76-1.58,2.83-2.02-.91-.37-1.89-.57-2.92-.57-3.14,0-5.13,1.88-6.25,3.45-.29,.41-.54,.82-.74,1.2-.21-.38-.45-.79-.74-1.2-1.11-1.58-3.1-3.45-6.25-3.45C5.69,0,3.64,.92,2.17,2.59,.77,4.18,0,6.31,0,8.59c0,1.71,.47,3.33,1.44,4.99,.44,.75,.96,1.5,1.61,2.27,1.86,2.21,4.53,4.49,7.63,7.13,1.16,.98,2.35,2,3.62,3.11l.04,.03c.16,.14,.37,.22,.58,.22s.41-.07,.58-.22l.04-.03c1.27-1.11,2.46-2.13,3.62-3.11,2.14-1.82,4.07-3.47,5.68-5.04-.72-.7-1.38-1.4-1.95-2.08Z"/><path class="b" d="M26.77,15.85c2.08-2.47,3.05-4.78,3.05-7.26,0-.27-.01-.54-.03-.81-.16-1.97-.91-3.79-2.14-5.19-.79-.9-1.76-1.58-2.83-2.02-1.07,.44-2.03,1.12-2.83,2.02-1.4,1.59-2.17,3.72-2.17,6,0,1.71,.47,3.33,1.44,4.99,.44,.75,.96,1.5,1.61,2.27,.58,.69,1.23,1.38,1.95,2.08,.72-.71,1.38-1.4,1.95-2.08Z"/></svg>