<?xml version="1.0" encoding="UTF-8"?><svg id="a" xmlns="http://www.w3.org/2000/svg" width="42.91" height="28.45" viewBox="0 0 42.91 28.45"><defs><style>.b{fill:#c8acff;}.c{fill:#210c46;}.d{fill:#7633ff;}</style></defs><g><path class="b" d="M39.92,14.72h-8.01c0,1.93-1.57,3.49-3.49,3.49h-3.41v7.24c0,1.65,1.34,2.99,2.99,2.99h11.92c1.65,0,2.99-1.34,2.99-2.99v-3.02h0v-4.72c0-1.65-1.34-2.99-2.99-2.99Z"/><path class="b" d="M11.01,14.72H2.99c-1.65,0-2.99,1.34-2.99,3v7.74c0,1.65,1.34,2.99,2.99,2.99H14.92c1.65,0,2.99-1.34,2.99-2.99v-3.02h0v-4.22h-3.42c-1.92,0-3.49-1.57-3.49-3.49Z"/><path class="d" d="M27.99,14.72h3.92v-3.52h0V3.49c0-1.93-1.57-3.49-3.49-3.49H14.5c-1.93,0-3.49,1.57-3.49,3.49V14.72h3.91c1.65,0,3,1.34,3,3v.5h7.08v-.5c0-1.66,1.34-3,2.99-3Z"/><path class="c" d="M27.34,18.21h1.07c1.93,0,3.49-1.57,3.49-3.49h-3.92c-1.65,0-2.99,1.34-2.99,3v.5h2.34Z"/><path class="c" d="M14.92,14.72h-3.91c0,1.93,1.57,3.49,3.49,3.49h3.42v-.5c0-1.65-1.34-2.99-2.99-2.99Z"/></g><rect class="b" x="17.02" y="20.96" width="8.87" height="3.96"/></svg>