<?xml version="1.0" encoding="UTF-8"?><svg id="a" xmlns="http://www.w3.org/2000/svg" width="42.39" height="40.73" viewBox="0 0 42.39 40.73"><defs><style>.b{fill:#6b2219;}.c{fill:#fff;}.d{fill:#ffc299;}.e{fill:#ff7b00;}</style></defs><g><path class="d" d="M22.4,12.84c-.23-.85-.35-1.74-.35-2.67,0-.53,.04-1.04,.12-1.54-.42-.15-.85-.29-1.29-.41-1.44-.4-2.96-.6-4.53-.57,0,0,0,.01,0,.02-.13,0-.25,.01-.38,.03-2.18,.17-4.78,.76-6.61,1.69h0C3.83,12.18,0,18.05,0,24.52v14.01c0,1.21,.98,2.2,2.2,2.2h3.46s.03,0,.05,0h10.51c8.22,0,15.47-6.2,16.69-14.15,.01-.08,.03-.17,.03-.25,.08-.57,.13-1.16,.15-1.76,.03-1.46-.13-2.88-.45-4.23h-.42c-4.7,0-8.65-3.18-9.82-7.51Zm-6.06-5.04s-.03-.01-.04-.01c.01,0,.02,0,.04,.01h0Z"/><path class="e" d="M32.21,0c-1.84,0-3.57,.49-5.06,1.35-2.19,1.26-3.87,3.31-4.64,5.77h0v.11s-.02-.01-.03-.01c-.14,.46-.25,.93-.32,1.42,.71,.26,1.4,.56,2.06,.9,.06,.03,.13,.07,.2,.1,2.33,1.27,4.33,3.08,5.81,5.27,1.11,1.63,1.93,3.47,2.4,5.45h8.34c.79,0,1.42-.63,1.42-1.42V10.17c0-5.61-4.56-10.17-10.18-10.17Z"/><path class="b" d="M24.42,9.63c-.06-.03-.13-.07-.2-.1-.66-.35-1.35-.65-2.06-.9-.08,.5-.12,1.02-.12,1.54,0,.92,.12,1.82,.35,2.67,1.17,4.33,5.12,7.51,9.82,7.51h.42c-.47-1.98-1.29-3.82-2.4-5.45-1.48-2.19-3.47-4-5.81-5.27Z"/></g><path class="c" d="M25.18,23.05l-4.06,3.55,1.2,5.26c.09,.38-.06,.76-.38,.99-.31,.22-.73,.24-1.06,.04l-4.63-2.76-4.63,2.76c-.33,.2-.75,.18-1.06-.04-.31-.23-.46-.62-.38-.99l1.2-5.26-4.06-3.55c-.29-.25-.4-.65-.28-1.03,.12-.37,.44-.62,.83-.66l5.37-.49,2.12-4.95c.15-.36,.5-.59,.88-.59s.73,.23,.88,.59l2.12,4.95,5.37,.49c.38,.04,.71,.29,.83,.66,.13,.37,.02,.77-.27,1.03Z"/><path class="c" d="M37.51,8.74l-2.22,1.94,.65,2.88c.05,.21-.03,.42-.21,.54-.17,.12-.4,.13-.58,.02l-2.53-1.51-2.53,1.51c-.18,.11-.41,.1-.58-.02-.17-.12-.25-.34-.21-.54l.65-2.88-2.22-1.94c-.16-.14-.22-.36-.15-.56,.06-.2,.24-.34,.45-.36l2.94-.27,1.16-2.71c.08-.2,.27-.32,.48-.32s.4,.12,.48,.32l1.16,2.71,2.94,.27c.21,.02,.39,.16,.45,.36,.06,.2,0,.42-.16,.56Z"/></svg>