<svg id="Layer_1" data-name="Layer 1" xmlns="http://www.w3.org/2000/svg" viewBox="0 0 1255 765"><defs><style>.cls-1{fill:#fff;}</style></defs><path class="cls-1" d="M546.86,414.21l-24.52-68.16H509.15V253.92H254.64V508.43H509.15v-123l24.78,61.82h25.48L600,346.05H571.58ZM343.79,304.82A14.63,14.63,0,1,1,329,319.44,14.67,14.67,0,0,1,343.79,304.82Zm99.29,139.9c-15.06,0-22.26-8.94-22.26-21.17a38.79,38.79,0,0,1,1.53-10.91l7.2-25.75a26.27,26.27,0,0,0,1.09-7.86c0-8.29-5-13.31-13.09-13.31-10.26,0-17,7.36-20.52,21.55l-14,56H358.62L363,425.69c-7.18,11.8-17.16,19.11-29.47,19.11-14.84,0-21.83-8.55-21.83-21.43a50.3,50.3,0,0,1,1.31-11l11.13-45.48H306.9l5.24-19.32h41.47l-16.37,64.94a41.23,41.23,0,0,0-1.53,10c0,4.16,2,5.37,5.24,6.09,1.95.44,17.46.13,25.9-18.64l10.76-43H360.14l5.24-19.32h37.33l-4.81,21.94c6.55-12.23,19.65-23.84,32.52-23.84,13.76,0,25.11,9.79,25.11,28.56a55.23,55.23,0,0,1-2.41,15.92l-7,25.09a29.18,29.18,0,0,0-1.09,6.77c0,4.37,1.74,6.55,5,6.55s7.42-2.41,12.22-15.72l9.6,3.71C466.22,436.43,456,444.72,443.08,444.72Z"/><rect class="cls-1" x="608.66" y="346.05" width="27.42" height="101.17"/><path class="cls-1" d="M680.12,375.59c0-5.59,5-9.84,13.9-9.84,9.84,0,14.67,5.79,15.25,12.16h26.45c-.77-14.87-11.2-34.17-41.51-34.17-24.9,0-40.54,15.06-40.54,33.4,0,40.16,56.18,24.13,56.18,41.12,0,5.6-5.41,9.27-15.83,9.27-11.39,0-16.41-6.37-16.8-13.13h-27.8c1.35,18.92,12.16,35.14,43.83,35.14,27.41,0,42.86-14.29,42.86-32.44C736.11,375.59,680.12,392.58,680.12,375.59Z"/><rect class="cls-1" x="749.97" y="346.05" width="27.42" height="101.17"/><path class="cls-1" d="M842.49,343.74c-32.43,0-53.09,24.13-53.09,52.9s20.66,52.9,53.09,52.9,53.1-24.14,53.1-52.9S874.93,343.74,842.49,343.74Zm0,81.66c-14.47,0-25.67-10.61-25.67-28.76s11.2-28.77,25.67-28.77,25.68,10.62,25.68,28.77S857,425.4,842.49,425.4Z"/><path class="cls-1" d="M963.1,343.74c-15.06,0-25.48,6-30.12,14.67V346.05H907.69V447.22h27.42V389.3c0-13.51,7.33-22,20.65-22,12.17,0,17.19,8.11,17.19,19.89v60h27.41V384.09C1000.36,360,987.43,343.74,963.1,343.74Z"/></svg>