<svg id="Illo_HeadcountPlanning" xmlns="http://www.w3.org/2000/svg" width="49.332" height="38.726" viewBox="0 0 49.332 38.726">
  <path id="Path_210" data-name="Path 210" d="M903.6,479.55a10.64,10.64,0,1,1-10.64-10.64,10.64,10.64,0,0,1,10.64,10.64" transform="translate(-878.652 -468.91)" fill="#ffecdf"/>
  <path id="Path_211" data-name="Path 211" d="M982.03,479.55a10.636,10.636,0,1,1,.008,0" transform="translate(-935.805 -468.91)" fill="#ff7b00"/>
  <path id="Path_212" data-name="Path 212" d="M893.461,573.344a3.175,3.175,0,0,1-.485.035H872.108a3.321,3.321,0,0,1-3.15-4.341,14.264,14.264,0,0,1,24.508-4.818,14.179,14.179,0,0,0-2.664,4.818,3.326,3.326,0,0,0,2.664,4.316" transform="translate(-868.798 -534.653)" fill="#ffecdf"/>
  <path id="Path_213" data-name="Path 213" d="M952.117,586.994a3.326,3.326,0,0,1-2.664-4.316,14.181,14.181,0,0,1,2.664-4.818,14.181,14.181,0,0,1,2.664,4.818,3.326,3.326,0,0,1-2.664,4.316" transform="translate(-927.454 -548.304)" fill="#6b2219"/>
  <path id="Path_214" data-name="Path 214" d="M981.068,573.35H960.2a3.168,3.168,0,0,1-.486-.035A3.326,3.326,0,0,0,962.374,569a14.18,14.18,0,0,0-2.664-4.818A14.264,14.264,0,0,1,984.218,569a3.321,3.321,0,0,1-3.15,4.341" transform="translate(-935.047 -534.624)" fill="#ff7b00"/>
</svg>
