<svg id="Element_question_mark_icon" data-name="Element / question mark icon" xmlns="http://www.w3.org/2000/svg" width="18" height="18" viewBox="0 0 18 18">
  <g id="Group_253" data-name="Group 253" transform="translate(-1059.94 -615.53)">
    <path id="Path_54" data-name="Path 54" d="M1068.94,633.53a9,9,0,1,1,9-9A9.014,9.014,0,0,1,1068.94,633.53Zm0-16a7,7,0,1,0,7,7A7.008,7.008,0,0,0,1068.94,617.53Z" fill="#63271d"/>
  </g>
  <g id="Group_256" data-name="Group 256" transform="translate(-1059.94 -615.53)">
    <g id="Group_254" data-name="Group 254">
      <path id="Path_55" data-name="Path 55" d="M1068.94,627.11a.881.881,0,0,1-.88-.88,3.194,3.194,0,0,1,1.32-2.86,1.707,1.707,0,0,0,.64-1.08,1.024,1.024,0,0,0-1.09-1.09,1,1,0,0,0-1.09,1.09.88.88,0,0,1-1.76,0,2.748,2.748,0,0,1,2.84-2.84,2.777,2.777,0,0,1,2.84,2.84,3.374,3.374,0,0,1-1.3,2.45,1.489,1.489,0,0,0-.67,1.49A.844.844,0,0,1,1068.94,627.11Z" fill="#63271d"/>
    </g>
    <g id="Group_255" data-name="Group 255">
      <circle id="Ellipse_8" data-name="Ellipse 8" cx="0.88" cy="0.88" r="0.88" transform="translate(1068.06 627.83)" fill="#63271d"/>
    </g>
  </g>
</svg>
