<?xml version="1.0" encoding="utf-8"?>
<!-- Generator: Adobe Illustrator 26.0.3, SVG Export Plug-In . SVG Version: 6.00 Build 0)  -->
<svg version="1.1" id="Layer_1" xmlns="http://www.w3.org/2000/svg" xmlns:xlink="http://www.w3.org/1999/xlink" x="0px" y="0px"
	 viewBox="0 0 515.3 214.7" style="enable-background:new 0 0 515.3 214.7;" xml:space="preserve">
<style type="text/css">
	.st0{fill:#FFFFFF;}
</style>
<path class="st0" d="M45.2,213.3h-8.1c-1,0-1.6-0.3-2.3-1.3L16.6,186c-0.3-0.3-0.2-0.7,0.3-0.7h3.9c6.4,0,11.6-3.7,11.6-10.5
	c0-5.9-4.4-9.9-10.6-9.9h-10c-0.3,0-0.4,0.2-0.4,0.4v47.8H3.9v-43.5c0-0.4-0.1-0.8-0.3-1.2L0.1,161c-0.2-0.3,0-0.5,0.3-0.5h22.7
	c10.3,0,17.4,5,17.4,14.2c0,8.3-6.4,12.5-13.3,13.7L45.2,213.3z M51.3,169.5h25.3v4.4h-18v13.9h16.6v4.6H58.7V208
	c0,0.5,0.3,0.8,0.6,0.8h18v4.5h-24c-1.1,0-2-0.6-2-2.1V169.5z M61.2,168.1l5.1-6.8c0.3-0.4,0.8-0.7,1.4-0.7h6.4l-6.3,6.8
	c-0.5,0.5-0.9,0.7-1.4,0.7H61.2z M128.4,213.3H121v-33.6l-14,24.7c-0.3,0.3-0.6,0.3-0.9,0l-14.1-23v32h-5.3v-40.3l-1.8-2.9
	c-0.3-0.3,0-0.6,0.3-0.6h8l14.3,22.9l12.8-22.1c0.3-0.6,0.8-0.9,1.5-0.9h6.5V213.3z M151.8,198l-16.3-28.3h8.8l12.1,21.7
	c3.4-6.2,8.1-14.9,11.5-20.9c0.3-0.6,0.8-0.9,1.5-0.9h5.7l-15.8,28v15.8h-7.4V198z M223.3,212.1c-2.6,1.4-6.5,2.3-10.7,2.3
	c-12.5,0-21.5-8-21.5-23.6c0-14,9.4-22,21.4-22c4.3,0,8.2,0.9,10.6,2.3v9.7c0,0.4-0.3,0.5-0.7,0.2l-4.4-5.5c-0.5-0.6-1-1-1.7-1.3
	c-1-0.3-2.3-0.5-3.7-0.5c-7.1,0-13.3,5.8-13.4,17.2c0,13.1,6.9,18,14.1,18c3.8,0,7.2-0.9,10-2.3V212.1z M246.7,214.5
	c-11.4,0-18.9-8-18.9-23.6c0-13.2,7.5-22,18.9-22c12.4,0,19.3,8.8,19.3,22.1C266.1,206,259,214.5,246.7,214.5 M246.8,173.4
	c-6.9,0-10.7,6.6-10.7,17.4c0,12.4,3.8,18.6,10.7,18.7c7.6,0,11.3-6.4,11.3-18.6C257.9,180.1,254.3,173.4,246.8,173.4 M281.8,213.5
	h-7.4v-43.7h7.4V213.5z M328.2,213.5h-1.5l-26.2-32.8v32.8h-5.3v-38c0-0.9-0.1-1.6-0.4-2.1l-2.9-3.7h9.5l21.5,27v-27h5.3V213.5z
	 M335.2,169.8h29.5v5h-11.1v38.8h-7.4v-38.8h-11.1L335.2,169.8z M407,213.6h-8c-0.6,0-1.1-0.3-1.5-1L384.7,192
	c-0.2-0.3,0-0.6,0.3-0.6h1.5c5,0,8.6-3.6,8.6-9.3c0-5.2-3.2-8.5-8.2-8.5h-4.9c-0.3,0-0.6,0.3-0.6,0.7v39.3H374v-36.9
	c0-0.4-0.1-0.8-0.3-1.1l-3-5.2c-0.1-0.2-0.1-0.4,0.3-0.4h18.3c8.5,0,13.9,4.7,13.9,11.9c0,7.3-4.9,10.4-9.5,11.5L407,213.6z
	 M413.5,169.9h23.4v4.4h-16.1v13.8h14.8v4.6h-14.8v15.8c0,0.3,0.3,0.6,0.6,0.6h16v4.6h-23.2c-0.4,0-0.9-0.3-0.9-0.9L413.5,169.9z
	 M442.2,213.6l14-43.7h8.7c0.4,0,0.7,0.2,0.9,0.6l14.9,43.1h-7.4c-0.6,0-1-0.3-1.2-1.1l-4.3-13.1h-15.2l-4.3,14.2H442.2z
	 M459.9,175.4l-5.9,19.7h12.5L459.9,175.4z M485.3,169.9h7.4v30.1c0,6.5,3.6,9.4,8.5,9.4c5.1,0,8.8-2.8,8.8-9.2V170h5.3v30
	c0,10.1-6.5,14.8-14.7,14.8c-8.5,0-15.3-4.2-15.3-15V169.9z"/>
<path class="st0" d="M199.9,72.8c0-31.4,23.8-60,60.9-60c33.2,0,58.3,27.2,58.3,58.8c0,31.4-24,59.7-60.3,59.7
	C226.6,131.2,199.9,105.5,199.9,72.8 M260.1,124.7c33.8,0,51.8-23,51.8-50.3c0-30.4-23-55.8-52.9-55.8c-33.3,0-51.8,25.1-51.8,52.9
	C207.2,101,230.9,124.7,260.1,124.7 M271.9,105.6c-10.7-13.9-19.4-25.5-25.3-34.1c5.2-1,11.3-4.9,11.3-13.2c0-8-7.4-13.9-16.7-13.9
	h-20.2c-0.3,0-0.4,0.3-0.3,0.7l2.6,6.5c0.2,0.3,0.3,0.6,0.3,1.2v40.7h7.6V49.7c0-0.3,0.2-0.6,0.4-0.6h7.4c5.9,0,10.1,3.6,10.1,9.1
	c0,6.1-4.4,10.1-11.3,10.1h-1.6c-0.4,0-0.6,0.4-0.3,0.7c8.1,12.5,17.4,24.8,25.3,35c0.7,0.9,1.3,1.3,2.5,1.3h8.2V105.6z M295.4,85.4
	c-2.7,1.6-6.3,2.6-10,2.6c-9.3,0-16-6.3-16-20c0-13.5,6.5-19.4,14.1-19.4c3.5,0,5.5,0.7,7.4,2.5c1.5,1.5,2.5,3.2,3.6,5.1
	c0.3,0.3,0.9,0.3,0.9-0.3v-10c-2.6-1.3-7.1-2.5-11.9-2.5c-12.8,0-22.5,8.8-22.5,25.1c0,16.7,10.5,25.9,23,25.9c4,0,8-0.7,11.3-2.6
	V85.4z"/>
</svg>
