<?xml version="1.0" encoding="utf-8"?>
<!-- Generator: Adobe Illustrator 18.0.0, SVG Export Plug-In . SVG Version: 6.00 Build 0)  -->
<svg version="1.1" id="Layer_1" xmlns="http://www.w3.org/2000/svg" xmlns:xlink="http://www.w3.org/1999/xlink" x="0px" y="0px"
	 width="360px" height="144px" viewBox="0 0 360 144" enable-background="new 0 0 360 144" xml:space="preserve">
<g>
	<g>
		<g>
			<g>
				<path fill-rule="evenodd" clip-rule="evenodd" fill="#FFFFFF" d="M78.26,49c-0.02-0.04-0.03-0.09-0.05-0.16
					c-0.39-1.32-1.36-2.12-2.72-2.15l0,0H40.62c-1.17,0-2.06,0.57-2.55,1.54l-9.31,31.68v11.53c-0.01,3.18,2.56,5.77,5.74,5.79
					l23.24,0.09l23.77-0.01c3.18,0,5.76-2.58,5.76-5.77V79.91L78.26,49z M71.88,79.91c-2.24,0-4.12,1.52-4.7,3.59
					c-1.42,3.66-4.96,6.25-9.09,6.25s-7.67-2.59-9.09-6.25c-0.58-2.07-2.46-3.58-4.7-3.58l-11.84,0.01l8.53-30.06H75.1l8.53,30.06
					L71.88,79.91z"/>
			</g>
		</g>
		<path fill="#FFFFFF" d="M64.77,56.01c-3.79-1.47-7.62-1.55-10.1-1.29c-0.63,0.05-1.18,0.15-1.67,0.23
			c-0.49,0.07-0.88,0.17-1.21,0.25c-0.64,0.16-0.99,0.25-0.99,0.25l0.01,0.02c-0.56,0.18-1.03,0.51-1.27,0.95
			c-0.51,0.91,0.13,1.93,1.41,2.29c0.62,0.17,1.27,0.15,1.85-0.01l0.01,0.01c0,0,0.24-0.06,0.69-0.18c0.22-0.06,0.5-0.14,0.83-0.19
			c0.33-0.06,0.71-0.15,1.16-0.18c1.72-0.21,4.41-0.21,7.15,0.79c2.7,0.96,5.3,3.03,5.99,5.71c0.77,2.64-0.66,5.73-3.77,7.61
			c-1.55,0.91-3.44,1.59-5.41,1.82c-1.96,0.26-3.99,0.14-5.78-0.31c-3.66-0.86-6.16-2.99-7.09-5.03c-1.02-2.05-0.61-3.93-0.08-5.11
			c0.32-0.59,0.57-1.05,0.83-1.34c0.22-0.3,0.34-0.46,0.34-0.46l-0.02-0.01c0.03-0.04,0.08-0.07,0.11-0.12
			c0.27-0.49-0.07-1.04-0.76-1.24c-0.6-0.17-1.25,0-1.6,0.37l-0.03-0.01c0,0-0.16,0.19-0.45,0.55c-0.33,0.35-0.67,0.91-1.09,1.64
			c-0.34,0.74-0.72,1.67-0.78,2.77c-0.14,1.1,0.07,2.36,0.63,3.66c1.07,2.6,4.17,5.41,8.88,6.62c2.31,0.63,4.96,0.83,7.57,0.54
			c2.62-0.27,5.14-1.1,7.27-2.29c4.26-2.43,6.37-6.57,5.45-10.24C72.03,60.39,68.53,57.43,64.77,56.01z"/>
	</g>
	<path fill="#FFFFFF" d="M120.89,67.94c0.57-0.34,1.54-0.51,2.94-0.51c1.3,0,2.64,0.14,4.01,0.41c1.37,0.29,2.58,0.74,3.63,1.38
		c0.97-0.33,1.63-0.87,1.99-1.6c0.36-0.73,0.55-1.46,0.55-2.17c0-1.46-0.8-2.62-2.4-3.5c-1.6-0.87-4.06-1.31-7.39-1.31
		c-2.06,0-3.89,0.26-5.47,0.78c-1.58,0.51-2.9,1.19-3.97,2.06c-1.07,0.85-1.88,1.87-2.43,3.01c-0.55,1.15-0.82,2.39-0.82,3.67
		c0,2.27,0.68,4.01,2.05,5.23c1.37,1.22,3.55,2.05,6.54,2.48c1.13,0.13,2.04,0.26,2.68,0.39c0.65,0.12,1.15,0.27,1.49,0.46
		c0.34,0.15,0.55,0.34,0.63,0.54c0.09,0.18,0.13,0.44,0.13,0.73c0,0.43-0.23,0.81-0.66,1.1c-0.45,0.3-1.44,0.44-3,0.44
		c-0.63,0-1.34-0.05-2.12-0.18c-0.78-0.12-1.54-0.3-2.3-0.55c-0.76-0.23-1.49-0.49-2.18-0.77c-0.7-0.26-1.25-0.58-1.67-0.91
		c-0.89,0.33-1.53,0.81-1.89,1.43c-0.38,0.62-0.57,1.33-0.57,2.13c0,0.97,0.28,1.79,0.82,2.45c0.55,0.66,1.31,1.16,2.28,1.56
		c0.97,0.38,2.11,0.66,3.43,0.81c1.34,0.17,2.8,0.26,4.39,0.26c2.19,0,4.06-0.22,5.59-0.72c1.54-0.45,2.78-1.1,3.76-1.91
		c0.97-0.82,1.68-1.77,2.14-2.86c0.46-1.08,0.7-2.26,0.7-3.54c0-1.07-0.16-2.02-0.47-2.85c-0.32-0.84-0.85-1.55-1.61-2.15
		c-0.75-0.6-1.74-1.1-2.97-1.5c-1.22-0.4-2.73-0.75-4.54-1c-1.77-0.21-2.9-0.44-3.38-0.71c-0.48-0.25-0.72-0.67-0.72-1.28
		C120.04,68.72,120.32,68.29,120.89,67.94z M167.68,81.78l-3.03-0.06c0.04-0.85,0.07-1.88,0.09-3.07c0.02-1.21,0.04-2.42,0.06-3.66
		c0.01-1.24,0.03-2.39,0.03-3.46c0-1.05,0-1.89,0-2.49c0-3.12-0.75-5.28-2.25-6.49c-1.49-1.22-3.69-1.83-6.59-1.83
		c-2.48,0-4.38,0.41-5.68,1.22c-1.31,0.82-2.32,1.86-3.03,3.14V48.92c-0.55-0.23-1.25-0.38-2.12-0.48
		c-0.87-0.11-1.64-0.17-2.31-0.17c-2.99,0-4.55,1.04-4.67,3.14c0,0.46-0.01,1.12-0.03,1.94c-0.02,0.85-0.04,1.91-0.06,3.21
		c-0.02,1.31-0.04,2.86-0.06,4.67c-0.02,1.82-0.03,3.94-0.03,6.38c0,3.16,0,6.1,0,8.83c0,2.76,0.04,5.62,0.12,8.59
		c0.04,0.99,0.46,1.66,1.26,2.06c0.81,0.38,1.94,0.58,3.41,0.58c0.85,0,1.68-0.06,2.5-0.13c0.81-0.09,1.5-0.26,2.06-0.58V69.81
		c0.55-0.86,1.17-1.55,1.89-2.08c0.72-0.53,1.63-0.81,2.71-0.81c1.6,0,2.63,0.35,3.06,1.03c0.45,0.69,0.67,1.66,0.67,2.95
		c0,0.47-0.02,1.24-0.04,2.31c-0.02,1.08-0.03,2.22-0.03,3.46c0,1.19-0.01,2.33-0.03,3.43c-0.02,1.09-0.03,1.88-0.03,2.41
		c0,1.1,0.06,1.99,0.2,2.66c0.13,0.66,0.4,1.17,0.85,1.55c0.44,0.4,1.08,0.66,1.92,0.78c0.84,0.13,1.96,0.21,3.35,0.21
		c4.21,0,6.31-1.25,6.31-3.73c0-0.34-0.04-0.72-0.13-1.12C167.97,82.44,167.84,82.09,167.68,81.78z M194.91,63.59
		c-2.21-2-5.46-3.02-9.75-3.02c-2.28,0-4.35,0.34-6.23,1c-1.87,0.66-3.47,1.61-4.8,2.85c-1.33,1.24-2.36,2.78-3.1,4.61
		c-0.73,1.84-1.09,3.91-1.09,6.23c0,4.43,1.14,7.64,3.4,9.62c2.28,1.96,5.53,2.94,9.79,2.94c2.14,0,4.13-0.3,5.96-0.9
		c1.83-0.6,3.42-1.5,4.77-2.7c1.34-1.19,2.4-2.7,3.18-4.52c0.79-1.8,1.17-3.96,1.17-6.44C198.23,68.83,197.13,65.59,194.91,63.59z
		 M187.81,80.15c-0.85,1.18-2.09,1.76-3.72,1.76c-0.97,0-1.75-0.11-2.37-0.31c-0.6-0.22-1.09-0.6-1.45-1.16
		c-0.37-0.55-0.61-1.3-0.75-2.25c-0.16-0.93-0.23-2.11-0.23-3.54c0-2.77,0.39-4.76,1.17-6.01c0.77-1.24,2.13-1.86,4.06-1.86
		c1.9,0,3.13,0.6,3.7,1.83c0.56,1.21,0.85,3.02,0.85,5.41C189.07,76.94,188.65,78.98,187.81,80.15z M239.76,60.83
		c-0.42,0-0.84,0.03-1.26,0.06c-0.43,0.04-0.82,0.13-1.2,0.26l-5.69,17.43l-3.78-14.93c-0.17-0.6-0.37-1.1-0.59-1.48
		c-0.22-0.38-0.55-0.67-0.95-0.89c-0.4-0.22-0.92-0.36-1.55-0.43c-0.63-0.05-1.44-0.08-2.4-0.08c-0.58,0.04-1.39,0.24-2.39,0.57
		l-5.37,17.24l-4.42-14.93c-0.17-0.6-0.36-1.08-0.58-1.45c-0.21-0.35-0.48-0.66-0.83-0.87c-0.33-0.2-0.78-0.35-1.38-0.45
		c-0.59-0.08-1.34-0.12-2.27-0.12c-2.27,0-3.79,0.34-4.58,1.02c-0.78,0.69-1.17,1.51-1.17,2.5c0,0.46,0.05,0.92,0.14,1.37
		c0.08,0.46,0.22,0.85,0.44,1.19l1.71,0.12l6,17.11c0.25,0.68,0.51,1.27,0.82,1.74c0.29,0.46,0.66,0.83,1.1,1.11
		c0.44,0.27,1.01,0.47,1.7,0.58c0.69,0.1,1.54,0.17,2.56,0.17c1,0,1.75-0.07,2.21-0.17c0.46-0.11,1.05-0.27,1.77-0.5l4.42-13.83
		l2.71,10.64c0.17,0.73,0.36,1.32,0.58,1.8c0.2,0.47,0.51,0.86,0.9,1.19c0.41,0.3,0.93,0.54,1.58,0.66
		c0.66,0.13,1.48,0.21,2.49,0.21c0.94,0,1.88-0.1,2.84-0.26c0.97-0.17,1.73-0.4,2.28-0.64c0.71-1.49,1.44-3.08,2.18-4.77
		c0.72-1.69,1.52-3.61,2.36-5.78c0.72-1.9,1.3-3.48,1.76-4.72c0.46-1.27,0.83-2.33,1.08-3.18c0.25-0.86,0.4-1.59,0.47-2.2
		c0.06-0.62,0.09-1.23,0.09-1.83c0-1.06-0.31-1.91-0.92-2.54C242.03,61.14,241.08,60.83,239.76,60.83z M264.38,60.71
		c-2.1,0-3.81,0.38-5.11,1.16c-1.31,0.76-2.3,1.79-2.97,3.06V48.92c-0.54-0.23-1.25-0.38-2.12-0.48c-0.86-0.11-1.63-0.17-2.3-0.17
		c-1.38,0-2.49,0.27-3.31,0.8c-0.83,0.53-1.27,1.31-1.36,2.34c0,0.46-0.01,1.08-0.02,1.84c-0.03,0.78-0.05,1.76-0.06,2.96
		c-0.03,1.2-0.04,2.66-0.06,4.39c-0.03,1.73-0.04,3.81-0.04,6.25c0,2.56,0,4.8,0,6.72c0,1.89,0,3.51,0,4.88
		c0,1.37,0.03,2.5,0.06,3.39c0.04,0.91,0.1,1.61,0.13,2.12c0.05,0.64,0.29,1.19,0.76,1.67c0.46,0.47,1.18,0.86,2.18,1.19
		c0.98,0.3,2.27,0.55,3.84,0.73c1.57,0.17,3.55,0.26,5.91,0.26c2.1,0,4.07-0.3,5.9-0.9c1.83-0.6,3.41-1.51,4.73-2.73
		c1.33-1.22,2.37-2.73,3.14-4.55c0.76-1.81,1.13-3.94,1.13-6.38c0-4.31-0.86-7.49-2.58-9.51C270.49,61.72,267.87,60.71,264.38,60.71
		z M264.7,79.81c-0.88,1.19-2.37,1.79-4.48,1.79c-0.84,0-1.55-0.03-2.11-0.07c-0.57-0.05-1.17-0.14-1.8-0.25V69.54
		c0.54-0.81,1.19-1.45,1.89-1.91c0.71-0.48,1.62-0.71,2.72-0.71c2.03,0,3.38,0.58,4.08,1.73c0.68,1.15,1.03,2.94,1.03,5.36
		C266.02,76.69,265.58,78.62,264.7,79.81z M288.11,61.41c-0.93-0.43-2.49-0.64-4.67-0.64c-2.65,0-4.53,0.29-5.65,0.87
		c-1.11,0.57-1.67,1.46-1.67,2.66c0,0.46,0.04,0.92,0.12,1.37c0.1,0.46,0.24,0.85,0.44,1.19l3.54,0.12c-0.05,3-0.06,5.81-0.06,8.47
		c0,2.42,0.01,4.39,0.05,5.88c0.01,1.49,0.03,2.73,0.09,3.71c0.07,1.03,0.53,1.73,1.36,2.08c0.81,0.37,1.93,0.56,3.32,0.56
		c0.92,0,1.78-0.06,2.55-0.13c0.79-0.09,1.44-0.26,1.99-0.58v-23.7C289.5,62.46,289.04,61.83,288.11,61.41z M285.27,48.34
		c-1.73,0-3.02,0.43-3.88,1.28c-0.86,0.86-1.29,1.94-1.29,3.27c0,1.5,0.38,2.57,1.13,3.2c0.76,0.63,1.91,0.95,3.48,0.95
		c1.89,0,3.21-0.44,3.95-1.31c0.73-0.87,1.1-1.93,1.1-3.16c0-1.16-0.34-2.16-1.02-2.99C288.07,48.76,286.91,48.34,285.27,48.34z
		 M318.77,75.46c0.31-0.19,0.59-0.49,0.82-0.94c0.24-0.45,0.43-1.05,0.58-1.8c0.14-0.76,0.22-1.72,0.22-2.91c0-2.82-1-5.06-3-6.74
		c-2-1.65-4.72-2.5-8.18-2.5c-2.39,0-4.56,0.36-6.49,1.08c-1.95,0.7-3.58,1.69-4.9,2.98c-1.32,1.27-2.35,2.84-3.05,4.67
		c-0.73,1.84-1.09,3.88-1.09,6.09c0,4.41,1.12,7.57,3.32,9.5c2.21,1.91,5.44,2.87,9.69,2.87c4.05,0,7.25-0.43,9.61-1.31
		c2.36-0.89,3.54-2.22,3.54-4c0-0.61-0.16-1.21-0.48-1.84c-0.3-0.61-0.8-1.02-1.47-1.25c-1.34,0.7-2.87,1.19-4.55,1.54
		c-1.69,0.34-3.18,0.51-4.48,0.51c-1.18,0-2.16-0.14-2.88-0.41c-0.74-0.28-1.31-0.67-1.71-1.15c-0.41-0.49-0.68-1.09-0.82-1.79
		c-0.15-0.71-0.23-1.48-0.23-2.34h14.52C318.11,75.7,318.46,75.61,318.77,75.46z M311.23,71.41h-7.84c0.21-1.67,0.72-2.87,1.49-3.63
		c0.77-0.74,1.88-1.12,3.31-1.12c1.34,0,2.21,0.35,2.56,1.06c0.35,0.71,0.54,1.61,0.54,2.72C311.29,70.87,311.27,71.19,311.23,71.41
		z"/>
</g>
</svg>
