<svg xmlns="http://www.w3.org/2000/svg" width="40.591" height="40.587" viewBox="0 0 40.591 40.587">
  <g id="Icon_Platform" transform="translate(0.006 0.003)">
    <path id="Path_189" data-name="Path 189" d="M1004.58,425.6a1.845,1.845,0,0,1-.826-.194l-18.448-9.224a1.845,1.845,0,0,1,0-3.3l18.448-9.224a1.845,1.845,0,0,1,1.651,0l18.448,9.224a1.845,1.845,0,0,1,0,3.3l-18.448,9.224A1.868,1.868,0,0,1,1004.58,425.6Zm-14.325-11.069,14.325,7.167,14.3-7.162-14.3-7.162Z" transform="translate(-984.29 -403.46)" fill="#002e9f"/>
    <path id="Path_190" data-name="Path 190" d="M1008.893,476.345a1.844,1.844,0,0,1-.826-.194l-14.708-7.379a1.845,1.845,0,1,1,1.651-3.3l13.882,6.941,17.622-8.814a1.846,1.846,0,0,1,1.651,3.3l-18.448,9.224a1.868,1.868,0,0,1-.826.217Z" transform="translate(-988.603 -435.761)" fill="#002e9f"/>
    <path id="Path_191" data-name="Path 191" d="M1004.581,456.372a1.845,1.845,0,0,1-.826-.194l-18.448-9.224a1.846,1.846,0,0,1,1.651-3.3l17.623,8.818,17.622-8.814a1.846,1.846,0,0,1,1.651,3.3l-18.448,9.224A1.869,1.869,0,0,1,1004.581,456.372Z" transform="translate(-984.291 -425.012)" fill="#002e9f"/>
    <path id="Path_192" data-name="Path 192" d="M999.268,473.694a1.845,1.845,0,0,1-.826-.194l-5.073-2.541a1.845,1.845,0,1,1,1.651-3.3l5.073,2.537a1.845,1.845,0,0,1-.826,3.5Z" transform="translate(-988.609 -437.934)" fill="#d3efff"/>
    <path id="Path_193" data-name="Path 193" d="M1011.267,479.716a1.9,1.9,0,0,1-.826-.194l-6.222-3.113a1.845,1.845,0,1,1,1.651-3.3l6.222,3.108a1.845,1.845,0,0,1-.826,3.5Z" transform="translate(-994.455 -440.87)" fill="#a5dfff"/>
    <path id="Path_194" data-name="Path 194" d="M1021.542,484.852a1.844,1.844,0,0,1-.826-.194l-3.929-1.965a1.846,1.846,0,0,1,1.651-3.3l3.1,1.554,2.767-1.384a1.845,1.845,0,1,1,1.651,3.3l-3.574,1.789a1.845,1.845,0,0,1-.844.2Z" transform="translate(-1001.253 -444.268)" fill="#00b1ff"/>
  </g>
</svg>
