<svg id="Icon_WrappedGift" xmlns="http://www.w3.org/2000/svg" width="39.304" height="39.304" viewBox="0 0 39.304 39.304">
  <path id="Path_122" data-name="Path 122" d="M953.227,505.223h-4.185a6.253,6.253,0,0,0-5.641-8.933c-3.247,0-5.989,1.862-7.928,5.391-.04.067-.071.138-.111.206l-.107-.206c-1.938-3.528-4.681-5.391-7.932-5.391a6.253,6.253,0,0,0-5.641,8.933H917.5a1.787,1.787,0,0,0-1.786,1.786v8.933a1.787,1.787,0,0,0,1.786,1.787h16.079v14.292H922.856v-8.767a1.786,1.786,0,1,0-3.573,0v10.554a1.786,1.786,0,0,0,1.787,1.787h28.584a1.787,1.787,0,0,0,1.787-1.787V517.728h1.786a1.787,1.787,0,0,0,1.787-1.787v-8.933A1.787,1.787,0,0,0,953.227,505.223Zm-9.826-5.36a2.68,2.68,0,1,1,0,5.36h-5.632C938.618,503,940.342,499.863,943.4,499.863Zm-18.759,2.68a2.68,2.68,0,0,1,2.68-2.68c3.064,0,4.8,3.126,5.637,5.36h-5.637A2.68,2.68,0,0,1,924.643,502.543Zm-5.359,11.612V508.8h14.292v5.36Zm28.584,17.865H937.148V517.728h10.719Zm3.573-17.865H937.148V508.8h14.292Z" transform="translate(-915.71 -496.29)" fill="#210c46"/>
  <path id="Path_123" data-name="Path 123" d="M925.5,560.19a1.786,1.786,0,0,1-1.787-1.786V550.6a1.786,1.786,0,1,1,3.573,0V558.4A1.786,1.786,0,0,1,925.5,560.19Z" transform="translate(-920.137 -525.353)" fill="#e5d4ff"/>
  <path id="Path_124" data-name="Path 124" d="M925.5,572.321a1.787,1.787,0,0,1-1.787-1.787v-6.087a1.786,1.786,0,1,1,3.573,0v6.087A1.786,1.786,0,0,1,925.5,572.321Z" transform="translate(-920.137 -533.017)" fill="#b481ff"/>
  <path id="Path_125" data-name="Path 125" d="M931.584,579.863H925.5a1.786,1.786,0,1,1,0-3.573h6.087a1.786,1.786,0,1,1,0,3.573Z" transform="translate(-920.137 -540.559)" fill="#7633ff"/>
</svg>
