<svg xmlns="http://www.w3.org/2000/svg" width="50" height="50" viewBox="0 0 50 50">
  <g id="Group_805" data-name="Group 805" transform="translate(-32 -28)">
    <g id="Group_204" data-name="Group 204" transform="translate(32 28)">
      <rect id="Rectangle_9" data-name="Rectangle 9" width="50" height="50" rx="5" fill="#ff9d5a"/>
    </g>
    <g id="Icon_Analytics" transform="translate(45 39)">
      <path id="Path_79" data-name="Path 79" d="M711.484,353.913v17.028a.573.573,0,0,1-.573.573h-3.438a.576.576,0,0,1-.573-.573V353.913a.576.576,0,0,1,.573-.573h3.438A.573.573,0,0,1,711.484,353.913Z" transform="translate(-687.993 -345.317)" fill="#fff"/>
      <path id="Path_80" data-name="Path 80" d="M347.354,502.933V514.8a.577.577,0,0,1-.573.573h-3.438a.573.573,0,0,1-.573-.573v-11.87a.573.573,0,0,1,.573-.573h3.438A.577.577,0,0,1,347.354,502.933Z" transform="translate(-336.465 -489.18)" fill="#fff"/>
      <path id="Path_81" data-name="Path 81" d="M529.344,569.173v9.578a.573.573,0,0,1-.573.573h-3.438a.576.576,0,0,1-.573-.573v-9.578a.576.576,0,0,1,.573-.573h3.438A.573.573,0,0,1,529.344,569.173Z" transform="translate(-512.157 -553.127)" fill="#fff"/>
      <path id="Path_82" data-name="Path 82" d="M165.214,701.643v4.994a.576.576,0,0,1-.573.573H161.2a.573.573,0,0,1-.573-.573v-4.994a.573.573,0,0,1,.573-.573h3.438A.576.576,0,0,1,165.214,701.643Z" transform="translate(-160.628 -681.013)" fill="#fff"/>
      <path id="Path_83" data-name="Path 83" d="M184.072,123.8a2.291,2.291,0,0,1-2.292,2.292,2.327,2.327,0,0,1-.848-.166l-3.69,5.025a2.255,2.255,0,0,1,.527,1.444,2.292,2.292,0,0,1-4.584,0,2.211,2.211,0,0,1,.074-.556l-2.418-1.318a2.251,2.251,0,0,1-2.659.493l-3.443,4.068a2.29,2.29,0,1,1-1.868-.968,2.232,2.232,0,0,1,.991.235l3.443-4.074a2.29,2.29,0,1,1,4.16-1.318,2.212,2.212,0,0,1-.074.556l2.418,1.318a2.257,2.257,0,0,1,2.51-.562l3.7-5.025a2.255,2.255,0,0,1-.527-1.444,2.292,2.292,0,1,1,4.584,0Z" transform="translate(-160.58 -121.51)" fill="#fff"/>
    </g>
  </g>
</svg>
