<svg xmlns="http://www.w3.org/2000/svg" xmlns:xlink="http://www.w3.org/1999/xlink" width="168.435" height="147.78" viewBox="0 0 168.435 147.78">
  <defs>
    <clipPath id="clip-path">
      <rect id="Rectangle_143" data-name="Rectangle 143" width="99.253" height="99.253" fill="none"/>
    </clipPath>
    <clipPath id="clip-path-2">
      <rect id="Rectangle_143-2" data-name="Rectangle 143" width="72.569" height="72.569" fill="none"/>
    </clipPath>
  </defs>
  <g id="Group_1367" data-name="Group 1367" transform="translate(-1251.818 -4595.121)">
    <g id="Group_1154" data-name="Group 1154" transform="translate(1321 4595.121)" opacity="0.601">
      <g id="Group_560" data-name="Group 560" clip-path="url(#clip-path)">
        <path id="Path_67" data-name="Path 67" d="M1.451,46.123,46.122,1.452a4.955,4.955,0,0,1,7.008,0L97.8,46.123a4.955,4.955,0,0,1,0,7.008L53.13,97.8a4.955,4.955,0,0,1-7.008,0L1.451,53.131a4.955,4.955,0,0,1,0-7.008" transform="translate(0 0)" fill="#a588f7"/>
      </g>
    </g>
    <g id="Group_560-2" data-name="Group 560" transform="matrix(0.921, -0.391, 0.391, 0.921, 1251.818, 4676.102)" clip-path="url(#clip-path-2)" opacity="0.3">
      <path id="Path_67-2" data-name="Path 67" d="M1.061,33.723,33.722,1.062a3.623,3.623,0,0,1,5.124,0L71.507,33.723a3.623,3.623,0,0,1,0,5.124L38.846,71.508a3.623,3.623,0,0,1-5.124,0L1.061,38.847a3.623,3.623,0,0,1,0-5.124" transform="translate(0 0)" fill="#a588f7"/>
    </g>
  </g>
</svg>
