<svg xmlns="http://www.w3.org/2000/svg" xmlns:xlink="http://www.w3.org/1999/xlink" width="177.453" height="151.619" viewBox="0 0 177.453 151.619">
  <defs>
    <clipPath id="clip-path">
      <rect id="Rectangle_143" data-name="Rectangle 143" width="104.423" height="104.423" fill="#6e37ff"/>
    </clipPath>
    <clipPath id="clip-path-2">
      <rect id="Rectangle_143-2" data-name="Rectangle 143" width="57.146" height="57.146" fill="#6e37ff"/>
    </clipPath>
  </defs>
  <g id="Group_1365" data-name="Group 1365" transform="translate(-1391 -1639.191)">
    <g id="Group_1144" data-name="Group 1144" transform="translate(1568.452 1723.671) rotate(144)">
      <g id="Group_560" data-name="Group 560" clip-path="url(#clip-path)">
        <path id="Path_67" data-name="Path 67" d="M1.527,48.525l47-47a5.214,5.214,0,0,1,7.374,0l47,47a5.214,5.214,0,0,1,0,7.374l-47,47a5.214,5.214,0,0,1-7.374,0l-47-47a5.214,5.214,0,0,1,0-7.374" transform="translate(0 0)" fill="#e2d5ff"/>
      </g>
    </g>
    <g id="Group_1145" data-name="Group 1145" transform="translate(1400.923 1724.608) rotate(10)">
      <g id="Group_560-2" data-name="Group 560" clip-path="url(#clip-path-2)">
        <path id="Path_67-2" data-name="Path 67" d="M.836,26.556,26.555.837a2.853,2.853,0,0,1,4.035,0L56.31,26.556a2.853,2.853,0,0,1,0,4.035L30.59,56.311a2.853,2.853,0,0,1-4.035,0L.836,30.591a2.853,2.853,0,0,1,0-4.035" transform="translate(0 -0.001)" fill="#47ce98"/>
      </g>
    </g>
  </g>
</svg>
