<svg xmlns="http://www.w3.org/2000/svg" xmlns:xlink="http://www.w3.org/1999/xlink" width="181.547" height="215.326" viewBox="0 0 181.547 215.326">
  <defs>
    <clipPath id="clip-path">
      <rect id="Rectangle_143" data-name="Rectangle 143" width="140.522" height="140.522" fill="none"/>
    </clipPath>
    <clipPath id="clip-path-2">
      <rect id="Rectangle_146" data-name="Rectangle 146" width="86.736" height="43.557" fill="none"/>
    </clipPath>
  </defs>
  <g id="Group_1058" data-name="Group 1058" transform="translate(-50.453 -2133.448)">
    <g id="Group_951" data-name="Group 951" transform="matrix(0.934, 0.358, -0.358, 0.934, 100.812, 2167.227)">
      <g id="Group_560" data-name="Group 560" clip-path="url(#clip-path)">
        <path id="Path_67" data-name="Path 67" d="M2.055,65.3,65.3,2.056a7.016,7.016,0,0,1,9.923,0L138.466,65.3a7.016,7.016,0,0,1,0,9.923L75.222,138.467a7.016,7.016,0,0,1-9.923,0L2.055,75.223a7.016,7.016,0,0,1,0-9.923" transform="translate(0 0)" fill="#b1ddfc"/>
      </g>
    </g>
    <g id="Group_970" data-name="Group 970" transform="matrix(0.839, -0.545, 0.545, 0.839, 92.994, 2180.688)">
      <g id="Group_562" data-name="Group 562" transform="translate(0 0)" clip-path="url(#clip-path-2)">
        <path id="Path_68" data-name="Path 68" d="M3.935,43.557A3.922,3.922,0,0,1,.018,39.278a43.561,43.561,0,0,1,86.7,0A3.922,3.922,0,0,1,82.8,43.557Z" transform="translate(0 0)" fill="#65befb"/>
      </g>
    </g>
  </g>
</svg>
