<svg xmlns="http://www.w3.org/2000/svg" xmlns:xlink="http://www.w3.org/1999/xlink" width="172.266" height="193.206" viewBox="0 0 172.266 193.206">
  <defs>
    <clipPath id="clip-path">
      <rect id="Rectangle_143" data-name="Rectangle 143" width="99.253" height="99.253" fill="#6e37ff"/>
    </clipPath>
    <clipPath id="clip-path-2">
      <rect id="Rectangle_143-2" data-name="Rectangle 143" width="99.253" height="99.253" fill="#65befb"/>
    </clipPath>
  </defs>
  <g id="Group_1057" data-name="Group 1057" transform="translate(-1321 -210.816)">
    <g id="Group_952" data-name="Group 952" transform="translate(1391.183 210.816) rotate(45)">
      <g id="Group_560" data-name="Group 560" clip-path="url(#clip-path)">
        <path id="Path_67" data-name="Path 67" d="M1.451,46.123,46.122,1.452a4.955,4.955,0,0,1,7.008,0L97.8,46.123a4.955,4.955,0,0,1,0,7.008L53.13,97.8a4.955,4.955,0,0,1-7.008,0L1.451,53.131a4.955,4.955,0,0,1,0-7.008" transform="translate(0 0)" fill="#ffc299"/>
      </g>
    </g>
    <g id="Group_953" data-name="Group 953" transform="matrix(0.407, 0.914, -0.914, 0.407, 1452.896, 272.98)">
      <g id="Group_560-2" data-name="Group 560" clip-path="url(#clip-path-2)">
        <path id="Path_67-2" data-name="Path 67" d="M1.451,46.123,46.122,1.452a4.955,4.955,0,0,1,7.008,0L97.8,46.123a4.955,4.955,0,0,1,0,7.008L53.13,97.8a4.955,4.955,0,0,1-7.008,0L1.451,53.131a4.955,4.955,0,0,1,0-7.008" transform="translate(0 0)" fill="#ff9d5a"/>
      </g>
    </g>
  </g>
</svg>
