<svg xmlns="http://www.w3.org/2000/svg" width="20" height="20" viewBox="0 0 20 20">
  <g id="Icon_WrappedGift" transform="translate(0 0)">
    <path id="Path_122" data-name="Path 122" d="M934.8,500.836h-2.13a3.182,3.182,0,0,0-2.87-4.546,4.6,4.6,0,0,0-4.034,2.743c-.02.034-.036.07-.057.1l-.055-.1a4.6,4.6,0,0,0-4.036-2.743,3.182,3.182,0,0,0-2.87,4.546h-2.13a.909.909,0,0,0-.909.909v4.546a.909.909,0,0,0,.909.909H924.8v7.273h-5.455v-4.461a.909.909,0,1,0-1.818,0v5.371a.909.909,0,0,0,.909.909h14.546a.909.909,0,0,0,.909-.909V507.2h.909a.909.909,0,0,0,.909-.909v-4.546A.909.909,0,0,0,934.8,500.836Zm-5-2.727a1.364,1.364,0,0,1,0,2.727h-2.866C927.367,499.706,928.244,498.108,929.8,498.108Zm-9.546,1.364a1.364,1.364,0,0,1,1.364-1.364c1.559,0,2.441,1.591,2.868,2.727h-2.868A1.364,1.364,0,0,1,920.256,499.472Zm-2.727,5.909v-2.727H924.8v2.727Zm14.546,9.091h-5.455V507.2h5.455Zm1.818-9.091h-7.273v-2.727h7.273Z" transform="translate(-915.71 -496.29)" fill="#210c46"/>
    <path id="Path_123" data-name="Path 123" d="M924.619,554.6a.909.909,0,0,1-.909-.909v-3.973a.909.909,0,1,1,1.818,0v3.973A.909.909,0,0,1,924.619,554.6Z" transform="translate(-921.892 -536.873)" fill="#e5d4ff"/>
    <path id="Path_124" data-name="Path 124" d="M924.619,567.576a.909.909,0,0,1-.909-.909v-3.1a.909.909,0,1,1,1.818,0v3.1A.909.909,0,0,1,924.619,567.576Z" transform="translate(-921.892 -547.576)" fill="#b481ff"/>
    <path id="Path_125" data-name="Path 125" d="M927.717,578.108h-3.1a.909.909,0,1,1,0-1.818h3.1a.909.909,0,1,1,0,1.818Z" transform="translate(-921.892 -558.108)" fill="#7633ff"/>
  </g>
</svg>
