<svg id="Icon_Document" xmlns="http://www.w3.org/2000/svg" width="16.081" height="19.654" viewBox="0 0 16.081 19.654">
  <path id="Path_114" data-name="Path 114" d="M998.051,431.794H987.33a2.68,2.68,0,0,1-2.68-2.68V414.82a2.68,2.68,0,0,1,2.68-2.68h7.147a.893.893,0,0,1,.632.261l5.36,5.36a.893.893,0,0,1,.261.632v10.721a.893.893,0,1,1-1.787,0v-10.35l-4.835-4.838H987.33a.893.893,0,0,0-.893.893v14.294a.893.893,0,0,0,.893.893h10.72a.893.893,0,1,1,0,1.787Z" transform="translate(-984.65 -412.14)" fill="#006240"/>
  <path id="Path_115" data-name="Path 115" d="M1030.9,419.287h-5.36a.893.893,0,0,1-.893-.893v-5.36a.893.893,0,1,1,1.787,0V417.5h4.467a.893.893,0,1,1,0,1.787Z" transform="translate(-1015.716 -412.14)" fill="#006240"/>
  <path id="Path_116" data-name="Path 116" d="M1008.69,457.927h-7.147a.893.893,0,1,1,0-1.787h7.147a.893.893,0,1,1,0,1.787Z" transform="translate(-997.077 -446.313)" fill="#006240"/>
  <path id="Path_117" data-name="Path 117" d="M1008.69,473.927h-7.147a.893.893,0,1,1,0-1.787h7.147a.893.893,0,1,1,0,1.787Z" transform="translate(-997.077 -458.739)" fill="#006240"/>
  <path id="Path_118" data-name="Path 118" d="M1003.33,441.927h-1.787a.893.893,0,1,1,0-1.787h1.787a.893.893,0,0,1,0,1.787Z" transform="translate(-997.077 -433.886)" fill="#006240"/>
  <path id="Path_119" data-name="Path 119" d="M1049.543,476.607a.893.893,0,0,1-.893-.893v-2.68a.893.893,0,1,1,1.787,0v2.68A.893.893,0,0,1,1049.543,476.607Z" transform="translate(-1034.356 -458.739)" fill="#cff4e4"/>
  <path id="Path_120" data-name="Path 120" d="M1049.543,464.607a.893.893,0,0,1-.893-.893v-2.68a.893.893,0,0,1,1.787,0v2.68A.893.893,0,0,1,1049.543,464.607Z" transform="translate(-1034.356 -449.419)" fill="#5aeab7"/>
  <path id="Path_121" data-name="Path 121" d="M1049.543,446.728a.893.893,0,0,1-.893-.893v-4.371a.893.893,0,1,1,1.787,0v4.371A.893.893,0,0,1,1049.543,446.728Z" transform="translate(-1034.356 -434.22)" fill="#00bc65"/>
</svg>
