<svg xmlns="http://www.w3.org/2000/svg" xmlns:xlink="http://www.w3.org/1999/xlink" width="75.063" height="89.531" viewBox="0 0 75.063 89.531">
  <defs>
    <clipPath id="clip-path">
      <rect id="Rectangle_147" data-name="Rectangle 147" width="65.063" height="65.063" fill="none"/>
    </clipPath>
    <clipPath id="clip-path-2">
      <rect id="Rectangle_147-2" data-name="Rectangle 147" width="32.531" height="32.531" fill="none"/>
    </clipPath>
  </defs>
  <g id="Group_1060" data-name="Group 1060" transform="translate(-117.938 -428.568)">
    <g id="Group_642" data-name="Group 642" transform="translate(127.938 428.568)">
      <g id="Group_565" data-name="Group 565" clip-path="url(#clip-path)">
        <path id="Path_69" data-name="Path 69" d="M0,32.532A32.531,32.531,0,1,1,32.531,65.063,32.568,32.568,0,0,1,0,32.532m49.057,0A16.525,16.525,0,1,0,32.531,49.058,16.544,16.544,0,0,0,49.057,32.532" transform="translate(0 -0.001)" fill="#e2d5ff"/>
      </g>
    </g>
    <g id="Group_955" data-name="Group 955" transform="translate(117.938 485.568)">
      <g id="Group_565-2" data-name="Group 565" clip-path="url(#clip-path-2)">
        <path id="Path_69-2" data-name="Path 69" d="M0,16.267A16.266,16.266,0,1,1,16.266,32.532,16.284,16.284,0,0,1,0,16.267m24.528,0a8.263,8.263,0,1,0-8.263,8.263,8.272,8.272,0,0,0,8.263-8.263" transform="translate(0 -0.001)" fill="#e2d5ff"/>
      </g>
    </g>
  </g>
</svg>
