<svg xmlns="http://www.w3.org/2000/svg" xmlns:xlink="http://www.w3.org/1999/xlink" width="172.977" height="173.914" viewBox="0 0 172.977 173.914">
  <defs>
    <clipPath id="clip-path">
      <rect id="Rectangle_143" data-name="Rectangle 143" width="150.342" height="150.343" fill="#6e37ff"/>
    </clipPath>
    <clipPath id="clip-path-2">
      <rect id="Rectangle_143-2" data-name="Rectangle 143" width="64.113" height="64.113" fill="#08b96d"/>
    </clipPath>
  </defs>
  <g id="Group_704" data-name="Group 704" transform="translate(-400.903 -1913.92) rotate(22)">
    <g id="Group_609" data-name="Group 609" transform="matrix(0.407, 0.914, -0.914, 0.407, 1227.988, 1568.09)">
      <g id="Group_560" data-name="Group 560" clip-path="url(#clip-path)">
        <path id="Path_67" data-name="Path 67" d="M2.2,69.863,69.863,2.2a7.506,7.506,0,0,1,10.616,0l67.664,67.664a7.506,7.506,0,0,1,0,10.616L80.479,148.144a7.506,7.506,0,0,1-10.616,0L2.2,80.479a7.506,7.506,0,0,1,0-10.616" transform="translate(0 0.001)" fill="#ffede1"/>
      </g>
    </g>
    <g id="Group_608" data-name="Group 608" transform="matrix(-0.438, 0.899, -0.899, -0.438, 1298.138, 1681.05)">
      <g id="Group_560-2" data-name="Group 560" clip-path="url(#clip-path-2)">
        <path id="Path_67-2" data-name="Path 67" d="M.938,29.793,29.793.938a3.2,3.2,0,0,1,4.527,0L63.175,29.793a3.2,3.2,0,0,1,0,4.527L34.32,63.175a3.2,3.2,0,0,1-4.527,0L.938,34.32a3.2,3.2,0,0,1,0-4.527" transform="translate(0 0)" fill="#ff8431"/>
      </g>
    </g>
  </g>
</svg>
