<svg xmlns="http://www.w3.org/2000/svg" xmlns:xlink="http://www.w3.org/1999/xlink" width="310.759" height="373.276" viewBox="0 0 310.759 373.276">
  <defs>
    <clipPath id="clip-path">
      <rect id="Rectangle_143" data-name="Rectangle 143" width="142.333" height="142.333" fill="#6e37ff"/>
    </clipPath>
    <clipPath id="clip-path-2">
      <rect id="Rectangle_143-2" data-name="Rectangle 143" width="53.138" height="53.138" fill="none"/>
    </clipPath>
    <clipPath id="clip-path-3">
      <rect id="Rectangle_143-3" data-name="Rectangle 143" width="168.737" height="168.737" fill="none"/>
    </clipPath>
  </defs>
  <g id="Group_1372" data-name="Group 1372" transform="translate(-1403.935 -629.263)">
    <g id="Group_956" data-name="Group 956" transform="translate(1438.368 830) rotate(14)">
      <g id="Group_560" data-name="Group 560" clip-path="url(#clip-path)">
        <path id="Path_67" data-name="Path 67" d="M2.081,66.142l64.06-64.06a7.106,7.106,0,0,1,10.05,0l64.06,64.06a7.106,7.106,0,0,1,0,10.05l-64.06,64.06a7.106,7.106,0,0,1-10.05,0L2.081,76.193a7.106,7.106,0,0,1,0-10.05" transform="translate(0 0)" fill="#d8eeff"/>
      </g>
    </g>
    <g id="Group_686" data-name="Group 686" transform="matrix(0.469, 0.883, -0.883, 0.469, 1560.289, 629.263)">
      <g id="Group_560-2" data-name="Group 560" clip-path="url(#clip-path-2)">
        <path id="Path_67-2" data-name="Path 67" d="M.777,24.693,24.693.777a2.653,2.653,0,0,1,3.752,0L52.36,24.693a2.653,2.653,0,0,1,0,3.752L28.445,52.36a2.653,2.653,0,0,1-3.752,0L.777,28.445a2.653,2.653,0,0,1,0-3.752" transform="translate(0 0)" fill="#b1ddfc"/>
      </g>
    </g>
    <g id="Group_688" data-name="Group 688" transform="translate(1567.112 660.613) rotate(29)">
      <g id="Group_560-3" data-name="Group 560" clip-path="url(#clip-path-3)">
        <path id="Path_67-3" data-name="Path 67" d="M2.468,78.411,78.411,2.468a8.425,8.425,0,0,1,11.915,0l75.943,75.943a8.425,8.425,0,0,1,0,11.915L90.326,166.269a8.425,8.425,0,0,1-11.915,0L2.468,90.326a8.425,8.425,0,0,1,0-11.915" transform="translate(0 0.001)" fill="#ff9d5a"/>
      </g>
    </g>
  </g>
</svg>
