<svg xmlns="http://www.w3.org/2000/svg" width="42" height="42" viewBox="0 0 42 42">
  <g id="Group_784" data-name="Group 784" transform="translate(-18 -21)">
    <g id="Group_188" data-name="Group 188" transform="translate(18 21)">
      <rect id="Rectangle_9" data-name="Rectangle 9" width="42" height="42" rx="5" fill="#915dff"/>
    </g>
    <path id="XMLID_54_" d="M640,289.4a.653.653,0,0,1,.653-.653h5.264a.653.653,0,0,1,.653.653v5.264a.653.653,0,0,1-.653.653h-5.264a.653.653,0,0,1-.653-.653Zm-5.722,8.087a.653.653,0,0,1,.653-.653h7.7v-.492a.653.653,0,0,1,1.305,0v.492h7.7a.653.653,0,0,1,.653.653V299.1a.653.653,0,0,1-1.305,0v-.959h-7.048v.959a.653.653,0,0,1-1.305,0v-.959h-7.048v.959a.653.653,0,1,1-1.305,0Zm3.67,8.85a.653.653,0,0,1-.653.653h-5.264a.653.653,0,0,1-.653-.653v-5.264a.653.653,0,0,1,.653-.653H637.3a.653.653,0,0,1,.653.653Zm8.621,0a.653.653,0,0,1-.653.653h-5.264a.653.653,0,0,1-.653-.653v-5.264a.653.653,0,0,1,.653-.653h5.264a.653.653,0,0,1,.653.653Zm8.621,0a.653.653,0,0,1-.653.653h-5.264a.653.653,0,0,1-.653-.653v-5.264a.653.653,0,0,1,.653-.653h5.264a.653.653,0,0,1,.653.653Z" transform="translate(-604.383 -255.75)" fill="#fff"/>
  </g>
</svg>
