<svg id="Element_info_icon" data-name="Element / info icon" xmlns="http://www.w3.org/2000/svg" width="14.665" height="14.665" viewBox="0 0 14.665 14.665">
  <path id="Path_65" data-name="Path 65" d="M661.882,698.09a7.332,7.332,0,1,0,7.332,7.332A7.332,7.332,0,0,0,661.882,698.09Zm1.526,10.67-.106.5a.034.034,0,0,1-.021.025,4.326,4.326,0,0,1-2.114.389,1.221,1.221,0,0,1-.881-1.539c.066-.377.64-2.42.71-2.879s-.23-.568-.555-.593a1.65,1.65,0,0,0-.733.193.011.011,0,0,1-.011,0,.011.011,0,0,1,0-.011l.106-.495a.035.035,0,0,1,.021-.025,4.329,4.329,0,0,1,2.114-.389,1.222,1.222,0,0,1,.881,1.539c-.066.377-.64,2.42-.71,2.879s.23.568.555.593a1.652,1.652,0,0,0,.733-.193.01.01,0,0,1,.011,0A.011.011,0,0,1,663.409,708.76Zm-.909-5.354a1.094,1.094,0,1,1,1.094-1.094A1.094,1.094,0,0,1,662.5,703.406Z" transform="translate(-654.55 -698.09)" fill="#6e37ff"/>
</svg>
