<svg xmlns="http://www.w3.org/2000/svg" xmlns:xlink="http://www.w3.org/1999/xlink" width="310.985" height="239.843" viewBox="0 0 310.985 239.843">
  <defs>
    <clipPath id="clip-path">
      <rect id="Rectangle_146" data-name="Rectangle 146" width="220.989" height="110.975" fill="none"/>
    </clipPath>
    <clipPath id="clip-path-2">
      <rect id="Rectangle_143" data-name="Rectangle 143" width="99.253" height="99.253" fill="#6e37ff"/>
    </clipPath>
    <clipPath id="clip-path-3">
      <rect id="Rectangle_143-2" data-name="Rectangle 143" width="64.795" height="64.795" fill="#6e37ff"/>
    </clipPath>
  </defs>
  <g id="Group_1369" data-name="Group 1369" transform="translate(62.54 -569.638)">
    <g id="Group_1165" data-name="Group 1165" transform="translate(192.539 737.534) rotate(161)">
      <g id="Group_562" data-name="Group 562" transform="translate(0 0)" clip-path="url(#clip-path)">
        <path id="Path_68" data-name="Path 68" d="M10.027,110.975a9.992,9.992,0,0,1-9.98-10.9,110.985,110.985,0,0,1,220.894,0,9.993,9.993,0,0,1-9.98,10.9Z" transform="translate(0 0)" fill="#915dff"/>
      </g>
    </g>
    <g id="Group_1185" data-name="Group 1185" transform="translate(32.376 569.638) rotate(73)">
      <g id="Group_560" data-name="Group 560" clip-path="url(#clip-path-2)">
        <path id="Path_67" data-name="Path 67" d="M1.451,46.123,46.122,1.452a4.955,4.955,0,0,1,7.008,0L97.8,46.123a4.955,4.955,0,0,1,0,7.008L53.13,97.8a4.955,4.955,0,0,1-7.008,0L1.451,53.131a4.955,4.955,0,0,1,0-7.008" transform="translate(0 0)" fill="#c8acff"/>
      </g>
    </g>
    <g id="Group_1186" data-name="Group 1186" transform="translate(186.481 680.589) rotate(17)">
      <g id="Group_560-2" data-name="Group 560" clip-path="url(#clip-path-3)">
        <path id="Path_67-2" data-name="Path 67" d="M.947,30.11,30.109.948a3.235,3.235,0,0,1,4.575,0L63.847,30.11a3.235,3.235,0,0,1,0,4.575L34.685,63.848a3.235,3.235,0,0,1-4.575,0L.947,34.686a3.235,3.235,0,0,1,0-4.575" transform="translate(0 0)" fill="#e2d5ff"/>
      </g>
    </g>
  </g>
</svg>
