<svg xmlns="http://www.w3.org/2000/svg" xmlns:xlink="http://www.w3.org/1999/xlink" width="131.415" height="137.762" viewBox="0 0 131.415 137.762">
  <defs>
    <clipPath id="clip-path">
      <rect id="Rectangle_143" data-name="Rectangle 143" width="86.6" height="86.6" fill="none"/>
    </clipPath>
    <clipPath id="clip-path-2">
      <rect id="Rectangle_143-2" data-name="Rectangle 143" width="46.578" height="46.578" fill="none"/>
    </clipPath>
  </defs>
  <g id="Group_1356" data-name="Group 1356" transform="translate(-1432.293 -4181.238)">
    <g id="Group_1354" data-name="Group 1354" transform="translate(1432.293 4181.238)" opacity="0.355">
      <g id="Group_560" data-name="Group 560" clip-path="url(#clip-path)">
        <path id="Path_67" data-name="Path 67" d="M1.266,40.243,40.242,1.267a4.324,4.324,0,0,1,6.115,0L85.333,40.243a4.324,4.324,0,0,1,0,6.115L46.357,85.334a4.324,4.324,0,0,1-6.115,0L1.266,46.358a4.324,4.324,0,0,1,0-6.115" transform="translate(0 0)" fill="#a588f7"/>
      </g>
    </g>
    <g id="Group_1355" data-name="Group 1355" transform="translate(1533.768 4253.379) rotate(50)" opacity="0.222">
      <g id="Group_560-2" data-name="Group 560" clip-path="url(#clip-path-2)">
        <path id="Path_67-2" data-name="Path 67" d="M.681,21.645,21.645.681a2.326,2.326,0,0,1,3.289,0L45.9,21.645a2.326,2.326,0,0,1,0,3.289L24.934,45.9a2.326,2.326,0,0,1-3.289,0L.681,24.934a2.326,2.326,0,0,1,0-3.289" transform="translate(0 0)" fill="#a588f7"/>
      </g>
    </g>
  </g>
</svg>
