<svg xmlns="http://www.w3.org/2000/svg" xmlns:xlink="http://www.w3.org/1999/xlink" width="232.607" height="248.269" viewBox="0 0 232.607 248.269">
  <defs>
    <clipPath id="clip-path">
      <rect id="Rectangle_143" data-name="Rectangle 143" width="143.342" height="143.342" fill="#6e37ff"/>
    </clipPath>
    <clipPath id="clip-path-2">
      <rect id="Rectangle_147" data-name="Rectangle 147" width="65.063" height="65.063" fill="none"/>
    </clipPath>
  </defs>
  <g id="Group_1373" data-name="Group 1373" transform="translate(-1425.99 -1903.508)">
    <g id="Group_959" data-name="Group 959" transform="matrix(-0.927, -0.375, 0.375, -0.927, 1604.9, 2090.109)">
      <g id="Group_560" data-name="Group 560" clip-path="url(#clip-path)">
        <path id="Path_67" data-name="Path 67" d="M2.1,66.611,66.61,2.1a7.157,7.157,0,0,1,10.122,0l64.513,64.513a7.157,7.157,0,0,1,0,10.122L76.731,141.246a7.157,7.157,0,0,1-10.122,0L2.1,76.732a7.157,7.157,0,0,1,0-10.122" transform="translate(0 0)" fill="#33aefb"/>
      </g>
    </g>
    <g id="Group_960" data-name="Group 960" transform="translate(1518.002 2105.771) rotate(135)">
      <g id="Group_565" data-name="Group 565" clip-path="url(#clip-path-2)">
        <path id="Path_69" data-name="Path 69" d="M0,32.532A32.531,32.531,0,1,1,32.531,65.063,32.568,32.568,0,0,1,0,32.532m49.057,0A16.525,16.525,0,1,0,32.531,49.058,16.544,16.544,0,0,0,49.057,32.532" transform="translate(0 -0.001)" fill="#c8acff"/>
      </g>
    </g>
  </g>
</svg>
