<svg xmlns="http://www.w3.org/2000/svg" xmlns:xlink="http://www.w3.org/1999/xlink" width="198.426" height="176.57" viewBox="0 0 198.426 176.57">
  <defs>
    <clipPath id="clip-path">
      <rect id="Rectangle_308" data-name="Rectangle 308" width="94.499" height="94.499" fill="#6e37ff"/>
    </clipPath>
  </defs>
  <g id="Group_1367" data-name="Group 1367" transform="translate(22.427 -1854.939)">
    <g id="Group_1161" data-name="Group 1161" transform="matrix(0.966, 0.259, -0.259, 0.966, 84.721, 1915.772)" clip-path="url(#clip-path)">
      <path id="Path_235" data-name="Path 235" d="M1.382,43.913,43.913,1.382a4.718,4.718,0,0,1,6.673,0L93.117,43.913a4.718,4.718,0,0,1,0,6.673L50.586,93.117a4.718,4.718,0,0,1-6.673,0L1.382,50.586a4.718,4.718,0,0,1,0-6.673" transform="translate(0 0)" fill="#ffb685"/>
    </g>
    <g id="Group_1160" data-name="Group 1160" transform="translate(-32.427 1537.213)">
      <path id="Path_88" data-name="Path 88" d="M39,0A39,39,0,1,1,0,39,39,39,0,0,1,39,0Z" transform="translate(10 337.727)" fill="#e2d5ff"/>
      <circle id="Ellipse_25" data-name="Ellipse 25" cx="10" cy="10" r="10" transform="translate(101 317.727)" fill="#c8acff"/>
    </g>
  </g>
</svg>
