<svg id="Module_header_comp" data-name="Module / header comp" xmlns="http://www.w3.org/2000/svg" xmlns:xlink="http://www.w3.org/1999/xlink" width="1290.559" height="1290.559" viewBox="0 0 1290.559 1290.559">
  <defs>
    <clipPath id="clip-path">
      <rect id="Rectangle_212" data-name="Rectangle 212" width="585.069" height="1240.057" rx="292.535" transform="translate(1603.854 -449.805) rotate(45)" fill="#fff"/>
    </clipPath>
  </defs>
  <g id="Group_21" data-name="Group 21" transform="translate(-727 449.805)" clip-path="url(#clip-path)">
    <g id="Group_799" data-name="Group 799" transform="translate(17383 24479.195)">
      <g id="Rectangle_228" data-name="Rectangle 228" transform="translate(-15779.147 -24929) rotate(45)" fill="none" stroke="#ac83ff" stroke-width="80">
        <rect width="585.069" height="1240.057" rx="292.535" stroke="none"/>
        <rect x="40" y="40" width="505.069" height="1160.057" rx="252.535" fill="none"/>
      </g>
      <g id="Path_97" data-name="Path 97" transform="translate(-15779.147 -24929) rotate(45)" fill="none">
        <path d="M292.535,0C454.1,0,585.069,130.972,585.069,292.535V947.523c0,161.562-130.972,292.535-292.535,292.535S0,1109.085,0,947.523V292.535C0,130.972,130.972,0,292.535,0Z" stroke="none"/>
        <path d="M 292.5345153808594 55 C 161.5574340820312 55 54.99993896484375 161.5574951171875 54.99993896484375 292.5346069335938 L 54.99993896484375 947.52294921875 C 54.99993896484375 1078.5 161.5574340820312 1185.057495117188 292.5345153808594 1185.057495117188 C 423.5115966796875 1185.057495117188 530.069091796875 1078.5 530.069091796875 947.52294921875 L 530.069091796875 292.5346069335938 C 530.069091796875 161.5574951171875 423.5115966796875 55 292.5345153808594 55 M 292.5345153808594 0 C 454.0968017578125 0 585.069091796875 130.9720458984375 585.069091796875 292.5346069335938 L 585.069091796875 947.52294921875 C 585.069091796875 1109.085205078125 454.0968017578125 1240.057495117188 292.5345153808594 1240.057495117188 C 130.9722290039062 1240.057495117188 -6.103515625e-05 1109.085205078125 -6.103515625e-05 947.52294921875 L -6.103515625e-05 292.5346069335938 C -6.103515625e-05 130.9720458984375 130.9722290039062 0 292.5345153808594 0 Z" stroke="none" fill="#915dff"/>
      </g>
      <g id="Rectangle_226" data-name="Rectangle 226" transform="translate(-15779.147 -24929) rotate(45)" fill="none" stroke="#6e37ff" stroke-width="30">
        <rect width="585.069" height="1240.057" rx="292.535" stroke="none"/>
        <rect x="15" y="15" width="555.069" height="1210.057" rx="277.535" fill="none"/>
      </g>
    </g>
  </g>
</svg>
