<svg xmlns="http://www.w3.org/2000/svg" xmlns:xlink="http://www.w3.org/1999/xlink" width="222.239" height="248.146" viewBox="0 0 222.239 248.146">
  <defs>
    <clipPath id="clip-path">
      <rect id="Rectangle_146" data-name="Rectangle 146" width="198.606" height="99.735" transform="translate(0 0)" fill="none"/>
    </clipPath>
    <clipPath id="clip-path-2">
      <rect id="Rectangle_143" data-name="Rectangle 143" width="99.253" height="99.253" fill="#65befb"/>
    </clipPath>
  </defs>
  <g id="Group_1362" data-name="Group 1362" transform="translate(-1444.88 -763.868)">
    <g id="Group_996" data-name="Group 996" transform="matrix(-0.891, 0.454, -0.454, -0.891, 1667.119, 921.85)">
      <g id="Group_562" data-name="Group 562" clip-path="url(#clip-path)">
        <path id="Path_68" data-name="Path 68" d="M9.011,99.735a8.98,8.98,0,0,1-8.969-9.8,99.744,99.744,0,0,1,198.521,0,8.981,8.981,0,0,1-8.969,9.8Z" fill="#915dff"/>
      </g>
    </g>
    <g id="Group_999" data-name="Group 999" transform="matrix(0.574, 0.819, -0.819, 0.574, 1526.184, 763.868)">
      <g id="Group_560" data-name="Group 560" clip-path="url(#clip-path-2)">
        <path id="Path_67" data-name="Path 67" d="M1.451,46.123,46.122,1.452a4.955,4.955,0,0,1,7.008,0L97.8,46.123a4.955,4.955,0,0,1,0,7.008L53.13,97.8a4.955,4.955,0,0,1-7.008,0L1.451,53.131a4.955,4.955,0,0,1,0-7.008" transform="translate(0 0)" fill="#65befb"/>
      </g>
    </g>
  </g>
</svg>
