<?xml version="1.0" encoding="utf-8"?>
<svg width="50px" height="39px" viewBox="0 0 50 39" version="1.1" xmlns:xlink="http://www.w3.org/1999/xlink" xmlns="http://www.w3.org/2000/svg">
  <defs>
    <path d="M0 0L49.332 0L49.332 38.726L0 38.726L0 0Z" id="path_1" />
    <clipPath id="mask_1">
      <use xlink:href="#path_1" />
    </clipPath>
  </defs>
  <g id="platform_icon3">
    <path d="M0 0L49.332 0L49.332 38.726L0 38.726L0 0Z" id="Background" fill="none" fill-rule="evenodd" stroke="none" />
    <g clip-path="url(#mask_1)">
      <path d="M24.948 10.64C24.948 16.5163 20.1843 21.28 14.308 21.28C8.4317 21.28 3.66803 16.5164 3.66797 10.6401C3.66797 4.76376 8.43158 6.10353e-05 14.3079 1.45519e-10C20.1843 -3.05174e-05 24.948 4.76367 24.948 10.64" id="Path_210" fill="#FFECDF" stroke="none" />
      <path d="M36.225 21.226C32.3177 21.2245 28.9031 19.1162 27.0554 15.9756C26.1257 14.3955 25.5927 12.5541 25.593 10.5882C25.5939 4.71503 30.3553 -0.0457458 36.2285 -0.0460205C42.1017 -0.0463257 46.8635 4.71396 46.865 10.5872C46.8665 16.4604 42.1073 21.2232 36.2341 21.226" id="Path_211" fill="#FF7B00" stroke="none" />
      <path d="M24.6631 38.691C24.5026 38.715 24.3405 38.7267 24.1782 38.726L3.3101 38.726C2.25004 38.7227 1.25523 38.2135 0.632673 37.3555C0.0100534 36.4975 -0.165545 35.3939 0.160078 34.385C1.74547 29.4383 5.89482 25.7444 10.9919 24.7424C16.089 23.7403 21.3279 25.5885 24.668 29.567C23.4737 30.9836 22.5687 32.6204 22.0041 34.385C21.7023 35.3139 21.824 36.3285 22.337 37.1596C22.85 37.9907 23.7024 38.5543 24.668 38.701" id="Path_212" fill="#FFECDF" stroke="none" />
      <path d="M24.6629 38.6901C23.6973 38.5435 22.8449 37.9799 22.3319 37.1487C21.8189 36.3176 21.6972 35.303 21.9989 34.3741C22.5637 32.6095 23.4687 30.9726 24.6629 29.556C25.8571 30.9727 26.7622 32.6095 27.3269 34.3741C27.6286 35.303 27.5069 36.3176 26.9939 37.1487C26.4809 37.9798 25.6285 38.5435 24.6629 38.6901" id="Path_213" fill="#6B2219" stroke="none" />
      <path d="M46.0211 38.726L25.1531 38.726C24.9904 38.7269 24.8279 38.7152 24.6671 38.6911C25.6318 38.5434 26.4829 37.9795 26.995 37.1487C27.5071 36.318 27.6285 35.3042 27.3271 34.376C26.7624 32.6114 25.8573 30.9746 24.6631 29.558C28.0031 25.5795 33.242 23.7313 38.3391 24.7334C43.4362 25.7354 47.5856 29.4292 49.1711 34.376C49.4967 35.3849 49.3211 36.4885 48.6985 37.3465C48.0759 38.2045 47.0811 38.7137 46.0211 38.7171" id="Path_214" fill="#FF7B00" stroke="none" />
    </g>
  </g>
</svg>