<svg id="Illo_MagnifyingGlass" xmlns="http://www.w3.org/2000/svg" width="42.17" height="37.493" viewBox="0 0 42.17 37.493">
  <path id="Path_215" data-name="Path 215" d="M1076.753,539.9v16.073a3.616,3.616,0,0,1-3.614,3.616h-16.073a3.616,3.616,0,0,1-3.616-3.616v-5.7a10.153,10.153,0,0,0,4.729-13.989h14.961a3.616,3.616,0,0,1,3.614,3.614" transform="translate(-1034.583 -526.417)" fill="#7633ff"/>
  <path id="Path_216" data-name="Path 216" d="M1007.028,525.295l-10.687-10.689a14.6,14.6,0,1,0-4.022,4.24l8.834,8.836,1.745,1.745a1.176,1.176,0,0,0,1.66,0l1.745-1.745.725-.727a1.171,1.171,0,0,0,0-1.66m-18.812-9.155a10.153,10.153,0,1,1,5.916-9.227,10.153,10.153,0,0,1-5.916,9.227" transform="translate(-969.349 -492.277)" fill="#210c46"/>
  <path id="Path_217" data-name="Path 217" d="M1059.365,541.053a10.149,10.149,0,0,1-5.916,9.227V539.9a3.616,3.616,0,0,1,3.616-3.614h1.122a10.094,10.094,0,0,1,1.189,4.763" transform="translate(-1034.583 -526.417)" fill="#e5d4ff"/>
</svg>
