<svg id="Illo_CultureExperience" xmlns="http://www.w3.org/2000/svg" width="41.723" height="39.402" viewBox="0 0 41.723 39.402">
  <rect id="Rectangle_268" data-name="Rectangle 268" width="6.86" height="10.926" transform="translate(19.804 20.946)" fill="#cff4e4"/>
  <path id="Path_204" data-name="Path 204" d="M907.814,470.345a4.218,4.218,0,0,0-4.218-4.215H885.359a4.212,4.212,0,0,0-4.21,4.215v30.972a4.212,4.212,0,0,0,4.209,4.215h18.232a4.215,4.215,0,0,0,4.217-4.215v-3.312h-7.3a3.983,3.983,0,0,1-1.014-.127H887.585a1.912,1.912,0,0,1-1.912-1.912V475.683a1.912,1.912,0,0,1,1.912-1.915h13.792a1.951,1.951,0,0,1,.377.037,1.642,1.642,0,0,1,.266.072.066.066,0,0,1,.029,0v-.08h0a11.889,11.889,0,0,1,3.317.42,11.255,11.255,0,0,1,2.457-.406Z" transform="translate(-881.15 -466.13)" fill="#cff4e4"/>
  <path id="Path_205" data-name="Path 205" d="M982.041,494.91a10.092,10.092,0,0,0-.348,1.455l-.143-.074v-1.357h.356a1.138,1.138,0,0,1,.135,0" transform="translate(-954.886 -487.267)" fill="#ff7b00"/>
  <path id="Path_206" data-name="Path 206" d="M936.889,508.845a10.669,10.669,0,0,1-10.2-13.765.066.066,0,0,1,.029,0V495h0l-.281.019a13.8,13.8,0,0,0-4.836,1.238h0a12.594,12.594,0,0,0-6.847,11.088v10.265a1.609,1.609,0,0,0,1.609,1.609h10.265a12.476,12.476,0,0,0,12.217-10.358ZM921.7,496.827a2,2,0,0,0-.064-.422,1.976,1.976,0,0,1,.064.422Z" transform="translate(-905.826 -487.333)" fill="#00bc65"/>
  <path id="Path_207" data-name="Path 207" d="M970.733,507.371a10.738,10.738,0,0,1-.106,1.285,1.08,1.08,0,0,1-.024.186h-1.96a10.668,10.668,0,0,1-10.2-13.765.065.065,0,0,1,.029,0V495h0a12.131,12.131,0,0,1,5.774,1.381l.143.074a12.179,12.179,0,0,1,4.249,3.856,12.057,12.057,0,0,1,2.09,7.086" transform="translate(-937.576 -487.33)" fill="#006240"/>
  <path id="Path_208" data-name="Path 208" d="M959.729,495v.1a.068.068,0,0,0-.029,0,.354.354,0,0,1,.027-.09Z" transform="translate(-938.839 -487.333)" fill="#002e9f"/>
  <path id="Path_209" data-name="Path 209" d="M969.982,466.82a10.658,10.658,0,0,0-10.172,7.46,12.132,12.132,0,0,1,5.774,1.381l.143.074a12.18,12.18,0,0,1,4.249,3.856,12.057,12.057,0,0,1,2.09,7.086,10.737,10.737,0,0,1-.106,1.285,1.084,1.084,0,0,1-.024.186h7.218a1.487,1.487,0,0,0,1.487-1.487v-9.171A10.666,10.666,0,0,0,969.982,466.82Z" transform="translate(-938.919 -466.637)" fill="#00bc65"/>
</svg>
