<svg xmlns="http://www.w3.org/2000/svg" xmlns:xlink="http://www.w3.org/1999/xlink" width="52.758" height="73.05" viewBox="0 0 52.758 73.05">
  <defs>
    <clipPath id="clip-path">
      <path id="Path_45" data-name="Path 45" d="M26.225-38.5a4.059,4.059,0,0,1,2.41.793q.056.043.111.087L73.054-5.4l.008.008.063.048a4.058,4.058,0,0,1,1.8,3.369A4.058,4.058,0,0,1,73.1,1.41L28.635,33.757a4.058,4.058,0,0,1-6.468-3.266V-34.442A4.058,4.058,0,0,1,26.225-38.5Z" transform="translate(-22.167 38.5)" fill="#6e37ff" clip-rule="evenodd"/>
    </clipPath>
    <clipPath id="clip-path-2">
      <path id="Path_44" data-name="Path 44" d="M-757,17562H4252.134V-5320H-757Z" transform="translate(757 5320)" fill="#6e37ff"/>
    </clipPath>
  </defs>
  <g id="Group_144" data-name="Group 144" clip-path="url(#clip-path)">
    <g id="Group_143" data-name="Group 143" transform="translate(-2710.382 -18372.041)" clip-path="url(#clip-path-2)">
      <path id="Path_43" data-name="Path 43" d="M17.167,64.336h87.544V-43.5H17.167Z" transform="translate(2675.823 18398.148)" fill="#6e37ff"/>
    </g>
  </g>
</svg>
