<svg xmlns="http://www.w3.org/2000/svg" xmlns:xlink="http://www.w3.org/1999/xlink" width="198" height="174.414" viewBox="0 0 198 174.414">
  <defs>
    <clipPath id="clip-path">
      <rect id="Rectangle_143" data-name="Rectangle 143" width="95.625" height="95.625" fill="#6e37ff"/>
    </clipPath>
    <clipPath id="clip-path-2">
      <rect id="Rectangle_143-2" data-name="Rectangle 143" width="74.047" height="74.047" fill="#6e37ff"/>
    </clipPath>
  </defs>
  <g id="Group_1110" data-name="Group 1110" transform="translate(-70.043 -3479.944)">
    <g id="Group_687" data-name="Group 687" transform="translate(268.043 3512.649) rotate(110)">
      <g id="Group_560" data-name="Group 560" clip-path="url(#clip-path)">
        <path id="Path_67" data-name="Path 67" d="M1.4,44.437,44.436,1.4a4.774,4.774,0,0,1,6.752,0L94.226,44.436a4.774,4.774,0,0,1,0,6.752L51.188,94.227a4.774,4.774,0,0,1-6.752,0L1.4,51.189a4.774,4.774,0,0,1,0-6.752" transform="translate(0 0)" fill="#e2d5ff"/>
      </g>
    </g>
    <g id="Group_691" data-name="Group 691" transform="matrix(-0.799, 0.602, -0.602, -0.799, 173.742, 3609.795)">
      <g id="Group_560-2" data-name="Group 560" clip-path="url(#clip-path-2)">
        <path id="Path_67-2" data-name="Path 67" d="M1.083,34.409,34.409,1.083a3.7,3.7,0,0,1,5.229,0L72.964,34.409a3.7,3.7,0,0,1,0,5.229L39.638,72.964a3.7,3.7,0,0,1-5.229,0L1.083,39.638a3.7,3.7,0,0,1,0-5.229" transform="translate(0 0)" fill="#33aefb"/>
      </g>
    </g>
  </g>
</svg>
