<svg xmlns="http://www.w3.org/2000/svg" xmlns:xlink="http://www.w3.org/1999/xlink" width="314" height="214.137" viewBox="0 0 314 214.137">
  <defs>
    <clipPath id="clip-path">
      <rect id="Rectangle_143" data-name="Rectangle 143" width="59.122" height="59.122" fill="none"/>
    </clipPath>
    <clipPath id="clip-path-2">
      <rect id="Rectangle_143-2" data-name="Rectangle 143" width="71.282" height="71.282" fill="none"/>
    </clipPath>
    <clipPath id="clip-path-3">
      <rect id="Rectangle_143-3" data-name="Rectangle 143" width="171.219" height="171.219" fill="#6e37ff"/>
    </clipPath>
  </defs>
  <g id="Group_1374" data-name="Group 1374" transform="translate(56 -182.104)">
    <g id="Group_1175" data-name="Group 1175" transform="matrix(-0.695, 0.719, -0.719, -0.695, 202.557, 353.712)">
      <g id="Group_560" data-name="Group 560" clip-path="url(#clip-path)">
        <path id="Path_67" data-name="Path 67" d="M.865,27.474,27.474.865a2.952,2.952,0,0,1,4.175,0L58.257,27.474a2.952,2.952,0,0,1,0,4.175L31.648,58.257a2.952,2.952,0,0,1-4.175,0L.865,31.648a2.952,2.952,0,0,1,0-4.175" transform="translate(0 0)" fill="#b1ddfc"/>
      </g>
    </g>
    <g id="Group_1177" data-name="Group 1177" transform="matrix(-0.208, 0.978, -0.978, -0.208, 258, 284.82)">
      <g id="Group_560-2" data-name="Group 560" clip-path="url(#clip-path-2)">
        <path id="Path_67-2" data-name="Path 67" d="M1.043,33.124,33.124,1.043a3.559,3.559,0,0,1,5.033,0L70.239,33.124a3.559,3.559,0,0,1,0,5.033L38.157,70.239a3.559,3.559,0,0,1-5.033,0L1.043,38.157a3.559,3.559,0,0,1,0-5.033" transform="translate(0 0)" fill="#65befb"/>
      </g>
    </g>
    <g id="Group_1176" data-name="Group 1176" transform="translate(113.111 378) rotate(-171)">
      <g id="Group_560-3" data-name="Group 560" clip-path="url(#clip-path-3)">
        <path id="Path_67-3" data-name="Path 67" d="M2.5,79.565,79.564,2.5a8.549,8.549,0,0,1,12.09,0l77.06,77.06a8.549,8.549,0,0,1,0,12.09l-77.06,77.061a8.549,8.549,0,0,1-12.09,0L2.5,91.655a8.549,8.549,0,0,1,0-12.09" transform="translate(0 0.001)" fill="#84e7ba"/>
      </g>
    </g>
  </g>
</svg>
