<svg xmlns="http://www.w3.org/2000/svg" xmlns:xlink="http://www.w3.org/1999/xlink" width="37.5" height="24.484" viewBox="0 0 37.5 24.484">
  <defs>
    <clipPath id="clip-path">
      <rect id="Rectangle_24" data-name="Rectangle 24" width="37.5" height="24.484" transform="translate(0 0)" fill="#AC83FF" stroke="#e2d5ff" stroke-width="0.3"/>
    </clipPath>
  </defs>
  <g id="Element_quotation_marks" data-name="Element / quotation marks" transform="translate(0)">
    <g id="Group_39" data-name="Group 39" transform="translate(37.5 24.484) rotate(180)">
      <g id="Group_38" data-name="Group 38" clip-path="url(#clip-path)">
        <path id="Path_1" data-name="Path 1" d="M4.535,14.963a26.175,26.175,0,0,0,2.914.93,6.158,6.158,0,0,1-2.974,4.134,19.7,19.7,0,0,1-2.5,1.109c-.362.143-.518.32-.447.711.12.653.239,1.307.314,1.965.064.562.342.758.876.637,1.2-.273,2.439-.454,3.608-.836,6.987-2.283,11.413-8.465,10.5-15.55C16.119,2.6,11.831-.606,6.879.1a8.023,8.023,0,0,0-6.79,6.79,7.708,7.708,0,0,0,4.446,8.078" transform="translate(20.56 0)" fill="#AC83FF" stroke="#e2d5ff" stroke-width="0.3"/>
        <path id="Path_2" data-name="Path 2" d="M3.4,14.279a8.351,8.351,0,0,0,4.094,1.46l.191.2a26.163,26.163,0,0,1-1.64,2.733,7.7,7.7,0,0,1-3.993,2.423c-.471.15-.63.369-.536.841.12.606.235,1.215.3,1.829s.347.758.917.675a16.578,16.578,0,0,0,11.012-5.855,13.2,13.2,0,0,0,2.886-11.45A8.545,8.545,0,0,0,6.929.075a7.786,7.786,0,0,0-6.7,5.862A7.961,7.961,0,0,0,3.4,14.279" transform="translate(0 0.018)" fill="#AC83FF" stroke="#e2d5ff" stroke-width="0.3"/>
      </g>
    </g>
  </g>
</svg>
