<svg xmlns="http://www.w3.org/2000/svg" xmlns:xlink="http://www.w3.org/1999/xlink" width="159.842" height="147.473" viewBox="0 0 159.842 147.473">
  <defs>
    <clipPath id="clip-path">
      <rect id="Rectangle_147" data-name="Rectangle 147" width="51.967" height="51.967" fill="none"/>
    </clipPath>
    <clipPath id="clip-path-2">
      <rect id="Rectangle_147-2" data-name="Rectangle 147" width="103.934" height="103.934" fill="none"/>
    </clipPath>
  </defs>
  <g id="Group_1055" data-name="Group 1055" transform="translate(-77.128 -237.5)">
    <g id="Group_947" data-name="Group 947" transform="matrix(0.259, 0.966, -0.966, 0.259, 223.52, 321.326)">
      <g id="Group_565" data-name="Group 565" clip-path="url(#clip-path)">
        <path id="Path_69" data-name="Path 69" d="M0,25.984A25.984,25.984,0,1,1,25.983,51.968,26.013,26.013,0,0,1,0,25.984m39.183,0a13.2,13.2,0,1,0-13.2,13.2,13.214,13.214,0,0,0,13.2-13.2" transform="translate(0 -0.001)" fill="#65befb"/>
      </g>
    </g>
    <g id="Group_945" data-name="Group 945" transform="matrix(0.259, 0.966, -0.966, 0.259, 177.521, 237.5)">
      <g id="Group_565-2" data-name="Group 565" clip-path="url(#clip-path-2)">
        <path id="Path_69-2" data-name="Path 69" d="M0,51.968a51.967,51.967,0,1,1,51.967,51.967A52.026,52.026,0,0,1,0,51.968m78.366,0a26.4,26.4,0,1,0-26.4,26.4,26.429,26.429,0,0,0,26.4-26.4" transform="translate(0 0)" fill="#b1ddfc"/>
      </g>
    </g>
  </g>
</svg>
