<?xml version="1.0" encoding="utf-8"?>
<svg width="53px" height="53px" viewBox="0 0 53 53" version="1.1" xmlns:xlink="http://www.w3.org/1999/xlink" xmlns="http://www.w3.org/2000/svg">
  <defs>
    <path d="M0 0L53 0L53 53L0 53L0 0Z" id="path_1" />
    <path d="M0 0L31.8983 0L31.8983 30.1239L0 30.1239L0 0Z" id="path_2" />
    <clipPath id="mask_1">
      <use xlink:href="#path_1" />
    </clipPath>
    <clipPath id="mask_2">
      <use xlink:href="#path_2" />
    </clipPath>
  </defs>
  <g id="Group">
    <g id="single-product-icon">
      <path d="M0 0L53 0L53 53L0 53L0 0Z" id="Background" fill="none" fill-rule="evenodd" stroke="none" />
      <g clip-path="url(#mask_1)">
        <g id="Group">
          <g id="single-product-icon">
            <g id="Group_382">
              <path d="M0 10L0 5C0 3.61929 0.488155 2.44078 1.46447 1.46447C2.44078 0.488155 3.61929 0 5 0L30.7624 0L47.485 0C48.8657 0 50.0442 0.488155 51.0205 1.46447C51.9968 2.44078 52.485 3.61929 52.485 5L52.485 47.485C52.485 48.8657 51.9968 50.0442 51.0205 51.0205C50.0442 51.9968 48.8657 52.485 47.485 52.485L5 52.485C3.61929 52.485 2.44078 51.9968 1.46447 51.0205C0.488155 50.0442 0 48.8657 0 47.485L0 10L0 10Z" id="Rectangle_9" fill="#FFFFFF" fill-rule="evenodd" stroke="none" />
            </g>
          </g>
        </g>
      </g>
    </g>
    <g id="platform_icon1" transform="translate(10.888672 11.450806)">
      <path d="M0 0L31.8983 0L31.8983 30.1239L0 30.1239L0 0Z" id="Background" fill="none" fill-rule="evenodd" stroke="none" />
      <g clip-path="url(#mask_2)">
        <path d="M15.1406 16.0138L20.3853 16.0138L20.3853 24.367L15.1406 24.367L15.1406 16.0138Z" id="Rectangle_268" fill="#CFF4E4" fill-rule="evenodd" stroke="none" />
        <path d="M20.3851 3.22247C20.3839 1.44245 18.9405 2.33315e-05 17.1604 0L3.2177 0C2.36353 0.000373304 1.5445 0.34015 0.94087 0.944505C0.337237 1.54886 -0.00153569 2.36829 -0.000929074 3.22245L-0.000975737 26.9014C-0.00223564 28.6799 1.43848 30.1226 3.21695 30.1239L17.1557 30.1239C18.0107 30.1242 18.8307 29.7849 19.4354 29.1805C20.04 28.5762 20.3798 27.7563 20.3798 26.9014L20.3797 24.3693L14.7987 24.3693C14.5372 24.3703 14.2767 24.3377 14.0235 24.2722L4.91954 24.2722C4.11222 24.2722 3.45778 23.6177 3.45778 22.8104L3.45778 7.30352C3.45717 6.91548 3.61088 6.54306 3.88507 6.26842C4.15926 5.99379 4.53144 5.83947 4.91954 5.83947L15.4639 5.83945C15.5607 5.8395 15.6572 5.84897 15.7522 5.86773C15.8214 5.88037 15.8894 5.89878 15.9555 5.92279C15.9628 5.92116 15.9704 5.92116 15.9776 5.92277L15.9776 5.86162L15.9776 5.86162C16.8339 5.84869 17.6876 5.95678 18.5136 6.18275C19.1263 6.01012 19.7563 5.90602 20.392 5.87232L20.3851 3.22247Z" id="Path_204" fill="#CFF4E4" stroke="none" />
        <path d="M21.1498 5.84326C20.9133 6.20698 20.7323 6.57879 20.6079 6.95566L20.3853 6.89906L20.3853 5.8616L20.9396 5.8616C21.0096 5.85955 21.0797 5.85955 21.1498 5.8616" id="Path_205" fill="#FF7B00" stroke="none" />
        <path d="M23.7485 16.4466C21.1672 16.4442 18.7393 15.22 17.2025 13.1461C15.6657 11.0721 15.2012 8.39309 15.9503 5.92285C15.9576 5.92121 15.9652 5.92121 15.9725 5.92285L15.9725 5.86169L15.9725 5.86169L15.7576 5.87623C14.4779 5.96433 13.225 6.28509 12.0604 6.82272L12.0604 6.82272C8.87554 8.45585 6.85937 11.7208 6.82568 15.2998L6.82568 23.1477C6.82568 23.827 7.37645 24.3778 8.05581 24.3778L15.9037 24.3778C20.5242 24.3489 24.4595 21.0124 25.2438 16.4588L23.7485 16.4466ZM12.8517 7.70026C12.7773 7.44207 12.5208 7.18575 12.0872 6.93579C12.523 7.18575 12.7795 7.44207 12.8517 7.70032L12.8517 7.70026Z" id="Path_206" fill="#00BC65" fill-rule="evenodd" stroke="none" />
        <path d="M25.3494 15.322C25.3421 15.6507 25.315 15.9788 25.2683 16.3044C25.2664 16.3522 25.2603 16.3998 25.25 16.4466L23.7515 16.4466C21.1701 16.4445 18.742 15.2205 17.2052 13.1464C15.6682 11.0723 15.204 8.39313 15.9534 5.92287C15.9607 5.92121 15.9682 5.92121 15.9755 5.92287L15.9755 5.864L15.9755 5.864C17.5117 5.84487 19.0286 6.20767 20.3899 6.9198L20.4992 6.9764C21.8014 7.68633 22.9151 8.69703 23.7477 9.9244C24.8341 11.5185 25.3929 13.4133 25.3456 15.3418" id="Path_207" fill="#006240" stroke="none" />
        <path d="M16.7135 5.86169L16.7135 6.62622C16.4613 6.61036 16.2011 6.61036 15.949 6.62622C16.0807 6.38849 16.32 6.15729 16.6621 5.93798L16.7135 5.86169Z" id="Path_208" fill="#002E9F" stroke="none" />
        <path d="M23.7487 0.140016C20.1889 0.138312 17.04 2.44762 15.9719 5.84337C17.5081 5.82431 19.025 6.18709 20.3863 6.89919L20.4956 6.95577C21.7977 7.66575 22.9115 8.67645 23.7441 9.9038C24.8305 11.4979 25.3893 13.3927 25.3419 15.3212C25.3346 15.65 25.3076 15.9781 25.2609 16.3036C25.2589 16.3515 25.2528 16.3991 25.2426 16.4458L30.761 16.4458C31.3888 16.4458 31.8978 15.9369 31.8978 15.309L31.8978 8.29752C31.9 3.79576 28.2523 0.143469 23.7496 0.140039L23.7487 0.140016Z" id="Path_209" fill="#00BC65" stroke="none" />
      </g>
    </g>
  </g>
</svg>