<svg xmlns="http://www.w3.org/2000/svg" xmlns:xlink="http://www.w3.org/1999/xlink" width="277.231" height="347.59" viewBox="0 0 277.231 347.59">
  <defs>
    <clipPath id="clip-path">
      <rect id="Rectangle_146" data-name="Rectangle 146" width="247.763" height="124.421" fill="none"/>
    </clipPath>
    <clipPath id="clip-path-2">
      <rect id="Rectangle_143" data-name="Rectangle 143" width="120.001" height="120.001" fill="#6e37ff"/>
    </clipPath>
  </defs>
  <g id="Group_1068" data-name="Group 1068" transform="translate(-1268 -4483.155)">
    <g id="Group_1016" data-name="Group 1016" transform="matrix(-0.899, 0.438, -0.438, -0.899, 1545.23, 4722.133)">
      <g id="Group_562" data-name="Group 562" transform="translate(0 0)" clip-path="url(#clip-path)">
        <path id="Path_68" data-name="Path 68" d="M11.241,124.421A11.2,11.2,0,0,1,.053,112.2a124.431,124.431,0,0,1,247.657,0,11.2,11.2,0,0,1-11.189,12.222Z" transform="translate(0 0)" fill="#915dff"/>
      </g>
    </g>
    <g id="Group_1017" data-name="Group 1017" transform="translate(1474.856 4483.155) rotate(64)">
      <g id="Group_560" data-name="Group 560" clip-path="url(#clip-path-2)">
        <path id="Path_67" data-name="Path 67" d="M1.755,55.764,55.763,1.756a5.991,5.991,0,0,1,8.473,0l54.009,54.009a5.991,5.991,0,0,1,0,8.474L64.237,118.246a5.991,5.991,0,0,1-8.473,0L1.755,64.238a5.991,5.991,0,0,1,0-8.474" transform="translate(0 0)" fill="#c8acff"/>
      </g>
    </g>
  </g>
</svg>
