<svg xmlns="http://www.w3.org/2000/svg" xmlns:xlink="http://www.w3.org/1999/xlink" width="178.781" height="152.389" viewBox="0 0 178.781 152.389">
  <defs>
    <clipPath id="clip-path">
      <rect id="Rectangle_143" data-name="Rectangle 143" width="58.799" height="58.799" fill="#6e37ff"/>
    </clipPath>
    <clipPath id="clip-path-2">
      <rect id="Rectangle_143-2" data-name="Rectangle 143" width="99.253" height="99.253" fill="#65befb"/>
    </clipPath>
  </defs>
  <g id="Group_1067" data-name="Group 1067" transform="translate(-119.219 -2795.69)">
    <g id="Group_998" data-name="Group 998" transform="translate(142.194 2795.69) rotate(23)">
      <g id="Group_560" data-name="Group 560" clip-path="url(#clip-path)">
        <path id="Path_67" data-name="Path 67" d="M.86,27.324,27.323.861a2.936,2.936,0,0,1,4.152,0L57.939,27.324a2.936,2.936,0,0,1,0,4.152L31.475,57.94a2.936,2.936,0,0,1-4.152,0L.86,31.476a2.936,2.936,0,0,1,0-4.152" transform="translate(0 -0.001)" fill="#b1ddfc"/>
      </g>
    </g>
    <g id="Group_999" data-name="Group 999" transform="matrix(0.574, 0.819, -0.819, 0.574, 241.071, 2809.847)">
      <g id="Group_560-2" data-name="Group 560" clip-path="url(#clip-path-2)">
        <path id="Path_67-2" data-name="Path 67" d="M1.451,46.123,46.122,1.452a4.955,4.955,0,0,1,7.008,0L97.8,46.123a4.955,4.955,0,0,1,0,7.008L53.13,97.8a4.955,4.955,0,0,1-7.008,0L1.451,53.131a4.955,4.955,0,0,1,0-7.008" transform="translate(0 0)" fill="#65befb"/>
      </g>
    </g>
  </g>
</svg>
