<svg xmlns="http://www.w3.org/2000/svg" xmlns:xlink="http://www.w3.org/1999/xlink" width="287.551" height="235.774" viewBox="0 0 287.551 235.774">
  <defs>
    <clipPath id="clip-path">
      <rect id="Rectangle_143" data-name="Rectangle 143" width="99.253" height="99.253" fill="none"/>
    </clipPath>
    <clipPath id="clip-path-2">
      <rect id="Rectangle_143-2" data-name="Rectangle 143" width="149.388" height="149.388" fill="none"/>
    </clipPath>
  </defs>
  <g id="Group_871" data-name="Group 871" transform="translate(-1344.917 -3997.641)">
    <g id="Group_686" data-name="Group 686" transform="matrix(0.469, 0.883, -0.883, 0.469, 1585.871, 3997.641)">
      <g id="Group_560" data-name="Group 560" clip-path="url(#clip-path)">
        <path id="Path_67" data-name="Path 67" d="M1.451,46.123,46.122,1.452a4.955,4.955,0,0,1,7.008,0L97.8,46.123a4.955,4.955,0,0,1,0,7.008L53.13,97.8a4.955,4.955,0,0,1-7.008,0L1.451,53.131a4.955,4.955,0,0,1,0-7.008" transform="translate(0 0)" fill="#b1ddfc"/>
      </g>
    </g>
    <g id="Group_688" data-name="Group 688" transform="translate(1417.342 4030.332) rotate(29)">
      <g id="Group_560-2" data-name="Group 560" clip-path="url(#clip-path-2)">
        <path id="Path_67-2" data-name="Path 67" d="M2.185,69.42,69.419,2.186a7.459,7.459,0,0,1,10.549,0L147.2,69.42a7.459,7.459,0,0,1,0,10.549L79.968,147.2a7.459,7.459,0,0,1-10.549,0L2.185,79.969a7.459,7.459,0,0,1,0-10.549" transform="translate(0 0)" fill="#47ce98"/>
      </g>
    </g>
  </g>
</svg>
