<svg xmlns="http://www.w3.org/2000/svg" xmlns:xlink="http://www.w3.org/1999/xlink" width="71" height="71" viewBox="0 0 71 71">
  <defs>
    <filter id="Ellipse_3" x="0" y="0" width="71" height="71" filterUnits="userSpaceOnUse">
      <feOffset dx="2" dy="2" input="SourceAlpha"/>
      <feGaussianBlur stdDeviation="2.5" result="blur"/>
      <feFlood flood-opacity="0.161"/>
      <feComposite operator="in" in2="blur"/>
      <feComposite in="SourceGraphic"/>
    </filter>
    <clipPath id="clip-path">
      <path id="Path_45" data-name="Path 45" d="M23.333-38.5a1.167,1.167,0,0,1,.693.228l.032.025L36.8-28.984l0,0,.018.014a1.167,1.167,0,0,1,.517.968,1.167,1.167,0,0,1-.524.973l-12.783,9.3a1.167,1.167,0,0,1-.693.228,1.167,1.167,0,0,1-1.167-1.167V-37.333A1.167,1.167,0,0,1,23.333-38.5Z" fill="#6e37ff" clip-rule="evenodd"/>
    </clipPath>
    <clipPath id="clip-path-2">
      <path id="Path_44" data-name="Path 44" d="M-757,1258H683V-5320H-757Z" fill="#6e37ff"/>
    </clipPath>
  </defs>
  <g id="Element_play_button" data-name="Element / play button" transform="translate(5.5 5.5)">
    <g transform="matrix(1, 0, 0, 1, -5.5, -5.5)" filter="url(#Ellipse_3)">
      <circle id="Ellipse_3-2" data-name="Ellipse 3" cx="28" cy="28" r="28" transform="translate(5.5 5.5)" fill="#fff"/>
    </g>
    <g id="Group_144" data-name="Group 144" transform="translate(0.25 56.5)" clip-path="url(#clip-path)">
      <g id="Group_143" data-name="Group 143" clip-path="url(#clip-path-2)">
        <path id="Path_43" data-name="Path 43" d="M17.167-12.5H42.333v-31H17.167Z" fill="#6e37ff"/>
      </g>
    </g>
  </g>
</svg>
