<svg xmlns="http://www.w3.org/2000/svg" width="28" height="28" viewBox="0 0 28 28">
  <g id="Path_93" data-name="Path 93" fill="none">
    <path d="M14,0A14,14,0,1,1,0,14,14,14,0,0,1,14,0Z" stroke="none"/>
    <path d="M 14 0.5 C 10.39402008056641 0.5 7.003870010375977 1.904239654541016 4.454059600830078 4.454059600830078 C 1.904239654541016 7.003870010375977 0.5 10.39402008056641 0.5 14 C 0.5 17.60597991943359 1.904239654541016 20.99612998962402 4.454059600830078 23.54594039916992 C 7.003870010375977 26.09575080871582 10.39402008056641 27.5 14 27.5 C 17.60597991943359 27.5 20.99612045288086 26.09575080871582 23.54594039916992 23.54594039916992 C 26.09575080871582 20.99612045288086 27.5 17.60597991943359 27.5 14 C 27.5 10.39402008056641 26.09575080871582 7.003870010375977 23.54594039916992 4.454059600830078 C 20.99612998962402 1.904239654541016 17.60597991943359 0.5 14 0.5 M 14 0 C 21.73197937011719 0 28 6.268009185791016 28 14 C 28 21.73197937011719 21.73197937011719 28 14 28 C 6.268009185791016 28 0 21.73197937011719 0 14 C 0 6.268009185791016 6.268009185791016 0 14 0 Z" stroke="none" fill="#fff"/>
  </g>
</svg>
