<svg id="Element_header_play_button" data-name="Element / header play button" xmlns="http://www.w3.org/2000/svg" xmlns:xlink="http://www.w3.org/1999/xlink" width="28" height="28" viewBox="0 0 28 28">
  <defs>
    <clipPath id="clip-path">
      <path id="Path_45" data-name="Path 45" d="M22.778-38.5a.611.611,0,0,1,.363.119l.017.013,6.672,4.852h0l.01.007a.611.611,0,0,1,.271.507.611.611,0,0,1-.275.51l-6.7,4.871a.611.611,0,0,1-.363.119.611.611,0,0,1-.611-.611v-9.778A.611.611,0,0,1,22.778-38.5Z" transform="translate(-22.167 38.5)" fill="#fff" clip-rule="evenodd"/>
    </clipPath>
    <clipPath id="clip-path-2">
      <path id="Path_44" data-name="Path 44" d="M-757-1874.381H-2.714V-5320H-757Z" transform="translate(757 5320)" fill="#fff"/>
    </clipPath>
  </defs>
  <g id="Path_93" data-name="Path 93" fill="none">
    <path d="M14,0A14,14,0,1,1,0,14,14,14,0,0,1,14,0Z" stroke="none"/>
    <path d="M 14 0.5 C 10.39402008056641 0.5 7.003870010375977 1.904239654541016 4.454059600830078 4.454059600830078 C 1.904239654541016 7.003870010375977 0.5 10.39402008056641 0.5 14 C 0.5 17.60597991943359 1.904239654541016 20.99612998962402 4.454059600830078 23.54594039916992 C 7.003870010375977 26.09575080871582 10.39402008056641 27.5 14 27.5 C 17.60597991943359 27.5 20.99612045288086 26.09575080871582 23.54594039916992 23.54594039916992 C 26.09575080871582 20.99612045288086 27.5 17.60597991943359 27.5 14 C 27.5 10.39402008056641 26.09575080871582 7.003870010375977 23.54594039916992 4.454059600830078 C 20.99612998962402 1.904239654541016 17.60597991943359 0.5 14 0.5 M 14 0 C 21.73197937011719 0 28 6.268009185791016 28 14 C 28 21.73197937011719 21.73197937011719 28 14 28 C 6.268009185791016 28 0 21.73197937011719 0 14 C 0 6.268009185791016 6.268009185791016 0 14 0 Z" stroke="none" fill="#fff"/>
  </g>
  <g id="Group_144" data-name="Group 144" transform="translate(11.043 8.5)" clip-path="url(#clip-path)">
    <g id="Group_143" data-name="Group 143" transform="translate(-408.135 -2766.5)" clip-path="url(#clip-path-2)">
      <path id="Path_43" data-name="Path 43" d="M17.167-27.262H30.349V-43.5H17.167Z" transform="translate(388.349 2807.381)" fill="#fff"/>
    </g>
  </g>
</svg>
