<?xml version="1.0" standalone="no"?>
<!DOCTYPE svg PUBLIC "-//W3C//DTD SVG 20010904//EN"
 "http://www.w3.org/TR/2001/REC-SVG-20010904/DTD/svg10.dtd">
<svg version="1.0" xmlns="http://www.w3.org/2000/svg"
 width="96.000000pt" height="96.000000pt" viewBox="0 0 96.000000 96.000000"
 preserveAspectRatio="xMidYMid meet">
<metadata>
Created by potrace 1.14, written by Peter Selinger 2001-2017
</metadata>
<g transform="translate(0.000000,96.000000) scale(0.100000,-0.100000)"
fill="#000000" stroke="none">
<path d="M175 861 c-53 -9 -101 -36 -121 -66 -14 -21 -14 -30 -4 -56 14 -33
62 -60 149 -81 25 -6 54 -15 64 -20 17 -9 16 -12 -14 -34 -25 -18 -46 -24 -84
-24 -101 0 -153 -67 -128 -163 7 -26 9 -80 6 -138 -3 -53 -3 -109 1 -125 7
-26 9 -27 20 -12 7 10 16 48 19 85 3 38 13 85 22 106 14 34 14 40 0 60 -21 30
-19 69 6 101 16 20 29 26 61 26 37 0 103 27 278 113 15 8 26 23 28 38 3 25 1
25 -60 26 -75 1 -242 39 -258 58 -23 28 28 38 185 39 149 1 226 -10 284 -40
14 -8 31 -14 36 -14 21 0 86 -76 80 -92 -9 -22 -70 -62 -127 -83 -27 -10 -48
-19 -48 -21 0 -1 26 -12 58 -24 83 -31 142 -60 181 -88 33 -25 33 -26 12 -33
-14 -6 -36 -3 -64 9 -51 21 -259 24 -298 5 -13 -7 -44 -21 -69 -32 -51 -22
-125 -91 -97 -91 9 0 47 17 84 37 65 35 74 37 181 41 87 4 129 0 185 -13 83
-21 119 -21 152 1 52 34 31 88 -59 148 -31 20 -56 39 -56 41 0 2 12 26 26 54
30 57 28 74 -15 142 -27 42 -38 50 -112 78 -45 18 -101 36 -123 41 -46 11
-320 11 -381 1z"/>
<path d="M595 700 c-8 -27 6 -43 29 -34 22 8 17 48 -6 52 -10 2 -19 -5 -23
-18z"/>
</g>
</svg>
